%TF.GenerationSoftware,KiCad,Pcbnew,4.0.7*%
%TF.CreationDate,2018-06-21T01:00:39+02:00*%
%TF.ProjectId,FlyballETS-HW,466C7962616C6C4554532D48572E6B69,rev?*%
%TF.FileFunction,Legend,Top*%
%FSLAX46Y46*%
G04 Gerber Fmt 4.6, Leading zero omitted, Abs format (unit mm)*
G04 Created by KiCad (PCBNEW 4.0.7) date 06/21/18 01:00:39*
%MOMM*%
%LPD*%
G01*
G04 APERTURE LIST*
%ADD10C,0.150000*%
%ADD11C,0.300000*%
%ADD12C,0.200000*%
%ADD13C,0.120000*%
%ADD14C,0.203200*%
G04 APERTURE END LIST*
D10*
D11*
X73350572Y-117868000D02*
X73207715Y-117796571D01*
X72993429Y-117796571D01*
X72779144Y-117868000D01*
X72636286Y-118010857D01*
X72564858Y-118153714D01*
X72493429Y-118439429D01*
X72493429Y-118653714D01*
X72564858Y-118939429D01*
X72636286Y-119082286D01*
X72779144Y-119225143D01*
X72993429Y-119296571D01*
X73136286Y-119296571D01*
X73350572Y-119225143D01*
X73422001Y-119153714D01*
X73422001Y-118653714D01*
X73136286Y-118653714D01*
X74064858Y-119296571D02*
X74064858Y-117796571D01*
X74636286Y-117796571D01*
X74779144Y-117868000D01*
X74850572Y-117939429D01*
X74922001Y-118082286D01*
X74922001Y-118296571D01*
X74850572Y-118439429D01*
X74779144Y-118510857D01*
X74636286Y-118582286D01*
X74064858Y-118582286D01*
X75493429Y-119225143D02*
X75707715Y-119296571D01*
X76064858Y-119296571D01*
X76207715Y-119225143D01*
X76279144Y-119153714D01*
X76350572Y-119010857D01*
X76350572Y-118868000D01*
X76279144Y-118725143D01*
X76207715Y-118653714D01*
X76064858Y-118582286D01*
X75779144Y-118510857D01*
X75636286Y-118439429D01*
X75564858Y-118368000D01*
X75493429Y-118225143D01*
X75493429Y-118082286D01*
X75564858Y-117939429D01*
X75636286Y-117868000D01*
X75779144Y-117796571D01*
X76136286Y-117796571D01*
X76350572Y-117868000D01*
X138993429Y-43858571D02*
X138279143Y-43858571D01*
X138279143Y-42358571D01*
X139493429Y-43072857D02*
X139993429Y-43072857D01*
X140207715Y-43858571D02*
X139493429Y-43858571D01*
X139493429Y-42358571D01*
X140207715Y-42358571D01*
X140850572Y-43858571D02*
X140850572Y-42358571D01*
X141207715Y-42358571D01*
X141422000Y-42430000D01*
X141564858Y-42572857D01*
X141636286Y-42715714D01*
X141707715Y-43001429D01*
X141707715Y-43215714D01*
X141636286Y-43501429D01*
X141564858Y-43644286D01*
X141422000Y-43787143D01*
X141207715Y-43858571D01*
X140850572Y-43858571D01*
X143422000Y-43787143D02*
X143636286Y-43858571D01*
X143993429Y-43858571D01*
X144136286Y-43787143D01*
X144207715Y-43715714D01*
X144279143Y-43572857D01*
X144279143Y-43430000D01*
X144207715Y-43287143D01*
X144136286Y-43215714D01*
X143993429Y-43144286D01*
X143707715Y-43072857D01*
X143564857Y-43001429D01*
X143493429Y-42930000D01*
X143422000Y-42787143D01*
X143422000Y-42644286D01*
X143493429Y-42501429D01*
X143564857Y-42430000D01*
X143707715Y-42358571D01*
X144064857Y-42358571D01*
X144279143Y-42430000D01*
X145707714Y-43858571D02*
X144850571Y-43858571D01*
X145279143Y-43858571D02*
X145279143Y-42358571D01*
X145136286Y-42572857D01*
X144993428Y-42715714D01*
X144850571Y-42787143D01*
X147421999Y-42287143D02*
X146136285Y-44215714D01*
X147850571Y-42501429D02*
X147922000Y-42430000D01*
X148064857Y-42358571D01*
X148422000Y-42358571D01*
X148564857Y-42430000D01*
X148636286Y-42501429D01*
X148707714Y-42644286D01*
X148707714Y-42787143D01*
X148636286Y-43001429D01*
X147779143Y-43858571D01*
X148707714Y-43858571D01*
X116191236Y-131177143D02*
X115524569Y-131177143D01*
X115524569Y-132224762D02*
X115524569Y-130224762D01*
X116476950Y-130224762D01*
X117524570Y-132224762D02*
X117334094Y-132129524D01*
X117238855Y-131939048D01*
X117238855Y-130224762D01*
X118095998Y-130891429D02*
X118572189Y-132224762D01*
X119048379Y-130891429D02*
X118572189Y-132224762D01*
X118381713Y-132700952D01*
X118286474Y-132796190D01*
X118095998Y-132891429D01*
X119810284Y-132224762D02*
X119810284Y-130224762D01*
X119810284Y-130986667D02*
X120000761Y-130891429D01*
X120381713Y-130891429D01*
X120572189Y-130986667D01*
X120667427Y-131081905D01*
X120762665Y-131272381D01*
X120762665Y-131843810D01*
X120667427Y-132034286D01*
X120572189Y-132129524D01*
X120381713Y-132224762D01*
X120000761Y-132224762D01*
X119810284Y-132129524D01*
X122476951Y-132224762D02*
X122476951Y-131177143D01*
X122381713Y-130986667D01*
X122191237Y-130891429D01*
X121810285Y-130891429D01*
X121619808Y-130986667D01*
X122476951Y-132129524D02*
X122286475Y-132224762D01*
X121810285Y-132224762D01*
X121619808Y-132129524D01*
X121524570Y-131939048D01*
X121524570Y-131748571D01*
X121619808Y-131558095D01*
X121810285Y-131462857D01*
X122286475Y-131462857D01*
X122476951Y-131367619D01*
X123715047Y-132224762D02*
X123524571Y-132129524D01*
X123429332Y-131939048D01*
X123429332Y-130224762D01*
X124762666Y-132224762D02*
X124572190Y-132129524D01*
X124476951Y-131939048D01*
X124476951Y-130224762D01*
X125524570Y-131177143D02*
X126191237Y-131177143D01*
X126476951Y-132224762D02*
X125524570Y-132224762D01*
X125524570Y-130224762D01*
X126476951Y-130224762D01*
X127048380Y-130224762D02*
X128191237Y-130224762D01*
X127619809Y-132224762D02*
X127619809Y-130224762D01*
X128762666Y-132129524D02*
X129048381Y-132224762D01*
X129524571Y-132224762D01*
X129715047Y-132129524D01*
X129810285Y-132034286D01*
X129905524Y-131843810D01*
X129905524Y-131653333D01*
X129810285Y-131462857D01*
X129715047Y-131367619D01*
X129524571Y-131272381D01*
X129143619Y-131177143D01*
X128953143Y-131081905D01*
X128857904Y-130986667D01*
X128762666Y-130796190D01*
X128762666Y-130605714D01*
X128857904Y-130415238D01*
X128953143Y-130320000D01*
X129143619Y-130224762D01*
X129619809Y-130224762D01*
X129905524Y-130320000D01*
X132953143Y-131177143D02*
X133238857Y-131272381D01*
X133334096Y-131367619D01*
X133429334Y-131558095D01*
X133429334Y-131843810D01*
X133334096Y-132034286D01*
X133238857Y-132129524D01*
X133048381Y-132224762D01*
X132286476Y-132224762D01*
X132286476Y-130224762D01*
X132953143Y-130224762D01*
X133143619Y-130320000D01*
X133238857Y-130415238D01*
X133334096Y-130605714D01*
X133334096Y-130796190D01*
X133238857Y-130986667D01*
X133143619Y-131081905D01*
X132953143Y-131177143D01*
X132286476Y-131177143D01*
X134572191Y-132224762D02*
X134381715Y-132129524D01*
X134286476Y-132034286D01*
X134191238Y-131843810D01*
X134191238Y-131272381D01*
X134286476Y-131081905D01*
X134381715Y-130986667D01*
X134572191Y-130891429D01*
X134857905Y-130891429D01*
X135048381Y-130986667D01*
X135143619Y-131081905D01*
X135238857Y-131272381D01*
X135238857Y-131843810D01*
X135143619Y-132034286D01*
X135048381Y-132129524D01*
X134857905Y-132224762D01*
X134572191Y-132224762D01*
X136953143Y-132224762D02*
X136953143Y-131177143D01*
X136857905Y-130986667D01*
X136667429Y-130891429D01*
X136286477Y-130891429D01*
X136096000Y-130986667D01*
X136953143Y-132129524D02*
X136762667Y-132224762D01*
X136286477Y-132224762D01*
X136096000Y-132129524D01*
X136000762Y-131939048D01*
X136000762Y-131748571D01*
X136096000Y-131558095D01*
X136286477Y-131462857D01*
X136762667Y-131462857D01*
X136953143Y-131367619D01*
X137905524Y-132224762D02*
X137905524Y-130891429D01*
X137905524Y-131272381D02*
X138000763Y-131081905D01*
X138096001Y-130986667D01*
X138286477Y-130891429D01*
X138476953Y-130891429D01*
X140000762Y-132224762D02*
X140000762Y-130224762D01*
X140000762Y-132129524D02*
X139810286Y-132224762D01*
X139429334Y-132224762D01*
X139238858Y-132129524D01*
X139143619Y-132034286D01*
X139048381Y-131843810D01*
X139048381Y-131272381D01*
X139143619Y-131081905D01*
X139238858Y-130986667D01*
X139429334Y-130891429D01*
X139810286Y-130891429D01*
X140000762Y-130986667D01*
X142286477Y-130891429D02*
X142762668Y-132224762D01*
X143238858Y-130891429D01*
X144857906Y-130891429D02*
X144857906Y-132224762D01*
X144381716Y-130129524D02*
X143905525Y-131558095D01*
X145143621Y-131558095D01*
X145905525Y-132034286D02*
X146000764Y-132129524D01*
X145905525Y-132224762D01*
X145810287Y-132129524D01*
X145905525Y-132034286D01*
X145905525Y-132224762D01*
X147238859Y-130224762D02*
X147429335Y-130224762D01*
X147619811Y-130320000D01*
X147715049Y-130415238D01*
X147810287Y-130605714D01*
X147905526Y-130986667D01*
X147905526Y-131462857D01*
X147810287Y-131843810D01*
X147715049Y-132034286D01*
X147619811Y-132129524D01*
X147429335Y-132224762D01*
X147238859Y-132224762D01*
X147048383Y-132129524D01*
X146953145Y-132034286D01*
X146857906Y-131843810D01*
X146762668Y-131462857D01*
X146762668Y-130986667D01*
X146857906Y-130605714D01*
X146953145Y-130415238D01*
X147048383Y-130320000D01*
X147238859Y-130224762D01*
X148762668Y-132034286D02*
X148857907Y-132129524D01*
X148762668Y-132224762D01*
X148667430Y-132129524D01*
X148762668Y-132034286D01*
X148762668Y-132224762D01*
X150096002Y-130224762D02*
X150286478Y-130224762D01*
X150476954Y-130320000D01*
X150572192Y-130415238D01*
X150667430Y-130605714D01*
X150762669Y-130986667D01*
X150762669Y-131462857D01*
X150667430Y-131843810D01*
X150572192Y-132034286D01*
X150476954Y-132129524D01*
X150286478Y-132224762D01*
X150096002Y-132224762D01*
X149905526Y-132129524D01*
X149810288Y-132034286D01*
X149715049Y-131843810D01*
X149619811Y-131462857D01*
X149619811Y-130986667D01*
X149715049Y-130605714D01*
X149810288Y-130415238D01*
X149905526Y-130320000D01*
X150096002Y-130224762D01*
X118810285Y-135524762D02*
X118810285Y-133524762D01*
X119667428Y-135524762D02*
X119667428Y-134477143D01*
X119572190Y-134286667D01*
X119381714Y-134191429D01*
X119096000Y-134191429D01*
X118905524Y-134286667D01*
X118810285Y-134381905D01*
X120334095Y-134191429D02*
X121096000Y-134191429D01*
X120619809Y-133524762D02*
X120619809Y-135239048D01*
X120715048Y-135429524D01*
X120905524Y-135524762D01*
X121096000Y-135524762D01*
X121476952Y-134191429D02*
X122238857Y-134191429D01*
X121762666Y-133524762D02*
X121762666Y-135239048D01*
X121857905Y-135429524D01*
X122048381Y-135524762D01*
X122238857Y-135524762D01*
X122905523Y-134191429D02*
X122905523Y-136191429D01*
X122905523Y-134286667D02*
X123096000Y-134191429D01*
X123476952Y-134191429D01*
X123667428Y-134286667D01*
X123762666Y-134381905D01*
X123857904Y-134572381D01*
X123857904Y-135143810D01*
X123762666Y-135334286D01*
X123667428Y-135429524D01*
X123476952Y-135524762D01*
X123096000Y-135524762D01*
X122905523Y-135429524D01*
X124715047Y-135334286D02*
X124810286Y-135429524D01*
X124715047Y-135524762D01*
X124619809Y-135429524D01*
X124715047Y-135334286D01*
X124715047Y-135524762D01*
X124715047Y-134286667D02*
X124810286Y-134381905D01*
X124715047Y-134477143D01*
X124619809Y-134381905D01*
X124715047Y-134286667D01*
X124715047Y-134477143D01*
X127096000Y-133429524D02*
X125381714Y-136000952D01*
X129191238Y-133429524D02*
X127476952Y-136000952D01*
X129857904Y-135524762D02*
X129857904Y-133524762D01*
X129857904Y-134286667D02*
X130048381Y-134191429D01*
X130429333Y-134191429D01*
X130619809Y-134286667D01*
X130715047Y-134381905D01*
X130810285Y-134572381D01*
X130810285Y-135143810D01*
X130715047Y-135334286D01*
X130619809Y-135429524D01*
X130429333Y-135524762D01*
X130048381Y-135524762D01*
X129857904Y-135429524D01*
X131667428Y-135524762D02*
X131667428Y-134191429D01*
X131667428Y-133524762D02*
X131572190Y-133620000D01*
X131667428Y-133715238D01*
X131762667Y-133620000D01*
X131667428Y-133524762D01*
X131667428Y-133715238D01*
X132334095Y-134191429D02*
X133096000Y-134191429D01*
X132619809Y-133524762D02*
X132619809Y-135239048D01*
X132715048Y-135429524D01*
X132905524Y-135524762D01*
X133096000Y-135524762D01*
X133762666Y-135334286D02*
X133857905Y-135429524D01*
X133762666Y-135524762D01*
X133667428Y-135429524D01*
X133762666Y-135334286D01*
X133762666Y-135524762D01*
X135000762Y-135524762D02*
X134810286Y-135429524D01*
X134715047Y-135239048D01*
X134715047Y-133524762D01*
X135572190Y-134191429D02*
X136048381Y-135524762D01*
X136524571Y-134191429D02*
X136048381Y-135524762D01*
X135857905Y-136000952D01*
X135762666Y-136096190D01*
X135572190Y-136191429D01*
X138715048Y-133429524D02*
X137000762Y-136000952D01*
X140048381Y-134477143D02*
X139381714Y-134477143D01*
X139381714Y-135524762D02*
X139381714Y-133524762D01*
X140334095Y-133524762D01*
X141762667Y-134477143D02*
X142048381Y-134572381D01*
X142143620Y-134667619D01*
X142238858Y-134858095D01*
X142238858Y-135143810D01*
X142143620Y-135334286D01*
X142048381Y-135429524D01*
X141857905Y-135524762D01*
X141096000Y-135524762D01*
X141096000Y-133524762D01*
X141762667Y-133524762D01*
X141953143Y-133620000D01*
X142048381Y-133715238D01*
X142143620Y-133905714D01*
X142143620Y-134096190D01*
X142048381Y-134286667D01*
X141953143Y-134381905D01*
X141762667Y-134477143D01*
X141096000Y-134477143D01*
X143096000Y-134477143D02*
X143762667Y-134477143D01*
X144048381Y-135524762D02*
X143096000Y-135524762D01*
X143096000Y-133524762D01*
X144048381Y-133524762D01*
X144619810Y-133524762D02*
X145762667Y-133524762D01*
X145191239Y-135524762D02*
X145191239Y-133524762D01*
X146334096Y-135429524D02*
X146619811Y-135524762D01*
X147096001Y-135524762D01*
X147286477Y-135429524D01*
X147381715Y-135334286D01*
X147476954Y-135143810D01*
X147476954Y-134953333D01*
X147381715Y-134762857D01*
X147286477Y-134667619D01*
X147096001Y-134572381D01*
X146715049Y-134477143D01*
X146524573Y-134381905D01*
X146429334Y-134286667D01*
X146334096Y-134096190D01*
X146334096Y-133905714D01*
X146429334Y-133715238D01*
X146524573Y-133620000D01*
X146715049Y-133524762D01*
X147191239Y-133524762D01*
X147476954Y-133620000D01*
X119048380Y-138824762D02*
X118095999Y-138824762D01*
X118095999Y-136824762D01*
X119715047Y-138824762D02*
X119715047Y-136824762D01*
X121810286Y-138634286D02*
X121715048Y-138729524D01*
X121429333Y-138824762D01*
X121238857Y-138824762D01*
X120953143Y-138729524D01*
X120762667Y-138539048D01*
X120667428Y-138348571D01*
X120572190Y-137967619D01*
X120572190Y-137681905D01*
X120667428Y-137300952D01*
X120762667Y-137110476D01*
X120953143Y-136920000D01*
X121238857Y-136824762D01*
X121429333Y-136824762D01*
X121715048Y-136920000D01*
X121810286Y-137015238D01*
X122667428Y-137777143D02*
X123334095Y-137777143D01*
X123619809Y-138824762D02*
X122667428Y-138824762D01*
X122667428Y-136824762D01*
X123619809Y-136824762D01*
X124476952Y-138824762D02*
X124476952Y-136824762D01*
X125619810Y-138824762D01*
X125619810Y-136824762D01*
X126476952Y-138729524D02*
X126762667Y-138824762D01*
X127238857Y-138824762D01*
X127429333Y-138729524D01*
X127524571Y-138634286D01*
X127619810Y-138443810D01*
X127619810Y-138253333D01*
X127524571Y-138062857D01*
X127429333Y-137967619D01*
X127238857Y-137872381D01*
X126857905Y-137777143D01*
X126667429Y-137681905D01*
X126572190Y-137586667D01*
X126476952Y-137396190D01*
X126476952Y-137205714D01*
X126572190Y-137015238D01*
X126667429Y-136920000D01*
X126857905Y-136824762D01*
X127334095Y-136824762D01*
X127619810Y-136920000D01*
X128476952Y-137777143D02*
X129143619Y-137777143D01*
X129429333Y-138824762D02*
X128476952Y-138824762D01*
X128476952Y-136824762D01*
X129429333Y-136824762D01*
X130286476Y-138634286D02*
X130381715Y-138729524D01*
X130286476Y-138824762D01*
X130191238Y-138729524D01*
X130286476Y-138634286D01*
X130286476Y-138824762D01*
X130286476Y-137586667D02*
X130381715Y-137681905D01*
X130286476Y-137777143D01*
X130191238Y-137681905D01*
X130286476Y-137586667D01*
X130286476Y-137777143D01*
X133905525Y-138634286D02*
X133810287Y-138729524D01*
X133524572Y-138824762D01*
X133334096Y-138824762D01*
X133048382Y-138729524D01*
X132857906Y-138539048D01*
X132762667Y-138348571D01*
X132667429Y-137967619D01*
X132667429Y-137681905D01*
X132762667Y-137300952D01*
X132857906Y-137110476D01*
X133048382Y-136920000D01*
X133334096Y-136824762D01*
X133524572Y-136824762D01*
X133810287Y-136920000D01*
X133905525Y-137015238D01*
X135905525Y-138634286D02*
X135810287Y-138729524D01*
X135524572Y-138824762D01*
X135334096Y-138824762D01*
X135048382Y-138729524D01*
X134857906Y-138539048D01*
X134762667Y-138348571D01*
X134667429Y-137967619D01*
X134667429Y-137681905D01*
X134762667Y-137300952D01*
X134857906Y-137110476D01*
X135048382Y-136920000D01*
X135334096Y-136824762D01*
X135524572Y-136824762D01*
X135810287Y-136920000D01*
X135905525Y-137015238D01*
X136762667Y-138062857D02*
X138286477Y-138062857D01*
X139905524Y-137777143D02*
X140191238Y-137872381D01*
X140286477Y-137967619D01*
X140381715Y-138158095D01*
X140381715Y-138443810D01*
X140286477Y-138634286D01*
X140191238Y-138729524D01*
X140000762Y-138824762D01*
X139238857Y-138824762D01*
X139238857Y-136824762D01*
X139905524Y-136824762D01*
X140096000Y-136920000D01*
X140191238Y-137015238D01*
X140286477Y-137205714D01*
X140286477Y-137396190D01*
X140191238Y-137586667D01*
X140096000Y-137681905D01*
X139905524Y-137777143D01*
X139238857Y-137777143D01*
X141619810Y-137872381D02*
X141619810Y-138824762D01*
X140953143Y-136824762D02*
X141619810Y-137872381D01*
X142286477Y-136824762D01*
X142953143Y-138062857D02*
X144476953Y-138062857D01*
X145334095Y-138729524D02*
X145619810Y-138824762D01*
X146096000Y-138824762D01*
X146286476Y-138729524D01*
X146381714Y-138634286D01*
X146476953Y-138443810D01*
X146476953Y-138253333D01*
X146381714Y-138062857D01*
X146286476Y-137967619D01*
X146096000Y-137872381D01*
X145715048Y-137777143D01*
X145524572Y-137681905D01*
X145429333Y-137586667D01*
X145334095Y-137396190D01*
X145334095Y-137205714D01*
X145429333Y-137015238D01*
X145524572Y-136920000D01*
X145715048Y-136824762D01*
X146191238Y-136824762D01*
X146476953Y-136920000D01*
X147238857Y-138253333D02*
X148191238Y-138253333D01*
X147048381Y-138824762D02*
X147715048Y-136824762D01*
X148381715Y-138824762D01*
X118689714Y-120744143D02*
X118904000Y-120815571D01*
X119261143Y-120815571D01*
X119404000Y-120744143D01*
X119475429Y-120672714D01*
X119546857Y-120529857D01*
X119546857Y-120387000D01*
X119475429Y-120244143D01*
X119404000Y-120172714D01*
X119261143Y-120101286D01*
X118975429Y-120029857D01*
X118832571Y-119958429D01*
X118761143Y-119887000D01*
X118689714Y-119744143D01*
X118689714Y-119601286D01*
X118761143Y-119458429D01*
X118832571Y-119387000D01*
X118975429Y-119315571D01*
X119332571Y-119315571D01*
X119546857Y-119387000D01*
X120189714Y-120815571D02*
X120189714Y-119315571D01*
X120904000Y-120815571D02*
X120904000Y-119315571D01*
X121261143Y-119315571D01*
X121475428Y-119387000D01*
X121618286Y-119529857D01*
X121689714Y-119672714D01*
X121761143Y-119958429D01*
X121761143Y-120172714D01*
X121689714Y-120458429D01*
X121618286Y-120601286D01*
X121475428Y-120744143D01*
X121261143Y-120815571D01*
X120904000Y-120815571D01*
X122404000Y-120029857D02*
X122904000Y-120029857D01*
X123118286Y-120815571D02*
X122404000Y-120815571D01*
X122404000Y-119315571D01*
X123118286Y-119315571D01*
X117154000Y-123294143D02*
X117368286Y-123365571D01*
X117725429Y-123365571D01*
X117868286Y-123294143D01*
X117939715Y-123222714D01*
X118011143Y-123079857D01*
X118011143Y-122937000D01*
X117939715Y-122794143D01*
X117868286Y-122722714D01*
X117725429Y-122651286D01*
X117439715Y-122579857D01*
X117296857Y-122508429D01*
X117225429Y-122437000D01*
X117154000Y-122294143D01*
X117154000Y-122151286D01*
X117225429Y-122008429D01*
X117296857Y-121937000D01*
X117439715Y-121865571D01*
X117796857Y-121865571D01*
X118011143Y-121937000D01*
X118511143Y-121865571D02*
X118868286Y-123365571D01*
X119154000Y-122294143D01*
X119439714Y-123365571D01*
X119796857Y-121865571D01*
X120368286Y-123365571D02*
X120368286Y-121865571D01*
X120868286Y-121865571D02*
X121725429Y-121865571D01*
X121296858Y-123365571D02*
X121296858Y-121865571D01*
X123082572Y-123222714D02*
X123011143Y-123294143D01*
X122796857Y-123365571D01*
X122654000Y-123365571D01*
X122439715Y-123294143D01*
X122296857Y-123151286D01*
X122225429Y-123008429D01*
X122154000Y-122722714D01*
X122154000Y-122508429D01*
X122225429Y-122222714D01*
X122296857Y-122079857D01*
X122439715Y-121937000D01*
X122654000Y-121865571D01*
X122796857Y-121865571D01*
X123011143Y-121937000D01*
X123082572Y-122008429D01*
X123725429Y-123365571D02*
X123725429Y-121865571D01*
X123725429Y-122579857D02*
X124582572Y-122579857D01*
X124582572Y-123365571D02*
X124582572Y-121865571D01*
X97222857Y-116248571D02*
X96722857Y-115534286D01*
X96365714Y-116248571D02*
X96365714Y-114748571D01*
X96937142Y-114748571D01*
X97080000Y-114820000D01*
X97151428Y-114891429D01*
X97222857Y-115034286D01*
X97222857Y-115248571D01*
X97151428Y-115391429D01*
X97080000Y-115462857D01*
X96937142Y-115534286D01*
X96365714Y-115534286D01*
X97865714Y-115462857D02*
X98365714Y-115462857D01*
X98580000Y-116248571D02*
X97865714Y-116248571D01*
X97865714Y-114748571D01*
X98580000Y-114748571D01*
X99222857Y-116248571D02*
X99222857Y-114748571D01*
X99722857Y-115820000D01*
X100222857Y-114748571D01*
X100222857Y-116248571D01*
X101222857Y-114748571D02*
X101508571Y-114748571D01*
X101651429Y-114820000D01*
X101794286Y-114962857D01*
X101865714Y-115248571D01*
X101865714Y-115748571D01*
X101794286Y-116034286D01*
X101651429Y-116177143D01*
X101508571Y-116248571D01*
X101222857Y-116248571D01*
X101080000Y-116177143D01*
X100937143Y-116034286D01*
X100865714Y-115748571D01*
X100865714Y-115248571D01*
X100937143Y-114962857D01*
X101080000Y-114820000D01*
X101222857Y-114748571D01*
X102294286Y-114748571D02*
X103151429Y-114748571D01*
X102722858Y-116248571D02*
X102722858Y-114748571D01*
X103651429Y-115462857D02*
X104151429Y-115462857D01*
X104365715Y-116248571D02*
X103651429Y-116248571D01*
X103651429Y-114748571D01*
X104365715Y-114748571D01*
X151364286Y-120688571D02*
X150650000Y-120688571D01*
X150650000Y-119188571D01*
X152721429Y-120545714D02*
X152650000Y-120617143D01*
X152435714Y-120688571D01*
X152292857Y-120688571D01*
X152078572Y-120617143D01*
X151935714Y-120474286D01*
X151864286Y-120331429D01*
X151792857Y-120045714D01*
X151792857Y-119831429D01*
X151864286Y-119545714D01*
X151935714Y-119402857D01*
X152078572Y-119260000D01*
X152292857Y-119188571D01*
X152435714Y-119188571D01*
X152650000Y-119260000D01*
X152721429Y-119331429D01*
X153364286Y-120688571D02*
X153364286Y-119188571D01*
X153721429Y-119188571D01*
X153935714Y-119260000D01*
X154078572Y-119402857D01*
X154150000Y-119545714D01*
X154221429Y-119831429D01*
X154221429Y-120045714D01*
X154150000Y-120331429D01*
X154078572Y-120474286D01*
X153935714Y-120617143D01*
X153721429Y-120688571D01*
X153364286Y-120688571D01*
X148042858Y-123095714D02*
X147971429Y-123167143D01*
X147757143Y-123238571D01*
X147614286Y-123238571D01*
X147400001Y-123167143D01*
X147257143Y-123024286D01*
X147185715Y-122881429D01*
X147114286Y-122595714D01*
X147114286Y-122381429D01*
X147185715Y-122095714D01*
X147257143Y-121952857D01*
X147400001Y-121810000D01*
X147614286Y-121738571D01*
X147757143Y-121738571D01*
X147971429Y-121810000D01*
X148042858Y-121881429D01*
X148971429Y-121738571D02*
X149257143Y-121738571D01*
X149400001Y-121810000D01*
X149542858Y-121952857D01*
X149614286Y-122238571D01*
X149614286Y-122738571D01*
X149542858Y-123024286D01*
X149400001Y-123167143D01*
X149257143Y-123238571D01*
X148971429Y-123238571D01*
X148828572Y-123167143D01*
X148685715Y-123024286D01*
X148614286Y-122738571D01*
X148614286Y-122238571D01*
X148685715Y-121952857D01*
X148828572Y-121810000D01*
X148971429Y-121738571D01*
X150257144Y-123238571D02*
X150257144Y-121738571D01*
X151114287Y-123238571D01*
X151114287Y-121738571D01*
X151614287Y-121738571D02*
X152471430Y-121738571D01*
X152042859Y-123238571D02*
X152042859Y-121738571D01*
X153828573Y-123238571D02*
X153328573Y-122524286D01*
X152971430Y-123238571D02*
X152971430Y-121738571D01*
X153542858Y-121738571D01*
X153685716Y-121810000D01*
X153757144Y-121881429D01*
X153828573Y-122024286D01*
X153828573Y-122238571D01*
X153757144Y-122381429D01*
X153685716Y-122452857D01*
X153542858Y-122524286D01*
X152971430Y-122524286D01*
X154400001Y-122810000D02*
X155114287Y-122810000D01*
X154257144Y-123238571D02*
X154757144Y-121738571D01*
X155257144Y-123238571D01*
X155685715Y-123167143D02*
X155900001Y-123238571D01*
X156257144Y-123238571D01*
X156400001Y-123167143D01*
X156471430Y-123095714D01*
X156542858Y-122952857D01*
X156542858Y-122810000D01*
X156471430Y-122667143D01*
X156400001Y-122595714D01*
X156257144Y-122524286D01*
X155971430Y-122452857D01*
X155828572Y-122381429D01*
X155757144Y-122310000D01*
X155685715Y-122167143D01*
X155685715Y-122024286D01*
X155757144Y-121881429D01*
X155828572Y-121810000D01*
X155971430Y-121738571D01*
X156328572Y-121738571D01*
X156542858Y-121810000D01*
X156971429Y-121738571D02*
X157828572Y-121738571D01*
X157400001Y-123238571D02*
X157400001Y-121738571D01*
X141240001Y-120688571D02*
X140525715Y-120688571D01*
X140525715Y-119188571D01*
X141668572Y-120617143D02*
X141882858Y-120688571D01*
X142240001Y-120688571D01*
X142382858Y-120617143D01*
X142454287Y-120545714D01*
X142525715Y-120402857D01*
X142525715Y-120260000D01*
X142454287Y-120117143D01*
X142382858Y-120045714D01*
X142240001Y-119974286D01*
X141954287Y-119902857D01*
X141811429Y-119831429D01*
X141740001Y-119760000D01*
X141668572Y-119617143D01*
X141668572Y-119474286D01*
X141740001Y-119331429D01*
X141811429Y-119260000D01*
X141954287Y-119188571D01*
X142311429Y-119188571D01*
X142525715Y-119260000D01*
X144025715Y-120688571D02*
X143525715Y-119974286D01*
X143168572Y-120688571D02*
X143168572Y-119188571D01*
X143740000Y-119188571D01*
X143882858Y-119260000D01*
X143954286Y-119331429D01*
X144025715Y-119474286D01*
X144025715Y-119688571D01*
X143954286Y-119831429D01*
X143882858Y-119902857D01*
X143740000Y-119974286D01*
X143168572Y-119974286D01*
X140990000Y-122452857D02*
X141204286Y-122524286D01*
X141275714Y-122595714D01*
X141347143Y-122738571D01*
X141347143Y-122952857D01*
X141275714Y-123095714D01*
X141204286Y-123167143D01*
X141061428Y-123238571D01*
X140490000Y-123238571D01*
X140490000Y-121738571D01*
X140990000Y-121738571D01*
X141132857Y-121810000D01*
X141204286Y-121881429D01*
X141275714Y-122024286D01*
X141275714Y-122167143D01*
X141204286Y-122310000D01*
X141132857Y-122381429D01*
X140990000Y-122452857D01*
X140490000Y-122452857D01*
X141775714Y-121738571D02*
X142632857Y-121738571D01*
X142204286Y-123238571D02*
X142204286Y-121738571D01*
X143132857Y-123238571D02*
X143132857Y-121738571D01*
X143990000Y-123238571D01*
X143990000Y-121738571D01*
X128409287Y-120693571D02*
X127695001Y-120693571D01*
X127695001Y-119193571D01*
X128837858Y-120265000D02*
X129552144Y-120265000D01*
X128695001Y-120693571D02*
X129195001Y-119193571D01*
X129695001Y-120693571D01*
X130123572Y-120622143D02*
X130337858Y-120693571D01*
X130695001Y-120693571D01*
X130837858Y-120622143D01*
X130909287Y-120550714D01*
X130980715Y-120407857D01*
X130980715Y-120265000D01*
X130909287Y-120122143D01*
X130837858Y-120050714D01*
X130695001Y-119979286D01*
X130409287Y-119907857D01*
X130266429Y-119836429D01*
X130195001Y-119765000D01*
X130123572Y-119622143D01*
X130123572Y-119479286D01*
X130195001Y-119336429D01*
X130266429Y-119265000D01*
X130409287Y-119193571D01*
X130766429Y-119193571D01*
X130980715Y-119265000D01*
X131623572Y-119907857D02*
X132123572Y-119907857D01*
X132337858Y-120693571D02*
X131623572Y-120693571D01*
X131623572Y-119193571D01*
X132337858Y-119193571D01*
X133837858Y-120693571D02*
X133337858Y-119979286D01*
X132980715Y-120693571D02*
X132980715Y-119193571D01*
X133552143Y-119193571D01*
X133695001Y-119265000D01*
X133766429Y-119336429D01*
X133837858Y-119479286D01*
X133837858Y-119693571D01*
X133766429Y-119836429D01*
X133695001Y-119907857D01*
X133552143Y-119979286D01*
X132980715Y-119979286D01*
X134409286Y-120622143D02*
X134623572Y-120693571D01*
X134980715Y-120693571D01*
X135123572Y-120622143D01*
X135195001Y-120550714D01*
X135266429Y-120407857D01*
X135266429Y-120265000D01*
X135195001Y-120122143D01*
X135123572Y-120050714D01*
X134980715Y-119979286D01*
X134695001Y-119907857D01*
X134552143Y-119836429D01*
X134480715Y-119765000D01*
X134409286Y-119622143D01*
X134409286Y-119479286D01*
X134480715Y-119336429D01*
X134552143Y-119265000D01*
X134695001Y-119193571D01*
X135052143Y-119193571D01*
X135266429Y-119265000D01*
X132568286Y-97706571D02*
X131854000Y-97706571D01*
X131854000Y-96206571D01*
X133925429Y-97563714D02*
X133854000Y-97635143D01*
X133639714Y-97706571D01*
X133496857Y-97706571D01*
X133282572Y-97635143D01*
X133139714Y-97492286D01*
X133068286Y-97349429D01*
X132996857Y-97063714D01*
X132996857Y-96849429D01*
X133068286Y-96563714D01*
X133139714Y-96420857D01*
X133282572Y-96278000D01*
X133496857Y-96206571D01*
X133639714Y-96206571D01*
X133854000Y-96278000D01*
X133925429Y-96349429D01*
X134568286Y-97706571D02*
X134568286Y-96206571D01*
X134925429Y-96206571D01*
X135139714Y-96278000D01*
X135282572Y-96420857D01*
X135354000Y-96563714D01*
X135425429Y-96849429D01*
X135425429Y-97063714D01*
X135354000Y-97349429D01*
X135282572Y-97492286D01*
X135139714Y-97635143D01*
X134925429Y-97706571D01*
X134568286Y-97706571D01*
X145340001Y-73693571D02*
X144625715Y-73693571D01*
X144625715Y-72193571D01*
X145840001Y-73693571D02*
X145840001Y-72193571D01*
X146340001Y-73265000D01*
X146840001Y-72193571D01*
X146840001Y-73693571D01*
X147482858Y-72336429D02*
X147554287Y-72265000D01*
X147697144Y-72193571D01*
X148054287Y-72193571D01*
X148197144Y-72265000D01*
X148268573Y-72336429D01*
X148340001Y-72479286D01*
X148340001Y-72622143D01*
X148268573Y-72836429D01*
X147411430Y-73693571D01*
X148340001Y-73693571D01*
X149697144Y-72193571D02*
X148982858Y-72193571D01*
X148911429Y-72907857D01*
X148982858Y-72836429D01*
X149125715Y-72765000D01*
X149482858Y-72765000D01*
X149625715Y-72836429D01*
X149697144Y-72907857D01*
X149768572Y-73050714D01*
X149768572Y-73407857D01*
X149697144Y-73550714D01*
X149625715Y-73622143D01*
X149482858Y-73693571D01*
X149125715Y-73693571D01*
X148982858Y-73622143D01*
X148911429Y-73550714D01*
X150482857Y-73693571D02*
X150768572Y-73693571D01*
X150911429Y-73622143D01*
X150982857Y-73550714D01*
X151125715Y-73336429D01*
X151197143Y-73050714D01*
X151197143Y-72479286D01*
X151125715Y-72336429D01*
X151054286Y-72265000D01*
X150911429Y-72193571D01*
X150625715Y-72193571D01*
X150482857Y-72265000D01*
X150411429Y-72336429D01*
X150340000Y-72479286D01*
X150340000Y-72836429D01*
X150411429Y-72979286D01*
X150482857Y-73050714D01*
X150625715Y-73122143D01*
X150911429Y-73122143D01*
X151054286Y-73050714D01*
X151125715Y-72979286D01*
X151197143Y-72836429D01*
X152482857Y-72193571D02*
X152197143Y-72193571D01*
X152054286Y-72265000D01*
X151982857Y-72336429D01*
X151840000Y-72550714D01*
X151768571Y-72836429D01*
X151768571Y-73407857D01*
X151840000Y-73550714D01*
X151911428Y-73622143D01*
X152054286Y-73693571D01*
X152340000Y-73693571D01*
X152482857Y-73622143D01*
X152554286Y-73550714D01*
X152625714Y-73407857D01*
X152625714Y-73050714D01*
X152554286Y-72907857D01*
X152482857Y-72836429D01*
X152340000Y-72765000D01*
X152054286Y-72765000D01*
X151911428Y-72836429D01*
X151840000Y-72907857D01*
X151768571Y-73050714D01*
X143482857Y-76243571D02*
X142982857Y-75529286D01*
X142625714Y-76243571D02*
X142625714Y-74743571D01*
X143197142Y-74743571D01*
X143340000Y-74815000D01*
X143411428Y-74886429D01*
X143482857Y-75029286D01*
X143482857Y-75243571D01*
X143411428Y-75386429D01*
X143340000Y-75457857D01*
X143197142Y-75529286D01*
X142625714Y-75529286D01*
X144125714Y-75457857D02*
X144625714Y-75457857D01*
X144840000Y-76243571D02*
X144125714Y-76243571D01*
X144125714Y-74743571D01*
X144840000Y-74743571D01*
X146268571Y-74815000D02*
X146125714Y-74743571D01*
X145911428Y-74743571D01*
X145697143Y-74815000D01*
X145554285Y-74957857D01*
X145482857Y-75100714D01*
X145411428Y-75386429D01*
X145411428Y-75600714D01*
X145482857Y-75886429D01*
X145554285Y-76029286D01*
X145697143Y-76172143D01*
X145911428Y-76243571D01*
X146054285Y-76243571D01*
X146268571Y-76172143D01*
X146340000Y-76100714D01*
X146340000Y-75600714D01*
X146054285Y-75600714D01*
X146982857Y-74743571D02*
X146982857Y-75957857D01*
X147054285Y-76100714D01*
X147125714Y-76172143D01*
X147268571Y-76243571D01*
X147554285Y-76243571D01*
X147697143Y-76172143D01*
X147768571Y-76100714D01*
X147840000Y-75957857D01*
X147840000Y-74743571D01*
X149268572Y-76243571D02*
X148554286Y-76243571D01*
X148554286Y-74743571D01*
X149697143Y-75815000D02*
X150411429Y-75815000D01*
X149554286Y-76243571D02*
X150054286Y-74743571D01*
X150554286Y-76243571D01*
X150840000Y-74743571D02*
X151697143Y-74743571D01*
X151268572Y-76243571D02*
X151268572Y-74743571D01*
X152482857Y-74743571D02*
X152768571Y-74743571D01*
X152911429Y-74815000D01*
X153054286Y-74957857D01*
X153125714Y-75243571D01*
X153125714Y-75743571D01*
X153054286Y-76029286D01*
X152911429Y-76172143D01*
X152768571Y-76243571D01*
X152482857Y-76243571D01*
X152340000Y-76172143D01*
X152197143Y-76029286D01*
X152125714Y-75743571D01*
X152125714Y-75243571D01*
X152197143Y-74957857D01*
X152340000Y-74815000D01*
X152482857Y-74743571D01*
X154625715Y-76243571D02*
X154125715Y-75529286D01*
X153768572Y-76243571D02*
X153768572Y-74743571D01*
X154340000Y-74743571D01*
X154482858Y-74815000D01*
X154554286Y-74886429D01*
X154625715Y-75029286D01*
X154625715Y-75243571D01*
X154554286Y-75386429D01*
X154482858Y-75457857D01*
X154340000Y-75529286D01*
X153768572Y-75529286D01*
X144482857Y-78793571D02*
X144482857Y-77293571D01*
X144982857Y-78365000D01*
X145482857Y-77293571D01*
X145482857Y-78793571D01*
X146482857Y-77293571D02*
X146768571Y-77293571D01*
X146911429Y-77365000D01*
X147054286Y-77507857D01*
X147125714Y-77793571D01*
X147125714Y-78293571D01*
X147054286Y-78579286D01*
X146911429Y-78722143D01*
X146768571Y-78793571D01*
X146482857Y-78793571D01*
X146340000Y-78722143D01*
X146197143Y-78579286D01*
X146125714Y-78293571D01*
X146125714Y-77793571D01*
X146197143Y-77507857D01*
X146340000Y-77365000D01*
X146482857Y-77293571D01*
X147768572Y-78793571D02*
X147768572Y-77293571D01*
X148125715Y-77293571D01*
X148340000Y-77365000D01*
X148482858Y-77507857D01*
X148554286Y-77650714D01*
X148625715Y-77936429D01*
X148625715Y-78150714D01*
X148554286Y-78436429D01*
X148482858Y-78579286D01*
X148340000Y-78722143D01*
X148125715Y-78793571D01*
X147768572Y-78793571D01*
X149268572Y-77293571D02*
X149268572Y-78507857D01*
X149340000Y-78650714D01*
X149411429Y-78722143D01*
X149554286Y-78793571D01*
X149840000Y-78793571D01*
X149982858Y-78722143D01*
X150054286Y-78650714D01*
X150125715Y-78507857D01*
X150125715Y-77293571D01*
X151554287Y-78793571D02*
X150840001Y-78793571D01*
X150840001Y-77293571D01*
X152054287Y-78007857D02*
X152554287Y-78007857D01*
X152768573Y-78793571D02*
X152054287Y-78793571D01*
X152054287Y-77293571D01*
X152768573Y-77293571D01*
X119523572Y-38072143D02*
X119737858Y-38143571D01*
X120095001Y-38143571D01*
X120237858Y-38072143D01*
X120309287Y-38000714D01*
X120380715Y-37857857D01*
X120380715Y-37715000D01*
X120309287Y-37572143D01*
X120237858Y-37500714D01*
X120095001Y-37429286D01*
X119809287Y-37357857D01*
X119666429Y-37286429D01*
X119595001Y-37215000D01*
X119523572Y-37072143D01*
X119523572Y-36929286D01*
X119595001Y-36786429D01*
X119666429Y-36715000D01*
X119809287Y-36643571D01*
X120166429Y-36643571D01*
X120380715Y-36715000D01*
X121023572Y-37357857D02*
X121523572Y-37357857D01*
X121737858Y-38143571D02*
X121023572Y-38143571D01*
X121023572Y-36643571D01*
X121737858Y-36643571D01*
X122380715Y-38143571D02*
X122380715Y-36643571D01*
X123237858Y-38143571D01*
X123237858Y-36643571D01*
X123880715Y-38072143D02*
X124095001Y-38143571D01*
X124452144Y-38143571D01*
X124595001Y-38072143D01*
X124666430Y-38000714D01*
X124737858Y-37857857D01*
X124737858Y-37715000D01*
X124666430Y-37572143D01*
X124595001Y-37500714D01*
X124452144Y-37429286D01*
X124166430Y-37357857D01*
X124023572Y-37286429D01*
X123952144Y-37215000D01*
X123880715Y-37072143D01*
X123880715Y-36929286D01*
X123952144Y-36786429D01*
X124023572Y-36715000D01*
X124166430Y-36643571D01*
X124523572Y-36643571D01*
X124737858Y-36715000D01*
X125666429Y-36643571D02*
X125952143Y-36643571D01*
X126095001Y-36715000D01*
X126237858Y-36857857D01*
X126309286Y-37143571D01*
X126309286Y-37643571D01*
X126237858Y-37929286D01*
X126095001Y-38072143D01*
X125952143Y-38143571D01*
X125666429Y-38143571D01*
X125523572Y-38072143D01*
X125380715Y-37929286D01*
X125309286Y-37643571D01*
X125309286Y-37143571D01*
X125380715Y-36857857D01*
X125523572Y-36715000D01*
X125666429Y-36643571D01*
X127809287Y-38143571D02*
X127309287Y-37429286D01*
X126952144Y-38143571D02*
X126952144Y-36643571D01*
X127523572Y-36643571D01*
X127666430Y-36715000D01*
X127737858Y-36786429D01*
X127809287Y-36929286D01*
X127809287Y-37143571D01*
X127737858Y-37286429D01*
X127666430Y-37357857D01*
X127523572Y-37429286D01*
X126952144Y-37429286D01*
X128380715Y-38072143D02*
X128595001Y-38143571D01*
X128952144Y-38143571D01*
X129095001Y-38072143D01*
X129166430Y-38000714D01*
X129237858Y-37857857D01*
X129237858Y-37715000D01*
X129166430Y-37572143D01*
X129095001Y-37500714D01*
X128952144Y-37429286D01*
X128666430Y-37357857D01*
X128523572Y-37286429D01*
X128452144Y-37215000D01*
X128380715Y-37072143D01*
X128380715Y-36929286D01*
X128452144Y-36786429D01*
X128523572Y-36715000D01*
X128666430Y-36643571D01*
X129023572Y-36643571D01*
X129237858Y-36715000D01*
X129809286Y-36786429D02*
X129880715Y-36715000D01*
X130023572Y-36643571D01*
X130380715Y-36643571D01*
X130523572Y-36715000D01*
X130595001Y-36786429D01*
X130666429Y-36929286D01*
X130666429Y-37072143D01*
X130595001Y-37286429D01*
X129737858Y-38143571D01*
X130666429Y-38143571D01*
D12*
X136525000Y-34925000D02*
X113665000Y-34925000D01*
X136525000Y-81280000D02*
X136525000Y-34925000D01*
X113665000Y-81280000D02*
X136525000Y-81280000D01*
X113665000Y-34925000D02*
X113665000Y-81280000D01*
D11*
X73803572Y-38072143D02*
X74017858Y-38143571D01*
X74375001Y-38143571D01*
X74517858Y-38072143D01*
X74589287Y-38000714D01*
X74660715Y-37857857D01*
X74660715Y-37715000D01*
X74589287Y-37572143D01*
X74517858Y-37500714D01*
X74375001Y-37429286D01*
X74089287Y-37357857D01*
X73946429Y-37286429D01*
X73875001Y-37215000D01*
X73803572Y-37072143D01*
X73803572Y-36929286D01*
X73875001Y-36786429D01*
X73946429Y-36715000D01*
X74089287Y-36643571D01*
X74446429Y-36643571D01*
X74660715Y-36715000D01*
X75303572Y-37357857D02*
X75803572Y-37357857D01*
X76017858Y-38143571D02*
X75303572Y-38143571D01*
X75303572Y-36643571D01*
X76017858Y-36643571D01*
X76660715Y-38143571D02*
X76660715Y-36643571D01*
X77517858Y-38143571D01*
X77517858Y-36643571D01*
X78160715Y-38072143D02*
X78375001Y-38143571D01*
X78732144Y-38143571D01*
X78875001Y-38072143D01*
X78946430Y-38000714D01*
X79017858Y-37857857D01*
X79017858Y-37715000D01*
X78946430Y-37572143D01*
X78875001Y-37500714D01*
X78732144Y-37429286D01*
X78446430Y-37357857D01*
X78303572Y-37286429D01*
X78232144Y-37215000D01*
X78160715Y-37072143D01*
X78160715Y-36929286D01*
X78232144Y-36786429D01*
X78303572Y-36715000D01*
X78446430Y-36643571D01*
X78803572Y-36643571D01*
X79017858Y-36715000D01*
X79946429Y-36643571D02*
X80232143Y-36643571D01*
X80375001Y-36715000D01*
X80517858Y-36857857D01*
X80589286Y-37143571D01*
X80589286Y-37643571D01*
X80517858Y-37929286D01*
X80375001Y-38072143D01*
X80232143Y-38143571D01*
X79946429Y-38143571D01*
X79803572Y-38072143D01*
X79660715Y-37929286D01*
X79589286Y-37643571D01*
X79589286Y-37143571D01*
X79660715Y-36857857D01*
X79803572Y-36715000D01*
X79946429Y-36643571D01*
X82089287Y-38143571D02*
X81589287Y-37429286D01*
X81232144Y-38143571D02*
X81232144Y-36643571D01*
X81803572Y-36643571D01*
X81946430Y-36715000D01*
X82017858Y-36786429D01*
X82089287Y-36929286D01*
X82089287Y-37143571D01*
X82017858Y-37286429D01*
X81946430Y-37357857D01*
X81803572Y-37429286D01*
X81232144Y-37429286D01*
X82660715Y-38072143D02*
X82875001Y-38143571D01*
X83232144Y-38143571D01*
X83375001Y-38072143D01*
X83446430Y-38000714D01*
X83517858Y-37857857D01*
X83517858Y-37715000D01*
X83446430Y-37572143D01*
X83375001Y-37500714D01*
X83232144Y-37429286D01*
X82946430Y-37357857D01*
X82803572Y-37286429D01*
X82732144Y-37215000D01*
X82660715Y-37072143D01*
X82660715Y-36929286D01*
X82732144Y-36786429D01*
X82803572Y-36715000D01*
X82946430Y-36643571D01*
X83303572Y-36643571D01*
X83517858Y-36715000D01*
X84946429Y-38143571D02*
X84089286Y-38143571D01*
X84517858Y-38143571D02*
X84517858Y-36643571D01*
X84375001Y-36857857D01*
X84232143Y-37000714D01*
X84089286Y-37072143D01*
D12*
X90805000Y-38735000D02*
X90805000Y-34925000D01*
X67310000Y-34925000D02*
X90805000Y-34925000D01*
X67310000Y-81280000D02*
X67310000Y-34925000D01*
X90805000Y-81280000D02*
X67310000Y-81280000D01*
X90805000Y-38735000D02*
X90805000Y-81280000D01*
D11*
X152753429Y-46374857D02*
X152967715Y-46446286D01*
X153039143Y-46517714D01*
X153110572Y-46660571D01*
X153110572Y-46874857D01*
X153039143Y-47017714D01*
X152967715Y-47089143D01*
X152824857Y-47160571D01*
X152253429Y-47160571D01*
X152253429Y-45660571D01*
X152753429Y-45660571D01*
X152896286Y-45732000D01*
X152967715Y-45803429D01*
X153039143Y-45946286D01*
X153039143Y-46089143D01*
X152967715Y-46232000D01*
X152896286Y-46303429D01*
X152753429Y-46374857D01*
X152253429Y-46374857D01*
X153682000Y-46732000D02*
X154396286Y-46732000D01*
X153539143Y-47160571D02*
X154039143Y-45660571D01*
X154539143Y-47160571D01*
X154824857Y-45660571D02*
X155682000Y-45660571D01*
X155253429Y-47160571D02*
X155253429Y-45660571D01*
X155967714Y-45660571D02*
X156824857Y-45660571D01*
X156396286Y-47160571D02*
X156396286Y-45660571D01*
X140795715Y-47160571D02*
X140081429Y-47160571D01*
X140081429Y-45660571D01*
X141295715Y-47160571D02*
X141295715Y-45660571D01*
X142795715Y-45732000D02*
X142652858Y-45660571D01*
X142438572Y-45660571D01*
X142224287Y-45732000D01*
X142081429Y-45874857D01*
X142010001Y-46017714D01*
X141938572Y-46303429D01*
X141938572Y-46517714D01*
X142010001Y-46803429D01*
X142081429Y-46946286D01*
X142224287Y-47089143D01*
X142438572Y-47160571D01*
X142581429Y-47160571D01*
X142795715Y-47089143D01*
X142867144Y-47017714D01*
X142867144Y-46517714D01*
X142581429Y-46517714D01*
X143510001Y-47160571D02*
X143510001Y-45660571D01*
X143510001Y-46374857D02*
X144367144Y-46374857D01*
X144367144Y-47160571D02*
X144367144Y-45660571D01*
X144867144Y-45660571D02*
X145724287Y-45660571D01*
X145295716Y-47160571D02*
X145295716Y-45660571D01*
X146152858Y-47089143D02*
X146367144Y-47160571D01*
X146724287Y-47160571D01*
X146867144Y-47089143D01*
X146938573Y-47017714D01*
X147010001Y-46874857D01*
X147010001Y-46732000D01*
X146938573Y-46589143D01*
X146867144Y-46517714D01*
X146724287Y-46446286D01*
X146438573Y-46374857D01*
X146295715Y-46303429D01*
X146224287Y-46232000D01*
X146152858Y-46089143D01*
X146152858Y-45946286D01*
X146224287Y-45803429D01*
X146295715Y-45732000D01*
X146438573Y-45660571D01*
X146795715Y-45660571D01*
X147010001Y-45732000D01*
D10*
X66040000Y-142240000D02*
X66040000Y-133350000D01*
X160020000Y-142240000D02*
X66040000Y-142240000D01*
X160020000Y-133350000D02*
X160020000Y-142240000D01*
X66040000Y-133350000D02*
X66040000Y-34290000D01*
X160020000Y-34290000D02*
X160020000Y-133350000D01*
X66040000Y-34290000D02*
X160020000Y-34290000D01*
X69215000Y-96520000D02*
X71755000Y-96520000D01*
X71755000Y-96520000D02*
X71755000Y-101600000D01*
X71755000Y-101600000D02*
X69215000Y-101600000D01*
X79375000Y-83185000D02*
X79375000Y-87630000D01*
X79375000Y-87630000D02*
X78740000Y-87630000D01*
X78740000Y-87630000D02*
X78740000Y-86995000D01*
X78740000Y-86995000D02*
X71120000Y-86995000D01*
X71120000Y-86995000D02*
X71120000Y-87630000D01*
X71120000Y-87630000D02*
X70485000Y-87630000D01*
X70485000Y-87630000D02*
X70485000Y-83185000D01*
X120015000Y-86995000D02*
X102870000Y-86995000D01*
X102870000Y-86995000D02*
X102870000Y-104775000D01*
X102870000Y-104775000D02*
X120015000Y-104775000D01*
X120015000Y-104775000D02*
X120015000Y-86995000D01*
X124460000Y-86360000D02*
X102235000Y-86360000D01*
X102235000Y-86360000D02*
X102235000Y-105410000D01*
X102235000Y-105410000D02*
X124460000Y-105410000D01*
X124460000Y-105410000D02*
X124460000Y-86360000D01*
X125095000Y-84455000D02*
X125095000Y-107315000D01*
X69215000Y-84455000D02*
X69215000Y-107315000D01*
X69215000Y-107315000D02*
G75*
G03X70485000Y-108585000I1270000J0D01*
G01*
X70485000Y-83185000D02*
G75*
G03X69215000Y-84455000I0J-1270000D01*
G01*
X123825000Y-108585000D02*
G75*
G03X125095000Y-107315000I0J1270000D01*
G01*
X125095000Y-84455000D02*
G75*
G03X123825000Y-83185000I-1270000J0D01*
G01*
X123825000Y-108585000D02*
X70485000Y-108585000D01*
X123825000Y-83185000D02*
X70485000Y-83185000D01*
D13*
X98834000Y-43732000D02*
X98834000Y-41612000D01*
X98834000Y-41612000D02*
X94714000Y-41612000D01*
X94714000Y-41612000D02*
X94714000Y-43732000D01*
X94714000Y-43732000D02*
X98834000Y-43732000D01*
X99604000Y-42672000D02*
X98834000Y-42672000D01*
X93944000Y-42672000D02*
X94714000Y-42672000D01*
X98174000Y-43732000D02*
X98174000Y-41612000D01*
X98834000Y-51860000D02*
X98834000Y-49740000D01*
X98834000Y-49740000D02*
X94714000Y-49740000D01*
X94714000Y-49740000D02*
X94714000Y-51860000D01*
X94714000Y-51860000D02*
X98834000Y-51860000D01*
X99604000Y-50800000D02*
X98834000Y-50800000D01*
X93944000Y-50800000D02*
X94714000Y-50800000D01*
X98174000Y-51860000D02*
X98174000Y-49740000D01*
X98834000Y-59988000D02*
X98834000Y-57868000D01*
X98834000Y-57868000D02*
X94714000Y-57868000D01*
X94714000Y-57868000D02*
X94714000Y-59988000D01*
X94714000Y-59988000D02*
X98834000Y-59988000D01*
X99604000Y-58928000D02*
X98834000Y-58928000D01*
X93944000Y-58928000D02*
X94714000Y-58928000D01*
X98174000Y-59988000D02*
X98174000Y-57868000D01*
X98834000Y-68116000D02*
X98834000Y-65996000D01*
X98834000Y-65996000D02*
X94714000Y-65996000D01*
X94714000Y-65996000D02*
X94714000Y-68116000D01*
X94714000Y-68116000D02*
X98834000Y-68116000D01*
X99604000Y-67056000D02*
X98834000Y-67056000D01*
X93944000Y-67056000D02*
X94714000Y-67056000D01*
X98174000Y-68116000D02*
X98174000Y-65996000D01*
X98834000Y-76244000D02*
X98834000Y-74124000D01*
X98834000Y-74124000D02*
X94714000Y-74124000D01*
X94714000Y-74124000D02*
X94714000Y-76244000D01*
X94714000Y-76244000D02*
X98834000Y-76244000D01*
X99604000Y-75184000D02*
X98834000Y-75184000D01*
X93944000Y-75184000D02*
X94714000Y-75184000D01*
X98174000Y-76244000D02*
X98174000Y-74124000D01*
X98834000Y-47796000D02*
X98834000Y-45676000D01*
X98834000Y-45676000D02*
X94714000Y-45676000D01*
X94714000Y-45676000D02*
X94714000Y-47796000D01*
X94714000Y-47796000D02*
X98834000Y-47796000D01*
X99604000Y-46736000D02*
X98834000Y-46736000D01*
X93944000Y-46736000D02*
X94714000Y-46736000D01*
X98174000Y-47796000D02*
X98174000Y-45676000D01*
X98834000Y-55924000D02*
X98834000Y-53804000D01*
X98834000Y-53804000D02*
X94714000Y-53804000D01*
X94714000Y-53804000D02*
X94714000Y-55924000D01*
X94714000Y-55924000D02*
X98834000Y-55924000D01*
X99604000Y-54864000D02*
X98834000Y-54864000D01*
X93944000Y-54864000D02*
X94714000Y-54864000D01*
X98174000Y-55924000D02*
X98174000Y-53804000D01*
X98834000Y-64306000D02*
X98834000Y-62186000D01*
X98834000Y-62186000D02*
X94714000Y-62186000D01*
X94714000Y-62186000D02*
X94714000Y-64306000D01*
X94714000Y-64306000D02*
X98834000Y-64306000D01*
X99604000Y-63246000D02*
X98834000Y-63246000D01*
X93944000Y-63246000D02*
X94714000Y-63246000D01*
X98174000Y-64306000D02*
X98174000Y-62186000D01*
X98834000Y-72180000D02*
X98834000Y-70060000D01*
X98834000Y-70060000D02*
X94714000Y-70060000D01*
X94714000Y-70060000D02*
X94714000Y-72180000D01*
X94714000Y-72180000D02*
X98834000Y-72180000D01*
X99604000Y-71120000D02*
X98834000Y-71120000D01*
X93944000Y-71120000D02*
X94714000Y-71120000D01*
X98174000Y-72180000D02*
X98174000Y-70060000D01*
X98834000Y-80435000D02*
X98834000Y-78315000D01*
X98834000Y-78315000D02*
X94714000Y-78315000D01*
X94714000Y-78315000D02*
X94714000Y-80435000D01*
X94714000Y-80435000D02*
X98834000Y-80435000D01*
X99604000Y-79375000D02*
X98834000Y-79375000D01*
X93944000Y-79375000D02*
X94714000Y-79375000D01*
X98174000Y-80435000D02*
X98174000Y-78315000D01*
X105890000Y-41866000D02*
X105890000Y-43986000D01*
X105890000Y-43986000D02*
X110010000Y-43986000D01*
X110010000Y-43986000D02*
X110010000Y-41866000D01*
X110010000Y-41866000D02*
X105890000Y-41866000D01*
X105120000Y-42926000D02*
X105890000Y-42926000D01*
X110780000Y-42926000D02*
X110010000Y-42926000D01*
X106550000Y-41866000D02*
X106550000Y-43986000D01*
X105890000Y-49740000D02*
X105890000Y-51860000D01*
X105890000Y-51860000D02*
X110010000Y-51860000D01*
X110010000Y-51860000D02*
X110010000Y-49740000D01*
X110010000Y-49740000D02*
X105890000Y-49740000D01*
X105120000Y-50800000D02*
X105890000Y-50800000D01*
X110780000Y-50800000D02*
X110010000Y-50800000D01*
X106550000Y-49740000D02*
X106550000Y-51860000D01*
X105890000Y-57868000D02*
X105890000Y-59988000D01*
X105890000Y-59988000D02*
X110010000Y-59988000D01*
X110010000Y-59988000D02*
X110010000Y-57868000D01*
X110010000Y-57868000D02*
X105890000Y-57868000D01*
X105120000Y-58928000D02*
X105890000Y-58928000D01*
X110780000Y-58928000D02*
X110010000Y-58928000D01*
X106550000Y-57868000D02*
X106550000Y-59988000D01*
X105890000Y-65996000D02*
X105890000Y-68116000D01*
X105890000Y-68116000D02*
X110010000Y-68116000D01*
X110010000Y-68116000D02*
X110010000Y-65996000D01*
X110010000Y-65996000D02*
X105890000Y-65996000D01*
X105120000Y-67056000D02*
X105890000Y-67056000D01*
X110780000Y-67056000D02*
X110010000Y-67056000D01*
X106550000Y-65996000D02*
X106550000Y-68116000D01*
X105890000Y-74124000D02*
X105890000Y-76244000D01*
X105890000Y-76244000D02*
X110010000Y-76244000D01*
X110010000Y-76244000D02*
X110010000Y-74124000D01*
X110010000Y-74124000D02*
X105890000Y-74124000D01*
X105120000Y-75184000D02*
X105890000Y-75184000D01*
X110780000Y-75184000D02*
X110010000Y-75184000D01*
X106550000Y-74124000D02*
X106550000Y-76244000D01*
X105890000Y-45676000D02*
X105890000Y-47796000D01*
X105890000Y-47796000D02*
X110010000Y-47796000D01*
X110010000Y-47796000D02*
X110010000Y-45676000D01*
X110010000Y-45676000D02*
X105890000Y-45676000D01*
X105120000Y-46736000D02*
X105890000Y-46736000D01*
X110780000Y-46736000D02*
X110010000Y-46736000D01*
X106550000Y-45676000D02*
X106550000Y-47796000D01*
X105890000Y-53804000D02*
X105890000Y-55924000D01*
X105890000Y-55924000D02*
X110010000Y-55924000D01*
X110010000Y-55924000D02*
X110010000Y-53804000D01*
X110010000Y-53804000D02*
X105890000Y-53804000D01*
X105120000Y-54864000D02*
X105890000Y-54864000D01*
X110780000Y-54864000D02*
X110010000Y-54864000D01*
X106550000Y-53804000D02*
X106550000Y-55924000D01*
X105890000Y-61932000D02*
X105890000Y-64052000D01*
X105890000Y-64052000D02*
X110010000Y-64052000D01*
X110010000Y-64052000D02*
X110010000Y-61932000D01*
X110010000Y-61932000D02*
X105890000Y-61932000D01*
X105120000Y-62992000D02*
X105890000Y-62992000D01*
X110780000Y-62992000D02*
X110010000Y-62992000D01*
X106550000Y-61932000D02*
X106550000Y-64052000D01*
X105890000Y-70060000D02*
X105890000Y-72180000D01*
X105890000Y-72180000D02*
X110010000Y-72180000D01*
X110010000Y-72180000D02*
X110010000Y-70060000D01*
X110010000Y-70060000D02*
X105890000Y-70060000D01*
X105120000Y-71120000D02*
X105890000Y-71120000D01*
X110780000Y-71120000D02*
X110010000Y-71120000D01*
X106550000Y-70060000D02*
X106550000Y-72180000D01*
X105890000Y-78315000D02*
X105890000Y-80435000D01*
X105890000Y-80435000D02*
X110010000Y-80435000D01*
X110010000Y-80435000D02*
X110010000Y-78315000D01*
X110010000Y-78315000D02*
X105890000Y-78315000D01*
X105120000Y-79375000D02*
X105890000Y-79375000D01*
X110780000Y-79375000D02*
X110010000Y-79375000D01*
X106550000Y-78315000D02*
X106550000Y-80435000D01*
X68570000Y-41365000D02*
X68570000Y-47315000D01*
X68570000Y-47315000D02*
X78670000Y-47315000D01*
X78670000Y-47315000D02*
X78670000Y-41365000D01*
X78670000Y-41365000D02*
X68570000Y-41365000D01*
X71870000Y-41365000D02*
X71870000Y-42115000D01*
X71870000Y-42115000D02*
X75370000Y-42115000D01*
X75370000Y-42115000D02*
X75370000Y-41365000D01*
X75370000Y-41365000D02*
X71870000Y-41365000D01*
X68570000Y-41365000D02*
X68570000Y-42115000D01*
X68570000Y-42115000D02*
X70370000Y-42115000D01*
X70370000Y-42115000D02*
X70370000Y-41365000D01*
X70370000Y-41365000D02*
X68570000Y-41365000D01*
X76870000Y-41365000D02*
X76870000Y-42115000D01*
X76870000Y-42115000D02*
X78670000Y-42115000D01*
X78670000Y-42115000D02*
X78670000Y-41365000D01*
X78670000Y-41365000D02*
X76870000Y-41365000D01*
X68570000Y-43615000D02*
X69320000Y-43615000D01*
X69320000Y-43615000D02*
X69320000Y-46565000D01*
X69320000Y-46565000D02*
X73620000Y-46565000D01*
X78670000Y-43615000D02*
X77920000Y-43615000D01*
X77920000Y-43615000D02*
X77920000Y-46565000D01*
X77920000Y-46565000D02*
X73620000Y-46565000D01*
X70770000Y-41065000D02*
X68270000Y-41065000D01*
X68270000Y-41065000D02*
X68270000Y-43565000D01*
X68570000Y-49620000D02*
X68570000Y-55570000D01*
X68570000Y-55570000D02*
X78670000Y-55570000D01*
X78670000Y-55570000D02*
X78670000Y-49620000D01*
X78670000Y-49620000D02*
X68570000Y-49620000D01*
X71870000Y-49620000D02*
X71870000Y-50370000D01*
X71870000Y-50370000D02*
X75370000Y-50370000D01*
X75370000Y-50370000D02*
X75370000Y-49620000D01*
X75370000Y-49620000D02*
X71870000Y-49620000D01*
X68570000Y-49620000D02*
X68570000Y-50370000D01*
X68570000Y-50370000D02*
X70370000Y-50370000D01*
X70370000Y-50370000D02*
X70370000Y-49620000D01*
X70370000Y-49620000D02*
X68570000Y-49620000D01*
X76870000Y-49620000D02*
X76870000Y-50370000D01*
X76870000Y-50370000D02*
X78670000Y-50370000D01*
X78670000Y-50370000D02*
X78670000Y-49620000D01*
X78670000Y-49620000D02*
X76870000Y-49620000D01*
X68570000Y-51870000D02*
X69320000Y-51870000D01*
X69320000Y-51870000D02*
X69320000Y-54820000D01*
X69320000Y-54820000D02*
X73620000Y-54820000D01*
X78670000Y-51870000D02*
X77920000Y-51870000D01*
X77920000Y-51870000D02*
X77920000Y-54820000D01*
X77920000Y-54820000D02*
X73620000Y-54820000D01*
X70770000Y-49320000D02*
X68270000Y-49320000D01*
X68270000Y-49320000D02*
X68270000Y-51820000D01*
X68570000Y-57875000D02*
X68570000Y-63825000D01*
X68570000Y-63825000D02*
X78670000Y-63825000D01*
X78670000Y-63825000D02*
X78670000Y-57875000D01*
X78670000Y-57875000D02*
X68570000Y-57875000D01*
X71870000Y-57875000D02*
X71870000Y-58625000D01*
X71870000Y-58625000D02*
X75370000Y-58625000D01*
X75370000Y-58625000D02*
X75370000Y-57875000D01*
X75370000Y-57875000D02*
X71870000Y-57875000D01*
X68570000Y-57875000D02*
X68570000Y-58625000D01*
X68570000Y-58625000D02*
X70370000Y-58625000D01*
X70370000Y-58625000D02*
X70370000Y-57875000D01*
X70370000Y-57875000D02*
X68570000Y-57875000D01*
X76870000Y-57875000D02*
X76870000Y-58625000D01*
X76870000Y-58625000D02*
X78670000Y-58625000D01*
X78670000Y-58625000D02*
X78670000Y-57875000D01*
X78670000Y-57875000D02*
X76870000Y-57875000D01*
X68570000Y-60125000D02*
X69320000Y-60125000D01*
X69320000Y-60125000D02*
X69320000Y-63075000D01*
X69320000Y-63075000D02*
X73620000Y-63075000D01*
X78670000Y-60125000D02*
X77920000Y-60125000D01*
X77920000Y-60125000D02*
X77920000Y-63075000D01*
X77920000Y-63075000D02*
X73620000Y-63075000D01*
X70770000Y-57575000D02*
X68270000Y-57575000D01*
X68270000Y-57575000D02*
X68270000Y-60075000D01*
X68570000Y-66130000D02*
X68570000Y-72080000D01*
X68570000Y-72080000D02*
X78670000Y-72080000D01*
X78670000Y-72080000D02*
X78670000Y-66130000D01*
X78670000Y-66130000D02*
X68570000Y-66130000D01*
X71870000Y-66130000D02*
X71870000Y-66880000D01*
X71870000Y-66880000D02*
X75370000Y-66880000D01*
X75370000Y-66880000D02*
X75370000Y-66130000D01*
X75370000Y-66130000D02*
X71870000Y-66130000D01*
X68570000Y-66130000D02*
X68570000Y-66880000D01*
X68570000Y-66880000D02*
X70370000Y-66880000D01*
X70370000Y-66880000D02*
X70370000Y-66130000D01*
X70370000Y-66130000D02*
X68570000Y-66130000D01*
X76870000Y-66130000D02*
X76870000Y-66880000D01*
X76870000Y-66880000D02*
X78670000Y-66880000D01*
X78670000Y-66880000D02*
X78670000Y-66130000D01*
X78670000Y-66130000D02*
X76870000Y-66130000D01*
X68570000Y-68380000D02*
X69320000Y-68380000D01*
X69320000Y-68380000D02*
X69320000Y-71330000D01*
X69320000Y-71330000D02*
X73620000Y-71330000D01*
X78670000Y-68380000D02*
X77920000Y-68380000D01*
X77920000Y-68380000D02*
X77920000Y-71330000D01*
X77920000Y-71330000D02*
X73620000Y-71330000D01*
X70770000Y-65830000D02*
X68270000Y-65830000D01*
X68270000Y-65830000D02*
X68270000Y-68330000D01*
X68570000Y-74385000D02*
X68570000Y-80335000D01*
X68570000Y-80335000D02*
X78670000Y-80335000D01*
X78670000Y-80335000D02*
X78670000Y-74385000D01*
X78670000Y-74385000D02*
X68570000Y-74385000D01*
X71870000Y-74385000D02*
X71870000Y-75135000D01*
X71870000Y-75135000D02*
X75370000Y-75135000D01*
X75370000Y-75135000D02*
X75370000Y-74385000D01*
X75370000Y-74385000D02*
X71870000Y-74385000D01*
X68570000Y-74385000D02*
X68570000Y-75135000D01*
X68570000Y-75135000D02*
X70370000Y-75135000D01*
X70370000Y-75135000D02*
X70370000Y-74385000D01*
X70370000Y-74385000D02*
X68570000Y-74385000D01*
X76870000Y-74385000D02*
X76870000Y-75135000D01*
X76870000Y-75135000D02*
X78670000Y-75135000D01*
X78670000Y-75135000D02*
X78670000Y-74385000D01*
X78670000Y-74385000D02*
X76870000Y-74385000D01*
X68570000Y-76635000D02*
X69320000Y-76635000D01*
X69320000Y-76635000D02*
X69320000Y-79585000D01*
X69320000Y-79585000D02*
X73620000Y-79585000D01*
X78670000Y-76635000D02*
X77920000Y-76635000D01*
X77920000Y-76635000D02*
X77920000Y-79585000D01*
X77920000Y-79585000D02*
X73620000Y-79585000D01*
X70770000Y-74085000D02*
X68270000Y-74085000D01*
X68270000Y-74085000D02*
X68270000Y-76585000D01*
X80000000Y-41365000D02*
X80000000Y-47315000D01*
X80000000Y-47315000D02*
X90100000Y-47315000D01*
X90100000Y-47315000D02*
X90100000Y-41365000D01*
X90100000Y-41365000D02*
X80000000Y-41365000D01*
X83300000Y-41365000D02*
X83300000Y-42115000D01*
X83300000Y-42115000D02*
X86800000Y-42115000D01*
X86800000Y-42115000D02*
X86800000Y-41365000D01*
X86800000Y-41365000D02*
X83300000Y-41365000D01*
X80000000Y-41365000D02*
X80000000Y-42115000D01*
X80000000Y-42115000D02*
X81800000Y-42115000D01*
X81800000Y-42115000D02*
X81800000Y-41365000D01*
X81800000Y-41365000D02*
X80000000Y-41365000D01*
X88300000Y-41365000D02*
X88300000Y-42115000D01*
X88300000Y-42115000D02*
X90100000Y-42115000D01*
X90100000Y-42115000D02*
X90100000Y-41365000D01*
X90100000Y-41365000D02*
X88300000Y-41365000D01*
X80000000Y-43615000D02*
X80750000Y-43615000D01*
X80750000Y-43615000D02*
X80750000Y-46565000D01*
X80750000Y-46565000D02*
X85050000Y-46565000D01*
X90100000Y-43615000D02*
X89350000Y-43615000D01*
X89350000Y-43615000D02*
X89350000Y-46565000D01*
X89350000Y-46565000D02*
X85050000Y-46565000D01*
X82200000Y-41065000D02*
X79700000Y-41065000D01*
X79700000Y-41065000D02*
X79700000Y-43565000D01*
X80000000Y-49620000D02*
X80000000Y-55570000D01*
X80000000Y-55570000D02*
X90100000Y-55570000D01*
X90100000Y-55570000D02*
X90100000Y-49620000D01*
X90100000Y-49620000D02*
X80000000Y-49620000D01*
X83300000Y-49620000D02*
X83300000Y-50370000D01*
X83300000Y-50370000D02*
X86800000Y-50370000D01*
X86800000Y-50370000D02*
X86800000Y-49620000D01*
X86800000Y-49620000D02*
X83300000Y-49620000D01*
X80000000Y-49620000D02*
X80000000Y-50370000D01*
X80000000Y-50370000D02*
X81800000Y-50370000D01*
X81800000Y-50370000D02*
X81800000Y-49620000D01*
X81800000Y-49620000D02*
X80000000Y-49620000D01*
X88300000Y-49620000D02*
X88300000Y-50370000D01*
X88300000Y-50370000D02*
X90100000Y-50370000D01*
X90100000Y-50370000D02*
X90100000Y-49620000D01*
X90100000Y-49620000D02*
X88300000Y-49620000D01*
X80000000Y-51870000D02*
X80750000Y-51870000D01*
X80750000Y-51870000D02*
X80750000Y-54820000D01*
X80750000Y-54820000D02*
X85050000Y-54820000D01*
X90100000Y-51870000D02*
X89350000Y-51870000D01*
X89350000Y-51870000D02*
X89350000Y-54820000D01*
X89350000Y-54820000D02*
X85050000Y-54820000D01*
X82200000Y-49320000D02*
X79700000Y-49320000D01*
X79700000Y-49320000D02*
X79700000Y-51820000D01*
X80000000Y-57875000D02*
X80000000Y-63825000D01*
X80000000Y-63825000D02*
X90100000Y-63825000D01*
X90100000Y-63825000D02*
X90100000Y-57875000D01*
X90100000Y-57875000D02*
X80000000Y-57875000D01*
X83300000Y-57875000D02*
X83300000Y-58625000D01*
X83300000Y-58625000D02*
X86800000Y-58625000D01*
X86800000Y-58625000D02*
X86800000Y-57875000D01*
X86800000Y-57875000D02*
X83300000Y-57875000D01*
X80000000Y-57875000D02*
X80000000Y-58625000D01*
X80000000Y-58625000D02*
X81800000Y-58625000D01*
X81800000Y-58625000D02*
X81800000Y-57875000D01*
X81800000Y-57875000D02*
X80000000Y-57875000D01*
X88300000Y-57875000D02*
X88300000Y-58625000D01*
X88300000Y-58625000D02*
X90100000Y-58625000D01*
X90100000Y-58625000D02*
X90100000Y-57875000D01*
X90100000Y-57875000D02*
X88300000Y-57875000D01*
X80000000Y-60125000D02*
X80750000Y-60125000D01*
X80750000Y-60125000D02*
X80750000Y-63075000D01*
X80750000Y-63075000D02*
X85050000Y-63075000D01*
X90100000Y-60125000D02*
X89350000Y-60125000D01*
X89350000Y-60125000D02*
X89350000Y-63075000D01*
X89350000Y-63075000D02*
X85050000Y-63075000D01*
X82200000Y-57575000D02*
X79700000Y-57575000D01*
X79700000Y-57575000D02*
X79700000Y-60075000D01*
X80000000Y-66130000D02*
X80000000Y-72080000D01*
X80000000Y-72080000D02*
X90100000Y-72080000D01*
X90100000Y-72080000D02*
X90100000Y-66130000D01*
X90100000Y-66130000D02*
X80000000Y-66130000D01*
X83300000Y-66130000D02*
X83300000Y-66880000D01*
X83300000Y-66880000D02*
X86800000Y-66880000D01*
X86800000Y-66880000D02*
X86800000Y-66130000D01*
X86800000Y-66130000D02*
X83300000Y-66130000D01*
X80000000Y-66130000D02*
X80000000Y-66880000D01*
X80000000Y-66880000D02*
X81800000Y-66880000D01*
X81800000Y-66880000D02*
X81800000Y-66130000D01*
X81800000Y-66130000D02*
X80000000Y-66130000D01*
X88300000Y-66130000D02*
X88300000Y-66880000D01*
X88300000Y-66880000D02*
X90100000Y-66880000D01*
X90100000Y-66880000D02*
X90100000Y-66130000D01*
X90100000Y-66130000D02*
X88300000Y-66130000D01*
X80000000Y-68380000D02*
X80750000Y-68380000D01*
X80750000Y-68380000D02*
X80750000Y-71330000D01*
X80750000Y-71330000D02*
X85050000Y-71330000D01*
X90100000Y-68380000D02*
X89350000Y-68380000D01*
X89350000Y-68380000D02*
X89350000Y-71330000D01*
X89350000Y-71330000D02*
X85050000Y-71330000D01*
X82200000Y-65830000D02*
X79700000Y-65830000D01*
X79700000Y-65830000D02*
X79700000Y-68330000D01*
X80000000Y-74385000D02*
X80000000Y-80335000D01*
X80000000Y-80335000D02*
X90100000Y-80335000D01*
X90100000Y-80335000D02*
X90100000Y-74385000D01*
X90100000Y-74385000D02*
X80000000Y-74385000D01*
X83300000Y-74385000D02*
X83300000Y-75135000D01*
X83300000Y-75135000D02*
X86800000Y-75135000D01*
X86800000Y-75135000D02*
X86800000Y-74385000D01*
X86800000Y-74385000D02*
X83300000Y-74385000D01*
X80000000Y-74385000D02*
X80000000Y-75135000D01*
X80000000Y-75135000D02*
X81800000Y-75135000D01*
X81800000Y-75135000D02*
X81800000Y-74385000D01*
X81800000Y-74385000D02*
X80000000Y-74385000D01*
X88300000Y-74385000D02*
X88300000Y-75135000D01*
X88300000Y-75135000D02*
X90100000Y-75135000D01*
X90100000Y-75135000D02*
X90100000Y-74385000D01*
X90100000Y-74385000D02*
X88300000Y-74385000D01*
X80000000Y-76635000D02*
X80750000Y-76635000D01*
X80750000Y-76635000D02*
X80750000Y-79585000D01*
X80750000Y-79585000D02*
X85050000Y-79585000D01*
X90100000Y-76635000D02*
X89350000Y-76635000D01*
X89350000Y-76635000D02*
X89350000Y-79585000D01*
X89350000Y-79585000D02*
X85050000Y-79585000D01*
X82200000Y-74085000D02*
X79700000Y-74085000D01*
X79700000Y-74085000D02*
X79700000Y-76585000D01*
X114290000Y-41365000D02*
X114290000Y-47315000D01*
X114290000Y-47315000D02*
X124390000Y-47315000D01*
X124390000Y-47315000D02*
X124390000Y-41365000D01*
X124390000Y-41365000D02*
X114290000Y-41365000D01*
X117590000Y-41365000D02*
X117590000Y-42115000D01*
X117590000Y-42115000D02*
X121090000Y-42115000D01*
X121090000Y-42115000D02*
X121090000Y-41365000D01*
X121090000Y-41365000D02*
X117590000Y-41365000D01*
X114290000Y-41365000D02*
X114290000Y-42115000D01*
X114290000Y-42115000D02*
X116090000Y-42115000D01*
X116090000Y-42115000D02*
X116090000Y-41365000D01*
X116090000Y-41365000D02*
X114290000Y-41365000D01*
X122590000Y-41365000D02*
X122590000Y-42115000D01*
X122590000Y-42115000D02*
X124390000Y-42115000D01*
X124390000Y-42115000D02*
X124390000Y-41365000D01*
X124390000Y-41365000D02*
X122590000Y-41365000D01*
X114290000Y-43615000D02*
X115040000Y-43615000D01*
X115040000Y-43615000D02*
X115040000Y-46565000D01*
X115040000Y-46565000D02*
X119340000Y-46565000D01*
X124390000Y-43615000D02*
X123640000Y-43615000D01*
X123640000Y-43615000D02*
X123640000Y-46565000D01*
X123640000Y-46565000D02*
X119340000Y-46565000D01*
X116490000Y-41065000D02*
X113990000Y-41065000D01*
X113990000Y-41065000D02*
X113990000Y-43565000D01*
X114290000Y-49620000D02*
X114290000Y-55570000D01*
X114290000Y-55570000D02*
X124390000Y-55570000D01*
X124390000Y-55570000D02*
X124390000Y-49620000D01*
X124390000Y-49620000D02*
X114290000Y-49620000D01*
X117590000Y-49620000D02*
X117590000Y-50370000D01*
X117590000Y-50370000D02*
X121090000Y-50370000D01*
X121090000Y-50370000D02*
X121090000Y-49620000D01*
X121090000Y-49620000D02*
X117590000Y-49620000D01*
X114290000Y-49620000D02*
X114290000Y-50370000D01*
X114290000Y-50370000D02*
X116090000Y-50370000D01*
X116090000Y-50370000D02*
X116090000Y-49620000D01*
X116090000Y-49620000D02*
X114290000Y-49620000D01*
X122590000Y-49620000D02*
X122590000Y-50370000D01*
X122590000Y-50370000D02*
X124390000Y-50370000D01*
X124390000Y-50370000D02*
X124390000Y-49620000D01*
X124390000Y-49620000D02*
X122590000Y-49620000D01*
X114290000Y-51870000D02*
X115040000Y-51870000D01*
X115040000Y-51870000D02*
X115040000Y-54820000D01*
X115040000Y-54820000D02*
X119340000Y-54820000D01*
X124390000Y-51870000D02*
X123640000Y-51870000D01*
X123640000Y-51870000D02*
X123640000Y-54820000D01*
X123640000Y-54820000D02*
X119340000Y-54820000D01*
X116490000Y-49320000D02*
X113990000Y-49320000D01*
X113990000Y-49320000D02*
X113990000Y-51820000D01*
X114290000Y-57875000D02*
X114290000Y-63825000D01*
X114290000Y-63825000D02*
X124390000Y-63825000D01*
X124390000Y-63825000D02*
X124390000Y-57875000D01*
X124390000Y-57875000D02*
X114290000Y-57875000D01*
X117590000Y-57875000D02*
X117590000Y-58625000D01*
X117590000Y-58625000D02*
X121090000Y-58625000D01*
X121090000Y-58625000D02*
X121090000Y-57875000D01*
X121090000Y-57875000D02*
X117590000Y-57875000D01*
X114290000Y-57875000D02*
X114290000Y-58625000D01*
X114290000Y-58625000D02*
X116090000Y-58625000D01*
X116090000Y-58625000D02*
X116090000Y-57875000D01*
X116090000Y-57875000D02*
X114290000Y-57875000D01*
X122590000Y-57875000D02*
X122590000Y-58625000D01*
X122590000Y-58625000D02*
X124390000Y-58625000D01*
X124390000Y-58625000D02*
X124390000Y-57875000D01*
X124390000Y-57875000D02*
X122590000Y-57875000D01*
X114290000Y-60125000D02*
X115040000Y-60125000D01*
X115040000Y-60125000D02*
X115040000Y-63075000D01*
X115040000Y-63075000D02*
X119340000Y-63075000D01*
X124390000Y-60125000D02*
X123640000Y-60125000D01*
X123640000Y-60125000D02*
X123640000Y-63075000D01*
X123640000Y-63075000D02*
X119340000Y-63075000D01*
X116490000Y-57575000D02*
X113990000Y-57575000D01*
X113990000Y-57575000D02*
X113990000Y-60075000D01*
X114290000Y-66130000D02*
X114290000Y-72080000D01*
X114290000Y-72080000D02*
X124390000Y-72080000D01*
X124390000Y-72080000D02*
X124390000Y-66130000D01*
X124390000Y-66130000D02*
X114290000Y-66130000D01*
X117590000Y-66130000D02*
X117590000Y-66880000D01*
X117590000Y-66880000D02*
X121090000Y-66880000D01*
X121090000Y-66880000D02*
X121090000Y-66130000D01*
X121090000Y-66130000D02*
X117590000Y-66130000D01*
X114290000Y-66130000D02*
X114290000Y-66880000D01*
X114290000Y-66880000D02*
X116090000Y-66880000D01*
X116090000Y-66880000D02*
X116090000Y-66130000D01*
X116090000Y-66130000D02*
X114290000Y-66130000D01*
X122590000Y-66130000D02*
X122590000Y-66880000D01*
X122590000Y-66880000D02*
X124390000Y-66880000D01*
X124390000Y-66880000D02*
X124390000Y-66130000D01*
X124390000Y-66130000D02*
X122590000Y-66130000D01*
X114290000Y-68380000D02*
X115040000Y-68380000D01*
X115040000Y-68380000D02*
X115040000Y-71330000D01*
X115040000Y-71330000D02*
X119340000Y-71330000D01*
X124390000Y-68380000D02*
X123640000Y-68380000D01*
X123640000Y-68380000D02*
X123640000Y-71330000D01*
X123640000Y-71330000D02*
X119340000Y-71330000D01*
X116490000Y-65830000D02*
X113990000Y-65830000D01*
X113990000Y-65830000D02*
X113990000Y-68330000D01*
X114290000Y-74385000D02*
X114290000Y-80335000D01*
X114290000Y-80335000D02*
X124390000Y-80335000D01*
X124390000Y-80335000D02*
X124390000Y-74385000D01*
X124390000Y-74385000D02*
X114290000Y-74385000D01*
X117590000Y-74385000D02*
X117590000Y-75135000D01*
X117590000Y-75135000D02*
X121090000Y-75135000D01*
X121090000Y-75135000D02*
X121090000Y-74385000D01*
X121090000Y-74385000D02*
X117590000Y-74385000D01*
X114290000Y-74385000D02*
X114290000Y-75135000D01*
X114290000Y-75135000D02*
X116090000Y-75135000D01*
X116090000Y-75135000D02*
X116090000Y-74385000D01*
X116090000Y-74385000D02*
X114290000Y-74385000D01*
X122590000Y-74385000D02*
X122590000Y-75135000D01*
X122590000Y-75135000D02*
X124390000Y-75135000D01*
X124390000Y-75135000D02*
X124390000Y-74385000D01*
X124390000Y-74385000D02*
X122590000Y-74385000D01*
X114290000Y-76635000D02*
X115040000Y-76635000D01*
X115040000Y-76635000D02*
X115040000Y-79585000D01*
X115040000Y-79585000D02*
X119340000Y-79585000D01*
X124390000Y-76635000D02*
X123640000Y-76635000D01*
X123640000Y-76635000D02*
X123640000Y-79585000D01*
X123640000Y-79585000D02*
X119340000Y-79585000D01*
X116490000Y-74085000D02*
X113990000Y-74085000D01*
X113990000Y-74085000D02*
X113990000Y-76585000D01*
X125720000Y-41365000D02*
X125720000Y-47315000D01*
X125720000Y-47315000D02*
X135820000Y-47315000D01*
X135820000Y-47315000D02*
X135820000Y-41365000D01*
X135820000Y-41365000D02*
X125720000Y-41365000D01*
X129020000Y-41365000D02*
X129020000Y-42115000D01*
X129020000Y-42115000D02*
X132520000Y-42115000D01*
X132520000Y-42115000D02*
X132520000Y-41365000D01*
X132520000Y-41365000D02*
X129020000Y-41365000D01*
X125720000Y-41365000D02*
X125720000Y-42115000D01*
X125720000Y-42115000D02*
X127520000Y-42115000D01*
X127520000Y-42115000D02*
X127520000Y-41365000D01*
X127520000Y-41365000D02*
X125720000Y-41365000D01*
X134020000Y-41365000D02*
X134020000Y-42115000D01*
X134020000Y-42115000D02*
X135820000Y-42115000D01*
X135820000Y-42115000D02*
X135820000Y-41365000D01*
X135820000Y-41365000D02*
X134020000Y-41365000D01*
X125720000Y-43615000D02*
X126470000Y-43615000D01*
X126470000Y-43615000D02*
X126470000Y-46565000D01*
X126470000Y-46565000D02*
X130770000Y-46565000D01*
X135820000Y-43615000D02*
X135070000Y-43615000D01*
X135070000Y-43615000D02*
X135070000Y-46565000D01*
X135070000Y-46565000D02*
X130770000Y-46565000D01*
X127920000Y-41065000D02*
X125420000Y-41065000D01*
X125420000Y-41065000D02*
X125420000Y-43565000D01*
X125720000Y-49620000D02*
X125720000Y-55570000D01*
X125720000Y-55570000D02*
X135820000Y-55570000D01*
X135820000Y-55570000D02*
X135820000Y-49620000D01*
X135820000Y-49620000D02*
X125720000Y-49620000D01*
X129020000Y-49620000D02*
X129020000Y-50370000D01*
X129020000Y-50370000D02*
X132520000Y-50370000D01*
X132520000Y-50370000D02*
X132520000Y-49620000D01*
X132520000Y-49620000D02*
X129020000Y-49620000D01*
X125720000Y-49620000D02*
X125720000Y-50370000D01*
X125720000Y-50370000D02*
X127520000Y-50370000D01*
X127520000Y-50370000D02*
X127520000Y-49620000D01*
X127520000Y-49620000D02*
X125720000Y-49620000D01*
X134020000Y-49620000D02*
X134020000Y-50370000D01*
X134020000Y-50370000D02*
X135820000Y-50370000D01*
X135820000Y-50370000D02*
X135820000Y-49620000D01*
X135820000Y-49620000D02*
X134020000Y-49620000D01*
X125720000Y-51870000D02*
X126470000Y-51870000D01*
X126470000Y-51870000D02*
X126470000Y-54820000D01*
X126470000Y-54820000D02*
X130770000Y-54820000D01*
X135820000Y-51870000D02*
X135070000Y-51870000D01*
X135070000Y-51870000D02*
X135070000Y-54820000D01*
X135070000Y-54820000D02*
X130770000Y-54820000D01*
X127920000Y-49320000D02*
X125420000Y-49320000D01*
X125420000Y-49320000D02*
X125420000Y-51820000D01*
X125720000Y-57875000D02*
X125720000Y-63825000D01*
X125720000Y-63825000D02*
X135820000Y-63825000D01*
X135820000Y-63825000D02*
X135820000Y-57875000D01*
X135820000Y-57875000D02*
X125720000Y-57875000D01*
X129020000Y-57875000D02*
X129020000Y-58625000D01*
X129020000Y-58625000D02*
X132520000Y-58625000D01*
X132520000Y-58625000D02*
X132520000Y-57875000D01*
X132520000Y-57875000D02*
X129020000Y-57875000D01*
X125720000Y-57875000D02*
X125720000Y-58625000D01*
X125720000Y-58625000D02*
X127520000Y-58625000D01*
X127520000Y-58625000D02*
X127520000Y-57875000D01*
X127520000Y-57875000D02*
X125720000Y-57875000D01*
X134020000Y-57875000D02*
X134020000Y-58625000D01*
X134020000Y-58625000D02*
X135820000Y-58625000D01*
X135820000Y-58625000D02*
X135820000Y-57875000D01*
X135820000Y-57875000D02*
X134020000Y-57875000D01*
X125720000Y-60125000D02*
X126470000Y-60125000D01*
X126470000Y-60125000D02*
X126470000Y-63075000D01*
X126470000Y-63075000D02*
X130770000Y-63075000D01*
X135820000Y-60125000D02*
X135070000Y-60125000D01*
X135070000Y-60125000D02*
X135070000Y-63075000D01*
X135070000Y-63075000D02*
X130770000Y-63075000D01*
X127920000Y-57575000D02*
X125420000Y-57575000D01*
X125420000Y-57575000D02*
X125420000Y-60075000D01*
X125720000Y-66130000D02*
X125720000Y-72080000D01*
X125720000Y-72080000D02*
X135820000Y-72080000D01*
X135820000Y-72080000D02*
X135820000Y-66130000D01*
X135820000Y-66130000D02*
X125720000Y-66130000D01*
X129020000Y-66130000D02*
X129020000Y-66880000D01*
X129020000Y-66880000D02*
X132520000Y-66880000D01*
X132520000Y-66880000D02*
X132520000Y-66130000D01*
X132520000Y-66130000D02*
X129020000Y-66130000D01*
X125720000Y-66130000D02*
X125720000Y-66880000D01*
X125720000Y-66880000D02*
X127520000Y-66880000D01*
X127520000Y-66880000D02*
X127520000Y-66130000D01*
X127520000Y-66130000D02*
X125720000Y-66130000D01*
X134020000Y-66130000D02*
X134020000Y-66880000D01*
X134020000Y-66880000D02*
X135820000Y-66880000D01*
X135820000Y-66880000D02*
X135820000Y-66130000D01*
X135820000Y-66130000D02*
X134020000Y-66130000D01*
X125720000Y-68380000D02*
X126470000Y-68380000D01*
X126470000Y-68380000D02*
X126470000Y-71330000D01*
X126470000Y-71330000D02*
X130770000Y-71330000D01*
X135820000Y-68380000D02*
X135070000Y-68380000D01*
X135070000Y-68380000D02*
X135070000Y-71330000D01*
X135070000Y-71330000D02*
X130770000Y-71330000D01*
X127920000Y-65830000D02*
X125420000Y-65830000D01*
X125420000Y-65830000D02*
X125420000Y-68330000D01*
X125720000Y-74385000D02*
X125720000Y-80335000D01*
X125720000Y-80335000D02*
X135820000Y-80335000D01*
X135820000Y-80335000D02*
X135820000Y-74385000D01*
X135820000Y-74385000D02*
X125720000Y-74385000D01*
X129020000Y-74385000D02*
X129020000Y-75135000D01*
X129020000Y-75135000D02*
X132520000Y-75135000D01*
X132520000Y-75135000D02*
X132520000Y-74385000D01*
X132520000Y-74385000D02*
X129020000Y-74385000D01*
X125720000Y-74385000D02*
X125720000Y-75135000D01*
X125720000Y-75135000D02*
X127520000Y-75135000D01*
X127520000Y-75135000D02*
X127520000Y-74385000D01*
X127520000Y-74385000D02*
X125720000Y-74385000D01*
X134020000Y-74385000D02*
X134020000Y-75135000D01*
X134020000Y-75135000D02*
X135820000Y-75135000D01*
X135820000Y-75135000D02*
X135820000Y-74385000D01*
X135820000Y-74385000D02*
X134020000Y-74385000D01*
X125720000Y-76635000D02*
X126470000Y-76635000D01*
X126470000Y-76635000D02*
X126470000Y-79585000D01*
X126470000Y-79585000D02*
X130770000Y-79585000D01*
X135820000Y-76635000D02*
X135070000Y-76635000D01*
X135070000Y-76635000D02*
X135070000Y-79585000D01*
X135070000Y-79585000D02*
X130770000Y-79585000D01*
X127920000Y-74085000D02*
X125420000Y-74085000D01*
X125420000Y-74085000D02*
X125420000Y-76585000D01*
X135265000Y-116115000D02*
X135265000Y-110165000D01*
X135265000Y-110165000D02*
X127665000Y-110165000D01*
X127665000Y-110165000D02*
X127665000Y-116115000D01*
X127665000Y-116115000D02*
X135265000Y-116115000D01*
X131965000Y-116115000D02*
X131965000Y-115365000D01*
X131965000Y-115365000D02*
X130965000Y-115365000D01*
X130965000Y-115365000D02*
X130965000Y-116115000D01*
X130965000Y-116115000D02*
X131965000Y-116115000D01*
X135265000Y-116115000D02*
X135265000Y-115365000D01*
X135265000Y-115365000D02*
X133465000Y-115365000D01*
X133465000Y-115365000D02*
X133465000Y-116115000D01*
X133465000Y-116115000D02*
X135265000Y-116115000D01*
X129465000Y-116115000D02*
X129465000Y-115365000D01*
X129465000Y-115365000D02*
X127665000Y-115365000D01*
X127665000Y-115365000D02*
X127665000Y-116115000D01*
X127665000Y-116115000D02*
X129465000Y-116115000D01*
X135265000Y-113865000D02*
X134515000Y-113865000D01*
X134515000Y-113865000D02*
X134515000Y-110915000D01*
X134515000Y-110915000D02*
X131465000Y-110915000D01*
X127665000Y-113865000D02*
X128415000Y-113865000D01*
X128415000Y-113865000D02*
X128415000Y-110915000D01*
X128415000Y-110915000D02*
X131465000Y-110915000D01*
X133065000Y-116415000D02*
X135565000Y-116415000D01*
X135565000Y-116415000D02*
X135565000Y-113915000D01*
X146020000Y-116115000D02*
X146020000Y-110165000D01*
X146020000Y-110165000D02*
X138420000Y-110165000D01*
X138420000Y-110165000D02*
X138420000Y-116115000D01*
X138420000Y-116115000D02*
X146020000Y-116115000D01*
X142720000Y-116115000D02*
X142720000Y-115365000D01*
X142720000Y-115365000D02*
X141720000Y-115365000D01*
X141720000Y-115365000D02*
X141720000Y-116115000D01*
X141720000Y-116115000D02*
X142720000Y-116115000D01*
X146020000Y-116115000D02*
X146020000Y-115365000D01*
X146020000Y-115365000D02*
X144220000Y-115365000D01*
X144220000Y-115365000D02*
X144220000Y-116115000D01*
X144220000Y-116115000D02*
X146020000Y-116115000D01*
X140220000Y-116115000D02*
X140220000Y-115365000D01*
X140220000Y-115365000D02*
X138420000Y-115365000D01*
X138420000Y-115365000D02*
X138420000Y-116115000D01*
X138420000Y-116115000D02*
X140220000Y-116115000D01*
X146020000Y-113865000D02*
X145270000Y-113865000D01*
X145270000Y-113865000D02*
X145270000Y-110915000D01*
X145270000Y-110915000D02*
X142220000Y-110915000D01*
X138420000Y-113865000D02*
X139170000Y-113865000D01*
X139170000Y-113865000D02*
X139170000Y-110915000D01*
X139170000Y-110915000D02*
X142220000Y-110915000D01*
X143820000Y-116415000D02*
X146320000Y-116415000D01*
X146320000Y-116415000D02*
X146320000Y-113915000D01*
X150906000Y-47842000D02*
X150906000Y-53792000D01*
X150906000Y-53792000D02*
X158506000Y-53792000D01*
X158506000Y-53792000D02*
X158506000Y-47842000D01*
X158506000Y-47842000D02*
X150906000Y-47842000D01*
X154206000Y-47842000D02*
X154206000Y-48592000D01*
X154206000Y-48592000D02*
X155206000Y-48592000D01*
X155206000Y-48592000D02*
X155206000Y-47842000D01*
X155206000Y-47842000D02*
X154206000Y-47842000D01*
X150906000Y-47842000D02*
X150906000Y-48592000D01*
X150906000Y-48592000D02*
X152706000Y-48592000D01*
X152706000Y-48592000D02*
X152706000Y-47842000D01*
X152706000Y-47842000D02*
X150906000Y-47842000D01*
X156706000Y-47842000D02*
X156706000Y-48592000D01*
X156706000Y-48592000D02*
X158506000Y-48592000D01*
X158506000Y-48592000D02*
X158506000Y-47842000D01*
X158506000Y-47842000D02*
X156706000Y-47842000D01*
X150906000Y-50092000D02*
X151656000Y-50092000D01*
X151656000Y-50092000D02*
X151656000Y-53042000D01*
X151656000Y-53042000D02*
X154706000Y-53042000D01*
X158506000Y-50092000D02*
X157756000Y-50092000D01*
X157756000Y-50092000D02*
X157756000Y-53042000D01*
X157756000Y-53042000D02*
X154706000Y-53042000D01*
X153106000Y-47542000D02*
X150606000Y-47542000D01*
X150606000Y-47542000D02*
X150606000Y-50042000D01*
X138500000Y-47842000D02*
X138500000Y-53792000D01*
X138500000Y-53792000D02*
X148600000Y-53792000D01*
X148600000Y-53792000D02*
X148600000Y-47842000D01*
X148600000Y-47842000D02*
X138500000Y-47842000D01*
X141800000Y-47842000D02*
X141800000Y-48592000D01*
X141800000Y-48592000D02*
X145300000Y-48592000D01*
X145300000Y-48592000D02*
X145300000Y-47842000D01*
X145300000Y-47842000D02*
X141800000Y-47842000D01*
X138500000Y-47842000D02*
X138500000Y-48592000D01*
X138500000Y-48592000D02*
X140300000Y-48592000D01*
X140300000Y-48592000D02*
X140300000Y-47842000D01*
X140300000Y-47842000D02*
X138500000Y-47842000D01*
X146800000Y-47842000D02*
X146800000Y-48592000D01*
X146800000Y-48592000D02*
X148600000Y-48592000D01*
X148600000Y-48592000D02*
X148600000Y-47842000D01*
X148600000Y-47842000D02*
X146800000Y-47842000D01*
X138500000Y-50092000D02*
X139250000Y-50092000D01*
X139250000Y-50092000D02*
X139250000Y-53042000D01*
X139250000Y-53042000D02*
X143550000Y-53042000D01*
X148600000Y-50092000D02*
X147850000Y-50092000D01*
X147850000Y-50092000D02*
X147850000Y-53042000D01*
X147850000Y-53042000D02*
X143550000Y-53042000D01*
X140700000Y-47542000D02*
X138200000Y-47542000D01*
X138200000Y-47542000D02*
X138200000Y-50042000D01*
X90110000Y-110430000D02*
X90110000Y-113090000D01*
X107950000Y-110430000D02*
X90110000Y-110430000D01*
X107950000Y-113090000D02*
X90110000Y-113090000D01*
X107950000Y-110430000D02*
X107950000Y-113090000D01*
X109220000Y-110430000D02*
X110550000Y-110430000D01*
X110550000Y-110430000D02*
X110550000Y-111760000D01*
X93564000Y-35088000D02*
X93564000Y-34758000D01*
X93564000Y-34758000D02*
X99984000Y-34758000D01*
X99984000Y-34758000D02*
X99984000Y-35088000D01*
X93564000Y-37048000D02*
X93564000Y-37378000D01*
X93564000Y-37378000D02*
X99984000Y-37378000D01*
X99984000Y-37378000D02*
X99984000Y-37048000D01*
X93564000Y-38644000D02*
X93564000Y-38314000D01*
X93564000Y-38314000D02*
X99984000Y-38314000D01*
X99984000Y-38314000D02*
X99984000Y-38644000D01*
X93564000Y-40604000D02*
X93564000Y-40934000D01*
X93564000Y-40934000D02*
X99984000Y-40934000D01*
X99984000Y-40934000D02*
X99984000Y-40604000D01*
X111160000Y-40604000D02*
X111160000Y-40934000D01*
X111160000Y-40934000D02*
X104740000Y-40934000D01*
X104740000Y-40934000D02*
X104740000Y-40604000D01*
X111160000Y-38644000D02*
X111160000Y-38314000D01*
X111160000Y-38314000D02*
X104740000Y-38314000D01*
X104740000Y-38314000D02*
X104740000Y-38644000D01*
X111160000Y-37048000D02*
X111160000Y-37378000D01*
X111160000Y-37378000D02*
X104740000Y-37378000D01*
X104740000Y-37378000D02*
X104740000Y-37048000D01*
X111160000Y-35088000D02*
X111160000Y-34758000D01*
X111160000Y-34758000D02*
X104740000Y-34758000D01*
X104740000Y-34758000D02*
X104740000Y-35088000D01*
X129830000Y-88935000D02*
X129500000Y-88935000D01*
X129500000Y-88935000D02*
X129500000Y-82515000D01*
X129500000Y-82515000D02*
X129830000Y-82515000D01*
X131790000Y-88935000D02*
X132120000Y-88935000D01*
X132120000Y-88935000D02*
X132120000Y-82515000D01*
X132120000Y-82515000D02*
X131790000Y-82515000D01*
X135600000Y-82515000D02*
X135930000Y-82515000D01*
X135930000Y-82515000D02*
X135930000Y-88935000D01*
X135930000Y-88935000D02*
X135600000Y-88935000D01*
X133640000Y-82515000D02*
X133310000Y-82515000D01*
X133310000Y-82515000D02*
X133310000Y-88935000D01*
X133310000Y-88935000D02*
X133640000Y-88935000D01*
D14*
X155194000Y-110617000D02*
X155194000Y-110109000D01*
X155194000Y-110109000D02*
X155702000Y-110109000D01*
X155702000Y-110109000D02*
X155702000Y-110617000D01*
X152654000Y-110617000D02*
X152654000Y-110109000D01*
X152654000Y-110109000D02*
X154686000Y-110109000D01*
X154686000Y-110109000D02*
X154686000Y-110617000D01*
X150114000Y-110617000D02*
X150114000Y-110109000D01*
X150114000Y-110109000D02*
X152146000Y-110109000D01*
X152146000Y-110109000D02*
X152146000Y-110617000D01*
X149098000Y-110617000D02*
X149098000Y-110109000D01*
X149098000Y-110109000D02*
X149606000Y-110109000D01*
X149606000Y-110109000D02*
X149606000Y-110617000D01*
X149098000Y-117221000D02*
X149098000Y-110617000D01*
X149098000Y-110617000D02*
X155702000Y-110617000D01*
X155702000Y-110617000D02*
X155702000Y-117221000D01*
X155702000Y-117221000D02*
X149098000Y-117221000D01*
X152908000Y-112141000D02*
X152908000Y-113411000D01*
X152908000Y-113411000D02*
X154178000Y-113411000D01*
X150622000Y-113411000D02*
X151892000Y-113411000D01*
X151892000Y-113411000D02*
X151892000Y-112141000D01*
X151892000Y-115697000D02*
X151892000Y-114427000D01*
X151892000Y-114427000D02*
X150622000Y-114427000D01*
X154178000Y-114427000D02*
X152908000Y-114427000D01*
X152908000Y-114427000D02*
X152908000Y-115697000D01*
X154305000Y-113919000D02*
G75*
G03X154305000Y-113919000I-1905000J0D01*
G01*
D10*
X158750000Y-54356000D02*
X158750000Y-97536000D01*
X158750000Y-97536000D02*
X138430000Y-97536000D01*
X138430000Y-97536000D02*
X138430000Y-54356000D01*
X138430000Y-54356000D02*
X158750000Y-54356000D01*
D13*
X124470000Y-116242000D02*
X124470000Y-110292000D01*
X124470000Y-110292000D02*
X116870000Y-110292000D01*
X116870000Y-110292000D02*
X116870000Y-116242000D01*
X116870000Y-116242000D02*
X124470000Y-116242000D01*
X121170000Y-116242000D02*
X121170000Y-115492000D01*
X121170000Y-115492000D02*
X120170000Y-115492000D01*
X120170000Y-115492000D02*
X120170000Y-116242000D01*
X120170000Y-116242000D02*
X121170000Y-116242000D01*
X124470000Y-116242000D02*
X124470000Y-115492000D01*
X124470000Y-115492000D02*
X122670000Y-115492000D01*
X122670000Y-115492000D02*
X122670000Y-116242000D01*
X122670000Y-116242000D02*
X124470000Y-116242000D01*
X118670000Y-116242000D02*
X118670000Y-115492000D01*
X118670000Y-115492000D02*
X116870000Y-115492000D01*
X116870000Y-115492000D02*
X116870000Y-116242000D01*
X116870000Y-116242000D02*
X118670000Y-116242000D01*
X124470000Y-113992000D02*
X123720000Y-113992000D01*
X123720000Y-113992000D02*
X123720000Y-111042000D01*
X123720000Y-111042000D02*
X120670000Y-111042000D01*
X116870000Y-113992000D02*
X117620000Y-113992000D01*
X117620000Y-113992000D02*
X117620000Y-111042000D01*
X117620000Y-111042000D02*
X120670000Y-111042000D01*
X122270000Y-116542000D02*
X124770000Y-116542000D01*
X124770000Y-116542000D02*
X124770000Y-114042000D01*
X128274000Y-98578000D02*
X159258000Y-98579940D01*
X159258000Y-98578000D02*
X159258000Y-108178000D01*
X159258000Y-108178600D02*
X128274000Y-108178000D01*
X128274000Y-108178000D02*
X128274000Y-98578000D01*
X71290000Y-123130000D02*
X71290000Y-133410000D01*
X71290000Y-133410000D02*
X73950000Y-133410000D01*
X73950000Y-133410000D02*
X73950000Y-123130000D01*
X73950000Y-123130000D02*
X71290000Y-123130000D01*
X73950000Y-124080000D02*
X79950000Y-124080000D01*
X79950000Y-124080000D02*
X79950000Y-124840000D01*
X79950000Y-124840000D02*
X73950000Y-124840000D01*
X73950000Y-124140000D02*
X79950000Y-124140000D01*
X73950000Y-124260000D02*
X79950000Y-124260000D01*
X73950000Y-124380000D02*
X79950000Y-124380000D01*
X73950000Y-124500000D02*
X79950000Y-124500000D01*
X73950000Y-124620000D02*
X79950000Y-124620000D01*
X73950000Y-124740000D02*
X79950000Y-124740000D01*
X70960000Y-124080000D02*
X71290000Y-124080000D01*
X70960000Y-124840000D02*
X71290000Y-124840000D01*
X71290000Y-125730000D02*
X73950000Y-125730000D01*
X73950000Y-126620000D02*
X79950000Y-126620000D01*
X79950000Y-126620000D02*
X79950000Y-127380000D01*
X79950000Y-127380000D02*
X73950000Y-127380000D01*
X70892929Y-126620000D02*
X71290000Y-126620000D01*
X70892929Y-127380000D02*
X71290000Y-127380000D01*
X71290000Y-128270000D02*
X73950000Y-128270000D01*
X73950000Y-129160000D02*
X79950000Y-129160000D01*
X79950000Y-129160000D02*
X79950000Y-129920000D01*
X79950000Y-129920000D02*
X73950000Y-129920000D01*
X70892929Y-129160000D02*
X71290000Y-129160000D01*
X70892929Y-129920000D02*
X71290000Y-129920000D01*
X71290000Y-130810000D02*
X73950000Y-130810000D01*
X73950000Y-131700000D02*
X79950000Y-131700000D01*
X79950000Y-131700000D02*
X79950000Y-132460000D01*
X79950000Y-132460000D02*
X73950000Y-132460000D01*
X70892929Y-131700000D02*
X71290000Y-131700000D01*
X70892929Y-132460000D02*
X71290000Y-132460000D01*
X68580000Y-124460000D02*
X68580000Y-123190000D01*
X68580000Y-123190000D02*
X69850000Y-123190000D01*
X138460000Y-35396000D02*
X138460000Y-41346000D01*
X138460000Y-41346000D02*
X148560000Y-41346000D01*
X148560000Y-41346000D02*
X148560000Y-35396000D01*
X148560000Y-35396000D02*
X138460000Y-35396000D01*
X141760000Y-35396000D02*
X141760000Y-36146000D01*
X141760000Y-36146000D02*
X145260000Y-36146000D01*
X145260000Y-36146000D02*
X145260000Y-35396000D01*
X145260000Y-35396000D02*
X141760000Y-35396000D01*
X138460000Y-35396000D02*
X138460000Y-36146000D01*
X138460000Y-36146000D02*
X140260000Y-36146000D01*
X140260000Y-36146000D02*
X140260000Y-35396000D01*
X140260000Y-35396000D02*
X138460000Y-35396000D01*
X146760000Y-35396000D02*
X146760000Y-36146000D01*
X146760000Y-36146000D02*
X148560000Y-36146000D01*
X148560000Y-36146000D02*
X148560000Y-35396000D01*
X148560000Y-35396000D02*
X146760000Y-35396000D01*
X138460000Y-37646000D02*
X139210000Y-37646000D01*
X139210000Y-37646000D02*
X139210000Y-40596000D01*
X139210000Y-40596000D02*
X143510000Y-40596000D01*
X148560000Y-37646000D02*
X147810000Y-37646000D01*
X147810000Y-37646000D02*
X147810000Y-40596000D01*
X147810000Y-40596000D02*
X143510000Y-40596000D01*
X140660000Y-35096000D02*
X138160000Y-35096000D01*
X138160000Y-35096000D02*
X138160000Y-37596000D01*
X145380000Y-64044000D02*
X145380000Y-63714000D01*
X145380000Y-63714000D02*
X151800000Y-63714000D01*
X151800000Y-63714000D02*
X151800000Y-64044000D01*
X145380000Y-66004000D02*
X145380000Y-66334000D01*
X145380000Y-66334000D02*
X151800000Y-66334000D01*
X151800000Y-66334000D02*
X151800000Y-66004000D01*
X145380000Y-58964000D02*
X145380000Y-58634000D01*
X145380000Y-58634000D02*
X151800000Y-58634000D01*
X151800000Y-58634000D02*
X151800000Y-58964000D01*
X145380000Y-60924000D02*
X145380000Y-61254000D01*
X145380000Y-61254000D02*
X151800000Y-61254000D01*
X151800000Y-61254000D02*
X151800000Y-60924000D01*
X79847000Y-94707000D02*
X80177000Y-94707000D01*
X80177000Y-94707000D02*
X80177000Y-101127000D01*
X80177000Y-101127000D02*
X79847000Y-101127000D01*
X77887000Y-94707000D02*
X77557000Y-94707000D01*
X77557000Y-94707000D02*
X77557000Y-101127000D01*
X77557000Y-101127000D02*
X77887000Y-101127000D01*
X149493563Y-41261264D02*
G75*
G03X159291357Y-41258000I4898437J1383264D01*
G01*
X149493563Y-38494736D02*
G75*
G02X159291357Y-38498000I4898437J-1383264D01*
G01*
X149493563Y-38494736D02*
G75*
G03X149492643Y-41258000I4898437J-1383264D01*
G01*
X154392000Y-44928000D02*
X154392000Y-34828000D01*
X154352000Y-44928000D02*
X154352000Y-34828000D01*
X154312000Y-44928000D02*
X154312000Y-34828000D01*
X154272000Y-44927000D02*
X154272000Y-34829000D01*
X154232000Y-44926000D02*
X154232000Y-34830000D01*
X154192000Y-44925000D02*
X154192000Y-34831000D01*
X154152000Y-44923000D02*
X154152000Y-34833000D01*
X154112000Y-44921000D02*
X154112000Y-34835000D01*
X154072000Y-44918000D02*
X154072000Y-34838000D01*
X154032000Y-44916000D02*
X154032000Y-34840000D01*
X153992000Y-44913000D02*
X153992000Y-34843000D01*
X153952000Y-44909000D02*
X153952000Y-34847000D01*
X153912000Y-44906000D02*
X153912000Y-34850000D01*
X153872000Y-44902000D02*
X153872000Y-34854000D01*
X153832000Y-44898000D02*
X153832000Y-34858000D01*
X153792000Y-44893000D02*
X153792000Y-34863000D01*
X153752000Y-44888000D02*
X153752000Y-34868000D01*
X153712000Y-44883000D02*
X153712000Y-34873000D01*
X153671000Y-44877000D02*
X153671000Y-34879000D01*
X153631000Y-44871000D02*
X153631000Y-34885000D01*
X153591000Y-44865000D02*
X153591000Y-34891000D01*
X153551000Y-44859000D02*
X153551000Y-34897000D01*
X153511000Y-44852000D02*
X153511000Y-34904000D01*
X153471000Y-44845000D02*
X153471000Y-34911000D01*
X153431000Y-44837000D02*
X153431000Y-34919000D01*
X153391000Y-44829000D02*
X153391000Y-34927000D01*
X153351000Y-44821000D02*
X153351000Y-34935000D01*
X153311000Y-44813000D02*
X153311000Y-34943000D01*
X153271000Y-44804000D02*
X153271000Y-34952000D01*
X153231000Y-44795000D02*
X153231000Y-34961000D01*
X153191000Y-44785000D02*
X153191000Y-34971000D01*
X153151000Y-44775000D02*
X153151000Y-34981000D01*
X153111000Y-44765000D02*
X153111000Y-34991000D01*
X153071000Y-44754000D02*
X153071000Y-41059000D01*
X153071000Y-38697000D02*
X153071000Y-35002000D01*
X153031000Y-44743000D02*
X153031000Y-41059000D01*
X153031000Y-38697000D02*
X153031000Y-35013000D01*
X152991000Y-44732000D02*
X152991000Y-41059000D01*
X152991000Y-38697000D02*
X152991000Y-35024000D01*
X152951000Y-44721000D02*
X152951000Y-41059000D01*
X152951000Y-38697000D02*
X152951000Y-35035000D01*
X152911000Y-44709000D02*
X152911000Y-41059000D01*
X152911000Y-38697000D02*
X152911000Y-35047000D01*
X152871000Y-44696000D02*
X152871000Y-41059000D01*
X152871000Y-38697000D02*
X152871000Y-35060000D01*
X152831000Y-44684000D02*
X152831000Y-41059000D01*
X152831000Y-38697000D02*
X152831000Y-35072000D01*
X152791000Y-44670000D02*
X152791000Y-41059000D01*
X152791000Y-38697000D02*
X152791000Y-35086000D01*
X152751000Y-44657000D02*
X152751000Y-41059000D01*
X152751000Y-38697000D02*
X152751000Y-35099000D01*
X152711000Y-44643000D02*
X152711000Y-41059000D01*
X152711000Y-38697000D02*
X152711000Y-35113000D01*
X152671000Y-44629000D02*
X152671000Y-41059000D01*
X152671000Y-38697000D02*
X152671000Y-35127000D01*
X152631000Y-44615000D02*
X152631000Y-41059000D01*
X152631000Y-38697000D02*
X152631000Y-35141000D01*
X152591000Y-44600000D02*
X152591000Y-41059000D01*
X152591000Y-38697000D02*
X152591000Y-35156000D01*
X152551000Y-44584000D02*
X152551000Y-41059000D01*
X152551000Y-38697000D02*
X152551000Y-35172000D01*
X152511000Y-44569000D02*
X152511000Y-41059000D01*
X152511000Y-38697000D02*
X152511000Y-35187000D01*
X152471000Y-44552000D02*
X152471000Y-41059000D01*
X152471000Y-38697000D02*
X152471000Y-35204000D01*
X152431000Y-44536000D02*
X152431000Y-41059000D01*
X152431000Y-38697000D02*
X152431000Y-35220000D01*
X152391000Y-44519000D02*
X152391000Y-41059000D01*
X152391000Y-38697000D02*
X152391000Y-35237000D01*
X152351000Y-44502000D02*
X152351000Y-41059000D01*
X152351000Y-38697000D02*
X152351000Y-35254000D01*
X152311000Y-44484000D02*
X152311000Y-41059000D01*
X152311000Y-38697000D02*
X152311000Y-35272000D01*
X152271000Y-44466000D02*
X152271000Y-41059000D01*
X152271000Y-38697000D02*
X152271000Y-35290000D01*
X152231000Y-44447000D02*
X152231000Y-41059000D01*
X152231000Y-38697000D02*
X152231000Y-35309000D01*
X152191000Y-44428000D02*
X152191000Y-41059000D01*
X152191000Y-38697000D02*
X152191000Y-35328000D01*
X152151000Y-44409000D02*
X152151000Y-41059000D01*
X152151000Y-38697000D02*
X152151000Y-35347000D01*
X152111000Y-44389000D02*
X152111000Y-41059000D01*
X152111000Y-38697000D02*
X152111000Y-35367000D01*
X152071000Y-44369000D02*
X152071000Y-41059000D01*
X152071000Y-38697000D02*
X152071000Y-35387000D01*
X152031000Y-44348000D02*
X152031000Y-41059000D01*
X152031000Y-38697000D02*
X152031000Y-35408000D01*
X151991000Y-44327000D02*
X151991000Y-41059000D01*
X151991000Y-38697000D02*
X151991000Y-35429000D01*
X151951000Y-44306000D02*
X151951000Y-41059000D01*
X151951000Y-38697000D02*
X151951000Y-35450000D01*
X151911000Y-44283000D02*
X151911000Y-41059000D01*
X151911000Y-38697000D02*
X151911000Y-35473000D01*
X151871000Y-44261000D02*
X151871000Y-41059000D01*
X151871000Y-38697000D02*
X151871000Y-35495000D01*
X151831000Y-44238000D02*
X151831000Y-41059000D01*
X151831000Y-38697000D02*
X151831000Y-35518000D01*
X151791000Y-44214000D02*
X151791000Y-41059000D01*
X151791000Y-38697000D02*
X151791000Y-35542000D01*
X151751000Y-44190000D02*
X151751000Y-41059000D01*
X151751000Y-38697000D02*
X151751000Y-35566000D01*
X151711000Y-44166000D02*
X151711000Y-41059000D01*
X151711000Y-38697000D02*
X151711000Y-35590000D01*
X151671000Y-44141000D02*
X151671000Y-41059000D01*
X151671000Y-38697000D02*
X151671000Y-35615000D01*
X151631000Y-44115000D02*
X151631000Y-41059000D01*
X151631000Y-38697000D02*
X151631000Y-35641000D01*
X151591000Y-44089000D02*
X151591000Y-41059000D01*
X151591000Y-38697000D02*
X151591000Y-35667000D01*
X151551000Y-44063000D02*
X151551000Y-41059000D01*
X151551000Y-38697000D02*
X151551000Y-35693000D01*
X151511000Y-44035000D02*
X151511000Y-41059000D01*
X151511000Y-38697000D02*
X151511000Y-35721000D01*
X151471000Y-44008000D02*
X151471000Y-41059000D01*
X151471000Y-38697000D02*
X151471000Y-35748000D01*
X151431000Y-43979000D02*
X151431000Y-41059000D01*
X151431000Y-38697000D02*
X151431000Y-35777000D01*
X151391000Y-43950000D02*
X151391000Y-41059000D01*
X151391000Y-38697000D02*
X151391000Y-35806000D01*
X151351000Y-43921000D02*
X151351000Y-41059000D01*
X151351000Y-38697000D02*
X151351000Y-35835000D01*
X151311000Y-43891000D02*
X151311000Y-41059000D01*
X151311000Y-38697000D02*
X151311000Y-35865000D01*
X151271000Y-43860000D02*
X151271000Y-41059000D01*
X151271000Y-38697000D02*
X151271000Y-35896000D01*
X151231000Y-43829000D02*
X151231000Y-41059000D01*
X151231000Y-38697000D02*
X151231000Y-35927000D01*
X151191000Y-43797000D02*
X151191000Y-41059000D01*
X151191000Y-38697000D02*
X151191000Y-35959000D01*
X151151000Y-43764000D02*
X151151000Y-41059000D01*
X151151000Y-38697000D02*
X151151000Y-35992000D01*
X151111000Y-43731000D02*
X151111000Y-41059000D01*
X151111000Y-38697000D02*
X151111000Y-36025000D01*
X151071000Y-43697000D02*
X151071000Y-41059000D01*
X151071000Y-38697000D02*
X151071000Y-36059000D01*
X151031000Y-43662000D02*
X151031000Y-41059000D01*
X151031000Y-38697000D02*
X151031000Y-36094000D01*
X150991000Y-43626000D02*
X150991000Y-41059000D01*
X150991000Y-38697000D02*
X150991000Y-36130000D01*
X150951000Y-43590000D02*
X150951000Y-41059000D01*
X150951000Y-38697000D02*
X150951000Y-36166000D01*
X150911000Y-43553000D02*
X150911000Y-41059000D01*
X150911000Y-38697000D02*
X150911000Y-36203000D01*
X150871000Y-43515000D02*
X150871000Y-41059000D01*
X150871000Y-38697000D02*
X150871000Y-36241000D01*
X150831000Y-43476000D02*
X150831000Y-41059000D01*
X150831000Y-38697000D02*
X150831000Y-36280000D01*
X150791000Y-43437000D02*
X150791000Y-41059000D01*
X150791000Y-38697000D02*
X150791000Y-36319000D01*
X150751000Y-43396000D02*
X150751000Y-41059000D01*
X150751000Y-38697000D02*
X150751000Y-36360000D01*
X150711000Y-43355000D02*
X150711000Y-36401000D01*
X150671000Y-43313000D02*
X150671000Y-36443000D01*
X150631000Y-43269000D02*
X150631000Y-36487000D01*
X150591000Y-43225000D02*
X150591000Y-36531000D01*
X150551000Y-43180000D02*
X150551000Y-36576000D01*
X150511000Y-43133000D02*
X150511000Y-36623000D01*
X150471000Y-43085000D02*
X150471000Y-36671000D01*
X150431000Y-43036000D02*
X150431000Y-36720000D01*
X150391000Y-42986000D02*
X150391000Y-36770000D01*
X150351000Y-42935000D02*
X150351000Y-36821000D01*
X150311000Y-42882000D02*
X150311000Y-36874000D01*
X150271000Y-42827000D02*
X150271000Y-36929000D01*
X150231000Y-42772000D02*
X150231000Y-36984000D01*
X150191000Y-42714000D02*
X150191000Y-37042000D01*
X150151000Y-42655000D02*
X150151000Y-37101000D01*
X150111000Y-42593000D02*
X150111000Y-37163000D01*
X150071000Y-42530000D02*
X150071000Y-37226000D01*
X150031000Y-42465000D02*
X150031000Y-37291000D01*
X149991000Y-42397000D02*
X149991000Y-37359000D01*
X149951000Y-42327000D02*
X149951000Y-37429000D01*
X149911000Y-42255000D02*
X149911000Y-37501000D01*
X149871000Y-42179000D02*
X149871000Y-37577000D01*
X149831000Y-42100000D02*
X149831000Y-37656000D01*
X149791000Y-42018000D02*
X149791000Y-37738000D01*
X149751000Y-41931000D02*
X149751000Y-37825000D01*
X149711000Y-41840000D02*
X149711000Y-37916000D01*
X149671000Y-41744000D02*
X149671000Y-38012000D01*
X149631000Y-41641000D02*
X149631000Y-38115000D01*
X149591000Y-41532000D02*
X149591000Y-38224000D01*
X149551000Y-41414000D02*
X149551000Y-38342000D01*
X149511000Y-41285000D02*
X149511000Y-38471000D01*
X149471000Y-41143000D02*
X149471000Y-38613000D01*
X149431000Y-40982000D02*
X149431000Y-38774000D01*
X149391000Y-40791000D02*
X149391000Y-38965000D01*
X149351000Y-40550000D02*
X149351000Y-39206000D01*
X149311000Y-40157000D02*
X149311000Y-39599000D01*
X159592000Y-39878000D02*
X158092000Y-39878000D01*
X158842000Y-40628000D02*
X158842000Y-39128000D01*
D10*
X68262667Y-36012381D02*
X67929333Y-35536190D01*
X67691238Y-36012381D02*
X67691238Y-35012381D01*
X68072191Y-35012381D01*
X68167429Y-35060000D01*
X68215048Y-35107619D01*
X68262667Y-35202857D01*
X68262667Y-35345714D01*
X68215048Y-35440952D01*
X68167429Y-35488571D01*
X68072191Y-35536190D01*
X67691238Y-35536190D01*
X68691238Y-35488571D02*
X69024572Y-35488571D01*
X69167429Y-36012381D02*
X68691238Y-36012381D01*
X68691238Y-35012381D01*
X69167429Y-35012381D01*
X69929334Y-35488571D02*
X69596000Y-35488571D01*
X69596000Y-36012381D02*
X69596000Y-35012381D01*
X70072191Y-35012381D01*
X70596000Y-35012381D02*
X70596000Y-35250476D01*
X70357905Y-35155238D02*
X70596000Y-35250476D01*
X70834096Y-35155238D01*
X70453143Y-35440952D02*
X70596000Y-35250476D01*
X70738858Y-35440952D01*
X71357905Y-35012381D02*
X71357905Y-35250476D01*
X71119810Y-35155238D02*
X71357905Y-35250476D01*
X71596001Y-35155238D01*
X71215048Y-35440952D02*
X71357905Y-35250476D01*
X71500763Y-35440952D01*
X68262667Y-134936381D02*
X67929333Y-134460190D01*
X67691238Y-134936381D02*
X67691238Y-133936381D01*
X68072191Y-133936381D01*
X68167429Y-133984000D01*
X68215048Y-134031619D01*
X68262667Y-134126857D01*
X68262667Y-134269714D01*
X68215048Y-134364952D01*
X68167429Y-134412571D01*
X68072191Y-134460190D01*
X67691238Y-134460190D01*
X68691238Y-134412571D02*
X69024572Y-134412571D01*
X69167429Y-134936381D02*
X68691238Y-134936381D01*
X68691238Y-133936381D01*
X69167429Y-133936381D01*
X69929334Y-134412571D02*
X69596000Y-134412571D01*
X69596000Y-134936381D02*
X69596000Y-133936381D01*
X70072191Y-133936381D01*
X70596000Y-133936381D02*
X70596000Y-134174476D01*
X70357905Y-134079238D02*
X70596000Y-134174476D01*
X70834096Y-134079238D01*
X70453143Y-134364952D02*
X70596000Y-134174476D01*
X70738858Y-134364952D01*
X71357905Y-133936381D02*
X71357905Y-134174476D01*
X71119810Y-134079238D02*
X71357905Y-134174476D01*
X71596001Y-134079238D01*
X71215048Y-134364952D02*
X71357905Y-134174476D01*
X71500763Y-134364952D01*
X67397381Y-96646905D02*
X68206905Y-96646905D01*
X68302143Y-96599286D01*
X68349762Y-96551667D01*
X68397381Y-96456429D01*
X68397381Y-96265952D01*
X68349762Y-96170714D01*
X68302143Y-96123095D01*
X68206905Y-96075476D01*
X67397381Y-96075476D01*
X68397381Y-95075476D02*
X68397381Y-95646905D01*
X68397381Y-95361191D02*
X67397381Y-95361191D01*
X67540238Y-95456429D01*
X67635476Y-95551667D01*
X67683095Y-95646905D01*
X120277143Y-103027857D02*
X123277143Y-102313571D01*
X121134286Y-101742142D01*
X123277143Y-101170714D01*
X120277143Y-100456428D01*
X123134286Y-98170714D02*
X123277143Y-98456428D01*
X123277143Y-99027857D01*
X123134286Y-99313571D01*
X122848571Y-99456428D01*
X121705714Y-99456428D01*
X121420000Y-99313571D01*
X121277143Y-99027857D01*
X121277143Y-98456428D01*
X121420000Y-98170714D01*
X121705714Y-98027857D01*
X121991429Y-98027857D01*
X122277143Y-99456428D01*
X123277143Y-96742142D02*
X121277143Y-96742142D01*
X121562857Y-96742142D02*
X121420000Y-96599285D01*
X121277143Y-96313571D01*
X121277143Y-95884999D01*
X121420000Y-95599285D01*
X121705714Y-95456428D01*
X123277143Y-95456428D01*
X121705714Y-95456428D02*
X121420000Y-95313571D01*
X121277143Y-95027857D01*
X121277143Y-94599285D01*
X121420000Y-94313571D01*
X121705714Y-94170714D01*
X123277143Y-94170714D01*
X123277143Y-92313571D02*
X123134286Y-92599285D01*
X122991429Y-92742142D01*
X122705714Y-92884999D01*
X121848571Y-92884999D01*
X121562857Y-92742142D01*
X121420000Y-92599285D01*
X121277143Y-92313571D01*
X121277143Y-91884999D01*
X121420000Y-91599285D01*
X121562857Y-91456428D01*
X121848571Y-91313571D01*
X122705714Y-91313571D01*
X122991429Y-91456428D01*
X123134286Y-91599285D01*
X123277143Y-91884999D01*
X123277143Y-92313571D01*
X123134286Y-90170713D02*
X123277143Y-89884999D01*
X123277143Y-89313571D01*
X123134286Y-89027856D01*
X122848571Y-88884999D01*
X122705714Y-88884999D01*
X122420000Y-89027856D01*
X122277143Y-89313571D01*
X122277143Y-89742142D01*
X122134286Y-90027856D01*
X121848571Y-90170713D01*
X121705714Y-90170713D01*
X121420000Y-90027856D01*
X121277143Y-89742142D01*
X121277143Y-89313571D01*
X121420000Y-89027856D01*
X95959705Y-41346381D02*
X95959705Y-40346381D01*
X96197800Y-40346381D01*
X96340658Y-40394000D01*
X96435896Y-40489238D01*
X96483515Y-40584476D01*
X96531134Y-40774952D01*
X96531134Y-40917810D01*
X96483515Y-41108286D01*
X96435896Y-41203524D01*
X96340658Y-41298762D01*
X96197800Y-41346381D01*
X95959705Y-41346381D01*
X97483515Y-41346381D02*
X96912086Y-41346381D01*
X97197800Y-41346381D02*
X97197800Y-40346381D01*
X97102562Y-40489238D01*
X97007324Y-40584476D01*
X96912086Y-40632095D01*
X96061305Y-49398181D02*
X96061305Y-48398181D01*
X96299400Y-48398181D01*
X96442258Y-48445800D01*
X96537496Y-48541038D01*
X96585115Y-48636276D01*
X96632734Y-48826752D01*
X96632734Y-48969610D01*
X96585115Y-49160086D01*
X96537496Y-49255324D01*
X96442258Y-49350562D01*
X96299400Y-49398181D01*
X96061305Y-49398181D01*
X97013686Y-48493419D02*
X97061305Y-48445800D01*
X97156543Y-48398181D01*
X97394639Y-48398181D01*
X97489877Y-48445800D01*
X97537496Y-48493419D01*
X97585115Y-48588657D01*
X97585115Y-48683895D01*
X97537496Y-48826752D01*
X96966067Y-49398181D01*
X97585115Y-49398181D01*
X96035905Y-57602381D02*
X96035905Y-56602381D01*
X96274000Y-56602381D01*
X96416858Y-56650000D01*
X96512096Y-56745238D01*
X96559715Y-56840476D01*
X96607334Y-57030952D01*
X96607334Y-57173810D01*
X96559715Y-57364286D01*
X96512096Y-57459524D01*
X96416858Y-57554762D01*
X96274000Y-57602381D01*
X96035905Y-57602381D01*
X96940667Y-56602381D02*
X97559715Y-56602381D01*
X97226381Y-56983333D01*
X97369239Y-56983333D01*
X97464477Y-57030952D01*
X97512096Y-57078571D01*
X97559715Y-57173810D01*
X97559715Y-57411905D01*
X97512096Y-57507143D01*
X97464477Y-57554762D01*
X97369239Y-57602381D01*
X97083524Y-57602381D01*
X96988286Y-57554762D01*
X96940667Y-57507143D01*
X96035905Y-65679581D02*
X96035905Y-64679581D01*
X96274000Y-64679581D01*
X96416858Y-64727200D01*
X96512096Y-64822438D01*
X96559715Y-64917676D01*
X96607334Y-65108152D01*
X96607334Y-65251010D01*
X96559715Y-65441486D01*
X96512096Y-65536724D01*
X96416858Y-65631962D01*
X96274000Y-65679581D01*
X96035905Y-65679581D01*
X97464477Y-65012914D02*
X97464477Y-65679581D01*
X97226381Y-64631962D02*
X96988286Y-65346248D01*
X97607334Y-65346248D01*
X95934305Y-73807581D02*
X95934305Y-72807581D01*
X96172400Y-72807581D01*
X96315258Y-72855200D01*
X96410496Y-72950438D01*
X96458115Y-73045676D01*
X96505734Y-73236152D01*
X96505734Y-73379010D01*
X96458115Y-73569486D01*
X96410496Y-73664724D01*
X96315258Y-73759962D01*
X96172400Y-73807581D01*
X95934305Y-73807581D01*
X97410496Y-72807581D02*
X96934305Y-72807581D01*
X96886686Y-73283771D01*
X96934305Y-73236152D01*
X97029543Y-73188533D01*
X97267639Y-73188533D01*
X97362877Y-73236152D01*
X97410496Y-73283771D01*
X97458115Y-73379010D01*
X97458115Y-73617105D01*
X97410496Y-73712343D01*
X97362877Y-73759962D01*
X97267639Y-73807581D01*
X97029543Y-73807581D01*
X96934305Y-73759962D01*
X96886686Y-73712343D01*
X96086705Y-45410381D02*
X96086705Y-44410381D01*
X96324800Y-44410381D01*
X96467658Y-44458000D01*
X96562896Y-44553238D01*
X96610515Y-44648476D01*
X96658134Y-44838952D01*
X96658134Y-44981810D01*
X96610515Y-45172286D01*
X96562896Y-45267524D01*
X96467658Y-45362762D01*
X96324800Y-45410381D01*
X96086705Y-45410381D01*
X97515277Y-44410381D02*
X97324800Y-44410381D01*
X97229562Y-44458000D01*
X97181943Y-44505619D01*
X97086705Y-44648476D01*
X97039086Y-44838952D01*
X97039086Y-45219905D01*
X97086705Y-45315143D01*
X97134324Y-45362762D01*
X97229562Y-45410381D01*
X97420039Y-45410381D01*
X97515277Y-45362762D01*
X97562896Y-45315143D01*
X97610515Y-45219905D01*
X97610515Y-44981810D01*
X97562896Y-44886571D01*
X97515277Y-44838952D01*
X97420039Y-44791333D01*
X97229562Y-44791333D01*
X97134324Y-44838952D01*
X97086705Y-44886571D01*
X97039086Y-44981810D01*
X96035905Y-53538381D02*
X96035905Y-52538381D01*
X96274000Y-52538381D01*
X96416858Y-52586000D01*
X96512096Y-52681238D01*
X96559715Y-52776476D01*
X96607334Y-52966952D01*
X96607334Y-53109810D01*
X96559715Y-53300286D01*
X96512096Y-53395524D01*
X96416858Y-53490762D01*
X96274000Y-53538381D01*
X96035905Y-53538381D01*
X96940667Y-52538381D02*
X97607334Y-52538381D01*
X97178762Y-53538381D01*
X96035905Y-61920381D02*
X96035905Y-60920381D01*
X96274000Y-60920381D01*
X96416858Y-60968000D01*
X96512096Y-61063238D01*
X96559715Y-61158476D01*
X96607334Y-61348952D01*
X96607334Y-61491810D01*
X96559715Y-61682286D01*
X96512096Y-61777524D01*
X96416858Y-61872762D01*
X96274000Y-61920381D01*
X96035905Y-61920381D01*
X97178762Y-61348952D02*
X97083524Y-61301333D01*
X97035905Y-61253714D01*
X96988286Y-61158476D01*
X96988286Y-61110857D01*
X97035905Y-61015619D01*
X97083524Y-60968000D01*
X97178762Y-60920381D01*
X97369239Y-60920381D01*
X97464477Y-60968000D01*
X97512096Y-61015619D01*
X97559715Y-61110857D01*
X97559715Y-61158476D01*
X97512096Y-61253714D01*
X97464477Y-61301333D01*
X97369239Y-61348952D01*
X97178762Y-61348952D01*
X97083524Y-61396571D01*
X97035905Y-61444190D01*
X96988286Y-61539429D01*
X96988286Y-61729905D01*
X97035905Y-61825143D01*
X97083524Y-61872762D01*
X97178762Y-61920381D01*
X97369239Y-61920381D01*
X97464477Y-61872762D01*
X97512096Y-61825143D01*
X97559715Y-61729905D01*
X97559715Y-61539429D01*
X97512096Y-61444190D01*
X97464477Y-61396571D01*
X97369239Y-61348952D01*
X96035905Y-69743581D02*
X96035905Y-68743581D01*
X96274000Y-68743581D01*
X96416858Y-68791200D01*
X96512096Y-68886438D01*
X96559715Y-68981676D01*
X96607334Y-69172152D01*
X96607334Y-69315010D01*
X96559715Y-69505486D01*
X96512096Y-69600724D01*
X96416858Y-69695962D01*
X96274000Y-69743581D01*
X96035905Y-69743581D01*
X97083524Y-69743581D02*
X97274000Y-69743581D01*
X97369239Y-69695962D01*
X97416858Y-69648343D01*
X97512096Y-69505486D01*
X97559715Y-69315010D01*
X97559715Y-68934057D01*
X97512096Y-68838819D01*
X97464477Y-68791200D01*
X97369239Y-68743581D01*
X97178762Y-68743581D01*
X97083524Y-68791200D01*
X97035905Y-68838819D01*
X96988286Y-68934057D01*
X96988286Y-69172152D01*
X97035905Y-69267390D01*
X97083524Y-69315010D01*
X97178762Y-69362629D01*
X97369239Y-69362629D01*
X97464477Y-69315010D01*
X97512096Y-69267390D01*
X97559715Y-69172152D01*
X95559714Y-77871581D02*
X95559714Y-76871581D01*
X95797809Y-76871581D01*
X95940667Y-76919200D01*
X96035905Y-77014438D01*
X96083524Y-77109676D01*
X96131143Y-77300152D01*
X96131143Y-77443010D01*
X96083524Y-77633486D01*
X96035905Y-77728724D01*
X95940667Y-77823962D01*
X95797809Y-77871581D01*
X95559714Y-77871581D01*
X97083524Y-77871581D02*
X96512095Y-77871581D01*
X96797809Y-77871581D02*
X96797809Y-76871581D01*
X96702571Y-77014438D01*
X96607333Y-77109676D01*
X96512095Y-77157295D01*
X97702571Y-76871581D02*
X97797810Y-76871581D01*
X97893048Y-76919200D01*
X97940667Y-76966819D01*
X97988286Y-77062057D01*
X98035905Y-77252533D01*
X98035905Y-77490629D01*
X97988286Y-77681105D01*
X97940667Y-77776343D01*
X97893048Y-77823962D01*
X97797810Y-77871581D01*
X97702571Y-77871581D01*
X97607333Y-77823962D01*
X97559714Y-77776343D01*
X97512095Y-77681105D01*
X97464476Y-77490629D01*
X97464476Y-77252533D01*
X97512095Y-77062057D01*
X97559714Y-76966819D01*
X97607333Y-76919200D01*
X97702571Y-76871581D01*
X106735714Y-41318381D02*
X106735714Y-40318381D01*
X106973809Y-40318381D01*
X107116667Y-40366000D01*
X107211905Y-40461238D01*
X107259524Y-40556476D01*
X107307143Y-40746952D01*
X107307143Y-40889810D01*
X107259524Y-41080286D01*
X107211905Y-41175524D01*
X107116667Y-41270762D01*
X106973809Y-41318381D01*
X106735714Y-41318381D01*
X108259524Y-41318381D02*
X107688095Y-41318381D01*
X107973809Y-41318381D02*
X107973809Y-40318381D01*
X107878571Y-40461238D01*
X107783333Y-40556476D01*
X107688095Y-40604095D01*
X109211905Y-41318381D02*
X108640476Y-41318381D01*
X108926190Y-41318381D02*
X108926190Y-40318381D01*
X108830952Y-40461238D01*
X108735714Y-40556476D01*
X108640476Y-40604095D01*
X106735714Y-49192381D02*
X106735714Y-48192381D01*
X106973809Y-48192381D01*
X107116667Y-48240000D01*
X107211905Y-48335238D01*
X107259524Y-48430476D01*
X107307143Y-48620952D01*
X107307143Y-48763810D01*
X107259524Y-48954286D01*
X107211905Y-49049524D01*
X107116667Y-49144762D01*
X106973809Y-49192381D01*
X106735714Y-49192381D01*
X108259524Y-49192381D02*
X107688095Y-49192381D01*
X107973809Y-49192381D02*
X107973809Y-48192381D01*
X107878571Y-48335238D01*
X107783333Y-48430476D01*
X107688095Y-48478095D01*
X108640476Y-48287619D02*
X108688095Y-48240000D01*
X108783333Y-48192381D01*
X109021429Y-48192381D01*
X109116667Y-48240000D01*
X109164286Y-48287619D01*
X109211905Y-48382857D01*
X109211905Y-48478095D01*
X109164286Y-48620952D01*
X108592857Y-49192381D01*
X109211905Y-49192381D01*
X106735714Y-57320381D02*
X106735714Y-56320381D01*
X106973809Y-56320381D01*
X107116667Y-56368000D01*
X107211905Y-56463238D01*
X107259524Y-56558476D01*
X107307143Y-56748952D01*
X107307143Y-56891810D01*
X107259524Y-57082286D01*
X107211905Y-57177524D01*
X107116667Y-57272762D01*
X106973809Y-57320381D01*
X106735714Y-57320381D01*
X108259524Y-57320381D02*
X107688095Y-57320381D01*
X107973809Y-57320381D02*
X107973809Y-56320381D01*
X107878571Y-56463238D01*
X107783333Y-56558476D01*
X107688095Y-56606095D01*
X108592857Y-56320381D02*
X109211905Y-56320381D01*
X108878571Y-56701333D01*
X109021429Y-56701333D01*
X109116667Y-56748952D01*
X109164286Y-56796571D01*
X109211905Y-56891810D01*
X109211905Y-57129905D01*
X109164286Y-57225143D01*
X109116667Y-57272762D01*
X109021429Y-57320381D01*
X108735714Y-57320381D01*
X108640476Y-57272762D01*
X108592857Y-57225143D01*
X106735714Y-65448381D02*
X106735714Y-64448381D01*
X106973809Y-64448381D01*
X107116667Y-64496000D01*
X107211905Y-64591238D01*
X107259524Y-64686476D01*
X107307143Y-64876952D01*
X107307143Y-65019810D01*
X107259524Y-65210286D01*
X107211905Y-65305524D01*
X107116667Y-65400762D01*
X106973809Y-65448381D01*
X106735714Y-65448381D01*
X108259524Y-65448381D02*
X107688095Y-65448381D01*
X107973809Y-65448381D02*
X107973809Y-64448381D01*
X107878571Y-64591238D01*
X107783333Y-64686476D01*
X107688095Y-64734095D01*
X109116667Y-64781714D02*
X109116667Y-65448381D01*
X108878571Y-64400762D02*
X108640476Y-65115048D01*
X109259524Y-65115048D01*
X106735714Y-73576381D02*
X106735714Y-72576381D01*
X106973809Y-72576381D01*
X107116667Y-72624000D01*
X107211905Y-72719238D01*
X107259524Y-72814476D01*
X107307143Y-73004952D01*
X107307143Y-73147810D01*
X107259524Y-73338286D01*
X107211905Y-73433524D01*
X107116667Y-73528762D01*
X106973809Y-73576381D01*
X106735714Y-73576381D01*
X108259524Y-73576381D02*
X107688095Y-73576381D01*
X107973809Y-73576381D02*
X107973809Y-72576381D01*
X107878571Y-72719238D01*
X107783333Y-72814476D01*
X107688095Y-72862095D01*
X109164286Y-72576381D02*
X108688095Y-72576381D01*
X108640476Y-73052571D01*
X108688095Y-73004952D01*
X108783333Y-72957333D01*
X109021429Y-72957333D01*
X109116667Y-73004952D01*
X109164286Y-73052571D01*
X109211905Y-73147810D01*
X109211905Y-73385905D01*
X109164286Y-73481143D01*
X109116667Y-73528762D01*
X109021429Y-73576381D01*
X108783333Y-73576381D01*
X108688095Y-73528762D01*
X108640476Y-73481143D01*
X106735714Y-45128381D02*
X106735714Y-44128381D01*
X106973809Y-44128381D01*
X107116667Y-44176000D01*
X107211905Y-44271238D01*
X107259524Y-44366476D01*
X107307143Y-44556952D01*
X107307143Y-44699810D01*
X107259524Y-44890286D01*
X107211905Y-44985524D01*
X107116667Y-45080762D01*
X106973809Y-45128381D01*
X106735714Y-45128381D01*
X108259524Y-45128381D02*
X107688095Y-45128381D01*
X107973809Y-45128381D02*
X107973809Y-44128381D01*
X107878571Y-44271238D01*
X107783333Y-44366476D01*
X107688095Y-44414095D01*
X109116667Y-44128381D02*
X108926190Y-44128381D01*
X108830952Y-44176000D01*
X108783333Y-44223619D01*
X108688095Y-44366476D01*
X108640476Y-44556952D01*
X108640476Y-44937905D01*
X108688095Y-45033143D01*
X108735714Y-45080762D01*
X108830952Y-45128381D01*
X109021429Y-45128381D01*
X109116667Y-45080762D01*
X109164286Y-45033143D01*
X109211905Y-44937905D01*
X109211905Y-44699810D01*
X109164286Y-44604571D01*
X109116667Y-44556952D01*
X109021429Y-44509333D01*
X108830952Y-44509333D01*
X108735714Y-44556952D01*
X108688095Y-44604571D01*
X108640476Y-44699810D01*
X106735714Y-53256381D02*
X106735714Y-52256381D01*
X106973809Y-52256381D01*
X107116667Y-52304000D01*
X107211905Y-52399238D01*
X107259524Y-52494476D01*
X107307143Y-52684952D01*
X107307143Y-52827810D01*
X107259524Y-53018286D01*
X107211905Y-53113524D01*
X107116667Y-53208762D01*
X106973809Y-53256381D01*
X106735714Y-53256381D01*
X108259524Y-53256381D02*
X107688095Y-53256381D01*
X107973809Y-53256381D02*
X107973809Y-52256381D01*
X107878571Y-52399238D01*
X107783333Y-52494476D01*
X107688095Y-52542095D01*
X108592857Y-52256381D02*
X109259524Y-52256381D01*
X108830952Y-53256381D01*
X106735714Y-61384381D02*
X106735714Y-60384381D01*
X106973809Y-60384381D01*
X107116667Y-60432000D01*
X107211905Y-60527238D01*
X107259524Y-60622476D01*
X107307143Y-60812952D01*
X107307143Y-60955810D01*
X107259524Y-61146286D01*
X107211905Y-61241524D01*
X107116667Y-61336762D01*
X106973809Y-61384381D01*
X106735714Y-61384381D01*
X108259524Y-61384381D02*
X107688095Y-61384381D01*
X107973809Y-61384381D02*
X107973809Y-60384381D01*
X107878571Y-60527238D01*
X107783333Y-60622476D01*
X107688095Y-60670095D01*
X108830952Y-60812952D02*
X108735714Y-60765333D01*
X108688095Y-60717714D01*
X108640476Y-60622476D01*
X108640476Y-60574857D01*
X108688095Y-60479619D01*
X108735714Y-60432000D01*
X108830952Y-60384381D01*
X109021429Y-60384381D01*
X109116667Y-60432000D01*
X109164286Y-60479619D01*
X109211905Y-60574857D01*
X109211905Y-60622476D01*
X109164286Y-60717714D01*
X109116667Y-60765333D01*
X109021429Y-60812952D01*
X108830952Y-60812952D01*
X108735714Y-60860571D01*
X108688095Y-60908190D01*
X108640476Y-61003429D01*
X108640476Y-61193905D01*
X108688095Y-61289143D01*
X108735714Y-61336762D01*
X108830952Y-61384381D01*
X109021429Y-61384381D01*
X109116667Y-61336762D01*
X109164286Y-61289143D01*
X109211905Y-61193905D01*
X109211905Y-61003429D01*
X109164286Y-60908190D01*
X109116667Y-60860571D01*
X109021429Y-60812952D01*
X106735714Y-69512381D02*
X106735714Y-68512381D01*
X106973809Y-68512381D01*
X107116667Y-68560000D01*
X107211905Y-68655238D01*
X107259524Y-68750476D01*
X107307143Y-68940952D01*
X107307143Y-69083810D01*
X107259524Y-69274286D01*
X107211905Y-69369524D01*
X107116667Y-69464762D01*
X106973809Y-69512381D01*
X106735714Y-69512381D01*
X108259524Y-69512381D02*
X107688095Y-69512381D01*
X107973809Y-69512381D02*
X107973809Y-68512381D01*
X107878571Y-68655238D01*
X107783333Y-68750476D01*
X107688095Y-68798095D01*
X108735714Y-69512381D02*
X108926190Y-69512381D01*
X109021429Y-69464762D01*
X109069048Y-69417143D01*
X109164286Y-69274286D01*
X109211905Y-69083810D01*
X109211905Y-68702857D01*
X109164286Y-68607619D01*
X109116667Y-68560000D01*
X109021429Y-68512381D01*
X108830952Y-68512381D01*
X108735714Y-68560000D01*
X108688095Y-68607619D01*
X108640476Y-68702857D01*
X108640476Y-68940952D01*
X108688095Y-69036190D01*
X108735714Y-69083810D01*
X108830952Y-69131429D01*
X109021429Y-69131429D01*
X109116667Y-69083810D01*
X109164286Y-69036190D01*
X109211905Y-68940952D01*
X106735714Y-77767381D02*
X106735714Y-76767381D01*
X106973809Y-76767381D01*
X107116667Y-76815000D01*
X107211905Y-76910238D01*
X107259524Y-77005476D01*
X107307143Y-77195952D01*
X107307143Y-77338810D01*
X107259524Y-77529286D01*
X107211905Y-77624524D01*
X107116667Y-77719762D01*
X106973809Y-77767381D01*
X106735714Y-77767381D01*
X107688095Y-76862619D02*
X107735714Y-76815000D01*
X107830952Y-76767381D01*
X108069048Y-76767381D01*
X108164286Y-76815000D01*
X108211905Y-76862619D01*
X108259524Y-76957857D01*
X108259524Y-77053095D01*
X108211905Y-77195952D01*
X107640476Y-77767381D01*
X108259524Y-77767381D01*
X108878571Y-76767381D02*
X108973810Y-76767381D01*
X109069048Y-76815000D01*
X109116667Y-76862619D01*
X109164286Y-76957857D01*
X109211905Y-77148333D01*
X109211905Y-77386429D01*
X109164286Y-77576905D01*
X109116667Y-77672143D01*
X109069048Y-77719762D01*
X108973810Y-77767381D01*
X108878571Y-77767381D01*
X108783333Y-77719762D01*
X108735714Y-77672143D01*
X108688095Y-77576905D01*
X108640476Y-77386429D01*
X108640476Y-77148333D01*
X108688095Y-76957857D01*
X108735714Y-76862619D01*
X108783333Y-76815000D01*
X108878571Y-76767381D01*
X73286667Y-39767381D02*
X73286667Y-40481667D01*
X73239047Y-40624524D01*
X73143809Y-40719762D01*
X73000952Y-40767381D01*
X72905714Y-40767381D01*
X74286667Y-40767381D02*
X73715238Y-40767381D01*
X74000952Y-40767381D02*
X74000952Y-39767381D01*
X73905714Y-39910238D01*
X73810476Y-40005476D01*
X73715238Y-40053095D01*
X73286667Y-48022381D02*
X73286667Y-48736667D01*
X73239047Y-48879524D01*
X73143809Y-48974762D01*
X73000952Y-49022381D01*
X72905714Y-49022381D01*
X73715238Y-48117619D02*
X73762857Y-48070000D01*
X73858095Y-48022381D01*
X74096191Y-48022381D01*
X74191429Y-48070000D01*
X74239048Y-48117619D01*
X74286667Y-48212857D01*
X74286667Y-48308095D01*
X74239048Y-48450952D01*
X73667619Y-49022381D01*
X74286667Y-49022381D01*
X73286667Y-56277381D02*
X73286667Y-56991667D01*
X73239047Y-57134524D01*
X73143809Y-57229762D01*
X73000952Y-57277381D01*
X72905714Y-57277381D01*
X73667619Y-56277381D02*
X74286667Y-56277381D01*
X73953333Y-56658333D01*
X74096191Y-56658333D01*
X74191429Y-56705952D01*
X74239048Y-56753571D01*
X74286667Y-56848810D01*
X74286667Y-57086905D01*
X74239048Y-57182143D01*
X74191429Y-57229762D01*
X74096191Y-57277381D01*
X73810476Y-57277381D01*
X73715238Y-57229762D01*
X73667619Y-57182143D01*
X73286667Y-64532381D02*
X73286667Y-65246667D01*
X73239047Y-65389524D01*
X73143809Y-65484762D01*
X73000952Y-65532381D01*
X72905714Y-65532381D01*
X74191429Y-64865714D02*
X74191429Y-65532381D01*
X73953333Y-64484762D02*
X73715238Y-65199048D01*
X74334286Y-65199048D01*
X73286667Y-72787381D02*
X73286667Y-73501667D01*
X73239047Y-73644524D01*
X73143809Y-73739762D01*
X73000952Y-73787381D01*
X72905714Y-73787381D01*
X74239048Y-72787381D02*
X73762857Y-72787381D01*
X73715238Y-73263571D01*
X73762857Y-73215952D01*
X73858095Y-73168333D01*
X74096191Y-73168333D01*
X74191429Y-73215952D01*
X74239048Y-73263571D01*
X74286667Y-73358810D01*
X74286667Y-73596905D01*
X74239048Y-73692143D01*
X74191429Y-73739762D01*
X74096191Y-73787381D01*
X73858095Y-73787381D01*
X73762857Y-73739762D01*
X73715238Y-73692143D01*
X84716667Y-39767381D02*
X84716667Y-40481667D01*
X84669047Y-40624524D01*
X84573809Y-40719762D01*
X84430952Y-40767381D01*
X84335714Y-40767381D01*
X85621429Y-39767381D02*
X85430952Y-39767381D01*
X85335714Y-39815000D01*
X85288095Y-39862619D01*
X85192857Y-40005476D01*
X85145238Y-40195952D01*
X85145238Y-40576905D01*
X85192857Y-40672143D01*
X85240476Y-40719762D01*
X85335714Y-40767381D01*
X85526191Y-40767381D01*
X85621429Y-40719762D01*
X85669048Y-40672143D01*
X85716667Y-40576905D01*
X85716667Y-40338810D01*
X85669048Y-40243571D01*
X85621429Y-40195952D01*
X85526191Y-40148333D01*
X85335714Y-40148333D01*
X85240476Y-40195952D01*
X85192857Y-40243571D01*
X85145238Y-40338810D01*
X84716667Y-48022381D02*
X84716667Y-48736667D01*
X84669047Y-48879524D01*
X84573809Y-48974762D01*
X84430952Y-49022381D01*
X84335714Y-49022381D01*
X85097619Y-48022381D02*
X85764286Y-48022381D01*
X85335714Y-49022381D01*
X84716667Y-56277381D02*
X84716667Y-56991667D01*
X84669047Y-57134524D01*
X84573809Y-57229762D01*
X84430952Y-57277381D01*
X84335714Y-57277381D01*
X85335714Y-56705952D02*
X85240476Y-56658333D01*
X85192857Y-56610714D01*
X85145238Y-56515476D01*
X85145238Y-56467857D01*
X85192857Y-56372619D01*
X85240476Y-56325000D01*
X85335714Y-56277381D01*
X85526191Y-56277381D01*
X85621429Y-56325000D01*
X85669048Y-56372619D01*
X85716667Y-56467857D01*
X85716667Y-56515476D01*
X85669048Y-56610714D01*
X85621429Y-56658333D01*
X85526191Y-56705952D01*
X85335714Y-56705952D01*
X85240476Y-56753571D01*
X85192857Y-56801190D01*
X85145238Y-56896429D01*
X85145238Y-57086905D01*
X85192857Y-57182143D01*
X85240476Y-57229762D01*
X85335714Y-57277381D01*
X85526191Y-57277381D01*
X85621429Y-57229762D01*
X85669048Y-57182143D01*
X85716667Y-57086905D01*
X85716667Y-56896429D01*
X85669048Y-56801190D01*
X85621429Y-56753571D01*
X85526191Y-56705952D01*
X84716667Y-64532381D02*
X84716667Y-65246667D01*
X84669047Y-65389524D01*
X84573809Y-65484762D01*
X84430952Y-65532381D01*
X84335714Y-65532381D01*
X85240476Y-65532381D02*
X85430952Y-65532381D01*
X85526191Y-65484762D01*
X85573810Y-65437143D01*
X85669048Y-65294286D01*
X85716667Y-65103810D01*
X85716667Y-64722857D01*
X85669048Y-64627619D01*
X85621429Y-64580000D01*
X85526191Y-64532381D01*
X85335714Y-64532381D01*
X85240476Y-64580000D01*
X85192857Y-64627619D01*
X85145238Y-64722857D01*
X85145238Y-64960952D01*
X85192857Y-65056190D01*
X85240476Y-65103810D01*
X85335714Y-65151429D01*
X85526191Y-65151429D01*
X85621429Y-65103810D01*
X85669048Y-65056190D01*
X85716667Y-64960952D01*
X84240477Y-72787381D02*
X84240477Y-73501667D01*
X84192857Y-73644524D01*
X84097619Y-73739762D01*
X83954762Y-73787381D01*
X83859524Y-73787381D01*
X85240477Y-73787381D02*
X84669048Y-73787381D01*
X84954762Y-73787381D02*
X84954762Y-72787381D01*
X84859524Y-72930238D01*
X84764286Y-73025476D01*
X84669048Y-73073095D01*
X85859524Y-72787381D02*
X85954763Y-72787381D01*
X86050001Y-72835000D01*
X86097620Y-72882619D01*
X86145239Y-72977857D01*
X86192858Y-73168333D01*
X86192858Y-73406429D01*
X86145239Y-73596905D01*
X86097620Y-73692143D01*
X86050001Y-73739762D01*
X85954763Y-73787381D01*
X85859524Y-73787381D01*
X85764286Y-73739762D01*
X85716667Y-73692143D01*
X85669048Y-73596905D01*
X85621429Y-73406429D01*
X85621429Y-73168333D01*
X85669048Y-72977857D01*
X85716667Y-72882619D01*
X85764286Y-72835000D01*
X85859524Y-72787381D01*
X118530477Y-39767381D02*
X118530477Y-40481667D01*
X118482857Y-40624524D01*
X118387619Y-40719762D01*
X118244762Y-40767381D01*
X118149524Y-40767381D01*
X119530477Y-40767381D02*
X118959048Y-40767381D01*
X119244762Y-40767381D02*
X119244762Y-39767381D01*
X119149524Y-39910238D01*
X119054286Y-40005476D01*
X118959048Y-40053095D01*
X120482858Y-40767381D02*
X119911429Y-40767381D01*
X120197143Y-40767381D02*
X120197143Y-39767381D01*
X120101905Y-39910238D01*
X120006667Y-40005476D01*
X119911429Y-40053095D01*
X118530477Y-48022381D02*
X118530477Y-48736667D01*
X118482857Y-48879524D01*
X118387619Y-48974762D01*
X118244762Y-49022381D01*
X118149524Y-49022381D01*
X119530477Y-49022381D02*
X118959048Y-49022381D01*
X119244762Y-49022381D02*
X119244762Y-48022381D01*
X119149524Y-48165238D01*
X119054286Y-48260476D01*
X118959048Y-48308095D01*
X119911429Y-48117619D02*
X119959048Y-48070000D01*
X120054286Y-48022381D01*
X120292382Y-48022381D01*
X120387620Y-48070000D01*
X120435239Y-48117619D01*
X120482858Y-48212857D01*
X120482858Y-48308095D01*
X120435239Y-48450952D01*
X119863810Y-49022381D01*
X120482858Y-49022381D01*
X118530477Y-56277381D02*
X118530477Y-56991667D01*
X118482857Y-57134524D01*
X118387619Y-57229762D01*
X118244762Y-57277381D01*
X118149524Y-57277381D01*
X119530477Y-57277381D02*
X118959048Y-57277381D01*
X119244762Y-57277381D02*
X119244762Y-56277381D01*
X119149524Y-56420238D01*
X119054286Y-56515476D01*
X118959048Y-56563095D01*
X119863810Y-56277381D02*
X120482858Y-56277381D01*
X120149524Y-56658333D01*
X120292382Y-56658333D01*
X120387620Y-56705952D01*
X120435239Y-56753571D01*
X120482858Y-56848810D01*
X120482858Y-57086905D01*
X120435239Y-57182143D01*
X120387620Y-57229762D01*
X120292382Y-57277381D01*
X120006667Y-57277381D01*
X119911429Y-57229762D01*
X119863810Y-57182143D01*
X118530477Y-64532381D02*
X118530477Y-65246667D01*
X118482857Y-65389524D01*
X118387619Y-65484762D01*
X118244762Y-65532381D01*
X118149524Y-65532381D01*
X119530477Y-65532381D02*
X118959048Y-65532381D01*
X119244762Y-65532381D02*
X119244762Y-64532381D01*
X119149524Y-64675238D01*
X119054286Y-64770476D01*
X118959048Y-64818095D01*
X120387620Y-64865714D02*
X120387620Y-65532381D01*
X120149524Y-64484762D02*
X119911429Y-65199048D01*
X120530477Y-65199048D01*
X118530477Y-72787381D02*
X118530477Y-73501667D01*
X118482857Y-73644524D01*
X118387619Y-73739762D01*
X118244762Y-73787381D01*
X118149524Y-73787381D01*
X119530477Y-73787381D02*
X118959048Y-73787381D01*
X119244762Y-73787381D02*
X119244762Y-72787381D01*
X119149524Y-72930238D01*
X119054286Y-73025476D01*
X118959048Y-73073095D01*
X120435239Y-72787381D02*
X119959048Y-72787381D01*
X119911429Y-73263571D01*
X119959048Y-73215952D01*
X120054286Y-73168333D01*
X120292382Y-73168333D01*
X120387620Y-73215952D01*
X120435239Y-73263571D01*
X120482858Y-73358810D01*
X120482858Y-73596905D01*
X120435239Y-73692143D01*
X120387620Y-73739762D01*
X120292382Y-73787381D01*
X120054286Y-73787381D01*
X119959048Y-73739762D01*
X119911429Y-73692143D01*
X129960477Y-39767381D02*
X129960477Y-40481667D01*
X129912857Y-40624524D01*
X129817619Y-40719762D01*
X129674762Y-40767381D01*
X129579524Y-40767381D01*
X130960477Y-40767381D02*
X130389048Y-40767381D01*
X130674762Y-40767381D02*
X130674762Y-39767381D01*
X130579524Y-39910238D01*
X130484286Y-40005476D01*
X130389048Y-40053095D01*
X131817620Y-39767381D02*
X131627143Y-39767381D01*
X131531905Y-39815000D01*
X131484286Y-39862619D01*
X131389048Y-40005476D01*
X131341429Y-40195952D01*
X131341429Y-40576905D01*
X131389048Y-40672143D01*
X131436667Y-40719762D01*
X131531905Y-40767381D01*
X131722382Y-40767381D01*
X131817620Y-40719762D01*
X131865239Y-40672143D01*
X131912858Y-40576905D01*
X131912858Y-40338810D01*
X131865239Y-40243571D01*
X131817620Y-40195952D01*
X131722382Y-40148333D01*
X131531905Y-40148333D01*
X131436667Y-40195952D01*
X131389048Y-40243571D01*
X131341429Y-40338810D01*
X129960477Y-48022381D02*
X129960477Y-48736667D01*
X129912857Y-48879524D01*
X129817619Y-48974762D01*
X129674762Y-49022381D01*
X129579524Y-49022381D01*
X130960477Y-49022381D02*
X130389048Y-49022381D01*
X130674762Y-49022381D02*
X130674762Y-48022381D01*
X130579524Y-48165238D01*
X130484286Y-48260476D01*
X130389048Y-48308095D01*
X131293810Y-48022381D02*
X131960477Y-48022381D01*
X131531905Y-49022381D01*
X129960477Y-56277381D02*
X129960477Y-56991667D01*
X129912857Y-57134524D01*
X129817619Y-57229762D01*
X129674762Y-57277381D01*
X129579524Y-57277381D01*
X130960477Y-57277381D02*
X130389048Y-57277381D01*
X130674762Y-57277381D02*
X130674762Y-56277381D01*
X130579524Y-56420238D01*
X130484286Y-56515476D01*
X130389048Y-56563095D01*
X131531905Y-56705952D02*
X131436667Y-56658333D01*
X131389048Y-56610714D01*
X131341429Y-56515476D01*
X131341429Y-56467857D01*
X131389048Y-56372619D01*
X131436667Y-56325000D01*
X131531905Y-56277381D01*
X131722382Y-56277381D01*
X131817620Y-56325000D01*
X131865239Y-56372619D01*
X131912858Y-56467857D01*
X131912858Y-56515476D01*
X131865239Y-56610714D01*
X131817620Y-56658333D01*
X131722382Y-56705952D01*
X131531905Y-56705952D01*
X131436667Y-56753571D01*
X131389048Y-56801190D01*
X131341429Y-56896429D01*
X131341429Y-57086905D01*
X131389048Y-57182143D01*
X131436667Y-57229762D01*
X131531905Y-57277381D01*
X131722382Y-57277381D01*
X131817620Y-57229762D01*
X131865239Y-57182143D01*
X131912858Y-57086905D01*
X131912858Y-56896429D01*
X131865239Y-56801190D01*
X131817620Y-56753571D01*
X131722382Y-56705952D01*
X129960477Y-64532381D02*
X129960477Y-65246667D01*
X129912857Y-65389524D01*
X129817619Y-65484762D01*
X129674762Y-65532381D01*
X129579524Y-65532381D01*
X130960477Y-65532381D02*
X130389048Y-65532381D01*
X130674762Y-65532381D02*
X130674762Y-64532381D01*
X130579524Y-64675238D01*
X130484286Y-64770476D01*
X130389048Y-64818095D01*
X131436667Y-65532381D02*
X131627143Y-65532381D01*
X131722382Y-65484762D01*
X131770001Y-65437143D01*
X131865239Y-65294286D01*
X131912858Y-65103810D01*
X131912858Y-64722857D01*
X131865239Y-64627619D01*
X131817620Y-64580000D01*
X131722382Y-64532381D01*
X131531905Y-64532381D01*
X131436667Y-64580000D01*
X131389048Y-64627619D01*
X131341429Y-64722857D01*
X131341429Y-64960952D01*
X131389048Y-65056190D01*
X131436667Y-65103810D01*
X131531905Y-65151429D01*
X131722382Y-65151429D01*
X131817620Y-65103810D01*
X131865239Y-65056190D01*
X131912858Y-64960952D01*
X129960477Y-72787381D02*
X129960477Y-73501667D01*
X129912857Y-73644524D01*
X129817619Y-73739762D01*
X129674762Y-73787381D01*
X129579524Y-73787381D01*
X130389048Y-72882619D02*
X130436667Y-72835000D01*
X130531905Y-72787381D01*
X130770001Y-72787381D01*
X130865239Y-72835000D01*
X130912858Y-72882619D01*
X130960477Y-72977857D01*
X130960477Y-73073095D01*
X130912858Y-73215952D01*
X130341429Y-73787381D01*
X130960477Y-73787381D01*
X131579524Y-72787381D02*
X131674763Y-72787381D01*
X131770001Y-72835000D01*
X131817620Y-72882619D01*
X131865239Y-72977857D01*
X131912858Y-73168333D01*
X131912858Y-73406429D01*
X131865239Y-73596905D01*
X131817620Y-73692143D01*
X131770001Y-73739762D01*
X131674763Y-73787381D01*
X131579524Y-73787381D01*
X131484286Y-73739762D01*
X131436667Y-73692143D01*
X131389048Y-73596905D01*
X131341429Y-73406429D01*
X131341429Y-73168333D01*
X131389048Y-72977857D01*
X131436667Y-72882619D01*
X131484286Y-72835000D01*
X131579524Y-72787381D01*
X130635477Y-116927381D02*
X130635477Y-117641667D01*
X130587857Y-117784524D01*
X130492619Y-117879762D01*
X130349762Y-117927381D01*
X130254524Y-117927381D01*
X131064048Y-117022619D02*
X131111667Y-116975000D01*
X131206905Y-116927381D01*
X131445001Y-116927381D01*
X131540239Y-116975000D01*
X131587858Y-117022619D01*
X131635477Y-117117857D01*
X131635477Y-117213095D01*
X131587858Y-117355952D01*
X131016429Y-117927381D01*
X131635477Y-117927381D01*
X132587858Y-117927381D02*
X132016429Y-117927381D01*
X132302143Y-117927381D02*
X132302143Y-116927381D01*
X132206905Y-117070238D01*
X132111667Y-117165476D01*
X132016429Y-117213095D01*
X141390477Y-116927381D02*
X141390477Y-117641667D01*
X141342857Y-117784524D01*
X141247619Y-117879762D01*
X141104762Y-117927381D01*
X141009524Y-117927381D01*
X141819048Y-117022619D02*
X141866667Y-116975000D01*
X141961905Y-116927381D01*
X142200001Y-116927381D01*
X142295239Y-116975000D01*
X142342858Y-117022619D01*
X142390477Y-117117857D01*
X142390477Y-117213095D01*
X142342858Y-117355952D01*
X141771429Y-117927381D01*
X142390477Y-117927381D01*
X142771429Y-117022619D02*
X142819048Y-116975000D01*
X142914286Y-116927381D01*
X143152382Y-116927381D01*
X143247620Y-116975000D01*
X143295239Y-117022619D01*
X143342858Y-117117857D01*
X143342858Y-117213095D01*
X143295239Y-117355952D01*
X142723810Y-117927381D01*
X143342858Y-117927381D01*
X149312381Y-51609523D02*
X150026667Y-51609523D01*
X150169524Y-51657143D01*
X150264762Y-51752381D01*
X150312381Y-51895238D01*
X150312381Y-51990476D01*
X149407619Y-51180952D02*
X149360000Y-51133333D01*
X149312381Y-51038095D01*
X149312381Y-50799999D01*
X149360000Y-50704761D01*
X149407619Y-50657142D01*
X149502857Y-50609523D01*
X149598095Y-50609523D01*
X149740952Y-50657142D01*
X150312381Y-51228571D01*
X150312381Y-50609523D01*
X149312381Y-50276190D02*
X149312381Y-49657142D01*
X149693333Y-49990476D01*
X149693333Y-49847618D01*
X149740952Y-49752380D01*
X149788571Y-49704761D01*
X149883810Y-49657142D01*
X150121905Y-49657142D01*
X150217143Y-49704761D01*
X150264762Y-49752380D01*
X150312381Y-49847618D01*
X150312381Y-50133333D01*
X150264762Y-50228571D01*
X150217143Y-50276190D01*
X136866381Y-51609523D02*
X137580667Y-51609523D01*
X137723524Y-51657143D01*
X137818762Y-51752381D01*
X137866381Y-51895238D01*
X137866381Y-51990476D01*
X136961619Y-51180952D02*
X136914000Y-51133333D01*
X136866381Y-51038095D01*
X136866381Y-50799999D01*
X136914000Y-50704761D01*
X136961619Y-50657142D01*
X137056857Y-50609523D01*
X137152095Y-50609523D01*
X137294952Y-50657142D01*
X137866381Y-51228571D01*
X137866381Y-50609523D01*
X137199714Y-49752380D02*
X137866381Y-49752380D01*
X136818762Y-49990476D02*
X137533048Y-50228571D01*
X137533048Y-49609523D01*
X111002381Y-112569523D02*
X111716667Y-112569523D01*
X111859524Y-112617143D01*
X111954762Y-112712381D01*
X112002381Y-112855238D01*
X112002381Y-112950476D01*
X111097619Y-112140952D02*
X111050000Y-112093333D01*
X111002381Y-111998095D01*
X111002381Y-111759999D01*
X111050000Y-111664761D01*
X111097619Y-111617142D01*
X111192857Y-111569523D01*
X111288095Y-111569523D01*
X111430952Y-111617142D01*
X112002381Y-112188571D01*
X112002381Y-111569523D01*
X111002381Y-110712380D02*
X111002381Y-110902857D01*
X111050000Y-110998095D01*
X111097619Y-111045714D01*
X111240476Y-111140952D01*
X111430952Y-111188571D01*
X111811905Y-111188571D01*
X111907143Y-111140952D01*
X111954762Y-111093333D01*
X112002381Y-110998095D01*
X112002381Y-110807618D01*
X111954762Y-110712380D01*
X111907143Y-110664761D01*
X111811905Y-110617142D01*
X111573810Y-110617142D01*
X111478571Y-110664761D01*
X111430952Y-110712380D01*
X111383333Y-110807618D01*
X111383333Y-110998095D01*
X111430952Y-111093333D01*
X111478571Y-111140952D01*
X111573810Y-111188571D01*
X96607334Y-36520381D02*
X96274000Y-36044190D01*
X96035905Y-36520381D02*
X96035905Y-35520381D01*
X96416858Y-35520381D01*
X96512096Y-35568000D01*
X96559715Y-35615619D01*
X96607334Y-35710857D01*
X96607334Y-35853714D01*
X96559715Y-35948952D01*
X96512096Y-35996571D01*
X96416858Y-36044190D01*
X96035905Y-36044190D01*
X96988286Y-35615619D02*
X97035905Y-35568000D01*
X97131143Y-35520381D01*
X97369239Y-35520381D01*
X97464477Y-35568000D01*
X97512096Y-35615619D01*
X97559715Y-35710857D01*
X97559715Y-35806095D01*
X97512096Y-35948952D01*
X96940667Y-36520381D01*
X97559715Y-36520381D01*
X96607334Y-40076381D02*
X96274000Y-39600190D01*
X96035905Y-40076381D02*
X96035905Y-39076381D01*
X96416858Y-39076381D01*
X96512096Y-39124000D01*
X96559715Y-39171619D01*
X96607334Y-39266857D01*
X96607334Y-39409714D01*
X96559715Y-39504952D01*
X96512096Y-39552571D01*
X96416858Y-39600190D01*
X96035905Y-39600190D01*
X96940667Y-39076381D02*
X97559715Y-39076381D01*
X97226381Y-39457333D01*
X97369239Y-39457333D01*
X97464477Y-39504952D01*
X97512096Y-39552571D01*
X97559715Y-39647810D01*
X97559715Y-39885905D01*
X97512096Y-39981143D01*
X97464477Y-40028762D01*
X97369239Y-40076381D01*
X97083524Y-40076381D01*
X96988286Y-40028762D01*
X96940667Y-39981143D01*
X107783334Y-40076381D02*
X107450000Y-39600190D01*
X107211905Y-40076381D02*
X107211905Y-39076381D01*
X107592858Y-39076381D01*
X107688096Y-39124000D01*
X107735715Y-39171619D01*
X107783334Y-39266857D01*
X107783334Y-39409714D01*
X107735715Y-39504952D01*
X107688096Y-39552571D01*
X107592858Y-39600190D01*
X107211905Y-39600190D01*
X108640477Y-39409714D02*
X108640477Y-40076381D01*
X108402381Y-39028762D02*
X108164286Y-39743048D01*
X108783334Y-39743048D01*
X107783334Y-36520381D02*
X107450000Y-36044190D01*
X107211905Y-36520381D02*
X107211905Y-35520381D01*
X107592858Y-35520381D01*
X107688096Y-35568000D01*
X107735715Y-35615619D01*
X107783334Y-35710857D01*
X107783334Y-35853714D01*
X107735715Y-35948952D01*
X107688096Y-35996571D01*
X107592858Y-36044190D01*
X107211905Y-36044190D01*
X108688096Y-35520381D02*
X108211905Y-35520381D01*
X108164286Y-35996571D01*
X108211905Y-35948952D01*
X108307143Y-35901333D01*
X108545239Y-35901333D01*
X108640477Y-35948952D01*
X108688096Y-35996571D01*
X108735715Y-36091810D01*
X108735715Y-36329905D01*
X108688096Y-36425143D01*
X108640477Y-36472762D01*
X108545239Y-36520381D01*
X108307143Y-36520381D01*
X108211905Y-36472762D01*
X108164286Y-36425143D01*
X128952381Y-85891666D02*
X128476190Y-86225000D01*
X128952381Y-86463095D02*
X127952381Y-86463095D01*
X127952381Y-86082142D01*
X128000000Y-85986904D01*
X128047619Y-85939285D01*
X128142857Y-85891666D01*
X128285714Y-85891666D01*
X128380952Y-85939285D01*
X128428571Y-85986904D01*
X128476190Y-86082142D01*
X128476190Y-86463095D01*
X127952381Y-85558333D02*
X127952381Y-84891666D01*
X128952381Y-85320238D01*
X137382381Y-85891666D02*
X136906190Y-86225000D01*
X137382381Y-86463095D02*
X136382381Y-86463095D01*
X136382381Y-86082142D01*
X136430000Y-85986904D01*
X136477619Y-85939285D01*
X136572857Y-85891666D01*
X136715714Y-85891666D01*
X136810952Y-85939285D01*
X136858571Y-85986904D01*
X136906190Y-86082142D01*
X136906190Y-86463095D01*
X136810952Y-85320238D02*
X136763333Y-85415476D01*
X136715714Y-85463095D01*
X136620476Y-85510714D01*
X136572857Y-85510714D01*
X136477619Y-85463095D01*
X136430000Y-85415476D01*
X136382381Y-85320238D01*
X136382381Y-85129761D01*
X136430000Y-85034523D01*
X136477619Y-84986904D01*
X136572857Y-84939285D01*
X136620476Y-84939285D01*
X136715714Y-84986904D01*
X136763333Y-85034523D01*
X136810952Y-85129761D01*
X136810952Y-85320238D01*
X136858571Y-85415476D01*
X136906190Y-85463095D01*
X137001429Y-85510714D01*
X137191905Y-85510714D01*
X137287143Y-85463095D01*
X137334762Y-85415476D01*
X137382381Y-85320238D01*
X137382381Y-85129761D01*
X137334762Y-85034523D01*
X137287143Y-84986904D01*
X137191905Y-84939285D01*
X137001429Y-84939285D01*
X136906190Y-84986904D01*
X136858571Y-85034523D01*
X136810952Y-85129761D01*
D14*
X151795238Y-118442619D02*
X151456572Y-117958810D01*
X151214667Y-118442619D02*
X151214667Y-117426619D01*
X151601714Y-117426619D01*
X151698476Y-117475000D01*
X151746857Y-117523381D01*
X151795238Y-117620143D01*
X151795238Y-117765286D01*
X151746857Y-117862048D01*
X151698476Y-117910429D01*
X151601714Y-117958810D01*
X151214667Y-117958810D01*
X152085524Y-117426619D02*
X152424191Y-118442619D01*
X152762857Y-117426619D01*
X153633714Y-118442619D02*
X153053143Y-118442619D01*
X153343429Y-118442619D02*
X153343429Y-117426619D01*
X153246667Y-117571762D01*
X153149905Y-117668524D01*
X153053143Y-117716905D01*
D10*
X135342381Y-73659905D02*
X136151905Y-73659905D01*
X136247143Y-73612286D01*
X136294762Y-73564667D01*
X136342381Y-73469429D01*
X136342381Y-73278952D01*
X136294762Y-73183714D01*
X136247143Y-73136095D01*
X136151905Y-73088476D01*
X135342381Y-73088476D01*
X135437619Y-72659905D02*
X135390000Y-72612286D01*
X135342381Y-72517048D01*
X135342381Y-72278952D01*
X135390000Y-72183714D01*
X135437619Y-72136095D01*
X135532857Y-72088476D01*
X135628095Y-72088476D01*
X135770952Y-72136095D01*
X136342381Y-72707524D01*
X136342381Y-72088476D01*
X147812191Y-56332381D02*
X147812191Y-55332381D01*
X148288381Y-56332381D02*
X148288381Y-55332381D01*
X148859810Y-56332381D01*
X148859810Y-55332381D01*
X154757429Y-56260952D02*
X154757429Y-55499047D01*
X155138381Y-55879999D02*
X154376476Y-55879999D01*
X141859048Y-55951429D02*
X142620953Y-55951429D01*
X142113048Y-95575429D02*
X142874953Y-95575429D01*
X155011429Y-95884952D02*
X155011429Y-95123047D01*
X155392381Y-95503999D02*
X154630476Y-95503999D01*
X147590000Y-94956381D02*
X147780477Y-94956381D01*
X147875715Y-95004000D01*
X147970953Y-95099238D01*
X148018572Y-95289714D01*
X148018572Y-95623048D01*
X147970953Y-95813524D01*
X147875715Y-95908762D01*
X147780477Y-95956381D01*
X147590000Y-95956381D01*
X147494762Y-95908762D01*
X147399524Y-95813524D01*
X147351905Y-95623048D01*
X147351905Y-95289714D01*
X147399524Y-95099238D01*
X147494762Y-95004000D01*
X147590000Y-94956381D01*
X148447143Y-94956381D02*
X148447143Y-95765905D01*
X148494762Y-95861143D01*
X148542381Y-95908762D01*
X148637619Y-95956381D01*
X148828096Y-95956381D01*
X148923334Y-95908762D01*
X148970953Y-95861143D01*
X149018572Y-95765905D01*
X149018572Y-94956381D01*
X149351905Y-94956381D02*
X149923334Y-94956381D01*
X149637619Y-95956381D02*
X149637619Y-94956381D01*
X119860477Y-116744381D02*
X119860477Y-117458667D01*
X119812857Y-117601524D01*
X119717619Y-117696762D01*
X119574762Y-117744381D01*
X119479524Y-117744381D01*
X120289048Y-116839619D02*
X120336667Y-116792000D01*
X120431905Y-116744381D01*
X120670001Y-116744381D01*
X120765239Y-116792000D01*
X120812858Y-116839619D01*
X120860477Y-116934857D01*
X120860477Y-117030095D01*
X120812858Y-117172952D01*
X120241429Y-117744381D01*
X120860477Y-117744381D01*
X121193810Y-116744381D02*
X121860477Y-116744381D01*
X121431905Y-117744381D01*
X126452381Y-105711523D02*
X127166667Y-105711523D01*
X127309524Y-105759143D01*
X127404762Y-105854381D01*
X127452381Y-105997238D01*
X127452381Y-106092476D01*
X126547619Y-105282952D02*
X126500000Y-105235333D01*
X126452381Y-105140095D01*
X126452381Y-104901999D01*
X126500000Y-104806761D01*
X126547619Y-104759142D01*
X126642857Y-104711523D01*
X126738095Y-104711523D01*
X126880952Y-104759142D01*
X127452381Y-105330571D01*
X127452381Y-104711523D01*
X126452381Y-103806761D02*
X126452381Y-104282952D01*
X126928571Y-104330571D01*
X126880952Y-104282952D01*
X126833333Y-104187714D01*
X126833333Y-103949618D01*
X126880952Y-103854380D01*
X126928571Y-103806761D01*
X127023810Y-103759142D01*
X127261905Y-103759142D01*
X127357143Y-103806761D01*
X127404762Y-103854380D01*
X127452381Y-103949618D01*
X127452381Y-104187714D01*
X127404762Y-104282952D01*
X127357143Y-104330571D01*
D13*
X133909715Y-106820381D02*
X133338286Y-106820381D01*
X133624000Y-106820381D02*
X133624000Y-105820381D01*
X133528762Y-105963238D01*
X133433524Y-106058476D01*
X133338286Y-106106095D01*
D10*
X73425477Y-121642381D02*
X73425477Y-122356667D01*
X73377857Y-122499524D01*
X73282619Y-122594762D01*
X73139762Y-122642381D01*
X73044524Y-122642381D01*
X73854048Y-121737619D02*
X73901667Y-121690000D01*
X73996905Y-121642381D01*
X74235001Y-121642381D01*
X74330239Y-121690000D01*
X74377858Y-121737619D01*
X74425477Y-121832857D01*
X74425477Y-121928095D01*
X74377858Y-122070952D01*
X73806429Y-122642381D01*
X74425477Y-122642381D01*
X74996905Y-122070952D02*
X74901667Y-122023333D01*
X74854048Y-121975714D01*
X74806429Y-121880476D01*
X74806429Y-121832857D01*
X74854048Y-121737619D01*
X74901667Y-121690000D01*
X74996905Y-121642381D01*
X75187382Y-121642381D01*
X75282620Y-121690000D01*
X75330239Y-121737619D01*
X75377858Y-121832857D01*
X75377858Y-121880476D01*
X75330239Y-121975714D01*
X75282620Y-122023333D01*
X75187382Y-122070952D01*
X74996905Y-122070952D01*
X74901667Y-122118571D01*
X74854048Y-122166190D01*
X74806429Y-122261429D01*
X74806429Y-122451905D01*
X74854048Y-122547143D01*
X74901667Y-122594762D01*
X74996905Y-122642381D01*
X75187382Y-122642381D01*
X75282620Y-122594762D01*
X75330239Y-122547143D01*
X75377858Y-122451905D01*
X75377858Y-122261429D01*
X75330239Y-122166190D01*
X75282620Y-122118571D01*
X75187382Y-122070952D01*
X149558477Y-39838381D02*
X149558477Y-40552667D01*
X149510857Y-40695524D01*
X149415619Y-40790762D01*
X149272762Y-40838381D01*
X149177524Y-40838381D01*
X149987048Y-39933619D02*
X150034667Y-39886000D01*
X150129905Y-39838381D01*
X150368001Y-39838381D01*
X150463239Y-39886000D01*
X150510858Y-39933619D01*
X150558477Y-40028857D01*
X150558477Y-40124095D01*
X150510858Y-40266952D01*
X149939429Y-40838381D01*
X150558477Y-40838381D01*
X151034667Y-40838381D02*
X151225143Y-40838381D01*
X151320382Y-40790762D01*
X151368001Y-40743143D01*
X151463239Y-40600286D01*
X151510858Y-40409810D01*
X151510858Y-40028857D01*
X151463239Y-39933619D01*
X151415620Y-39886000D01*
X151320382Y-39838381D01*
X151129905Y-39838381D01*
X151034667Y-39886000D01*
X150987048Y-39933619D01*
X150939429Y-40028857D01*
X150939429Y-40266952D01*
X150987048Y-40362190D01*
X151034667Y-40409810D01*
X151129905Y-40457429D01*
X151320382Y-40457429D01*
X151415620Y-40409810D01*
X151463239Y-40362190D01*
X151510858Y-40266952D01*
X148423334Y-63166381D02*
X148090000Y-62690190D01*
X147851905Y-63166381D02*
X147851905Y-62166381D01*
X148232858Y-62166381D01*
X148328096Y-62214000D01*
X148375715Y-62261619D01*
X148423334Y-62356857D01*
X148423334Y-62499714D01*
X148375715Y-62594952D01*
X148328096Y-62642571D01*
X148232858Y-62690190D01*
X147851905Y-62690190D01*
X149375715Y-63166381D02*
X148804286Y-63166381D01*
X149090000Y-63166381D02*
X149090000Y-62166381D01*
X148994762Y-62309238D01*
X148899524Y-62404476D01*
X148804286Y-62452095D01*
X148423334Y-58086381D02*
X148090000Y-57610190D01*
X147851905Y-58086381D02*
X147851905Y-57086381D01*
X148232858Y-57086381D01*
X148328096Y-57134000D01*
X148375715Y-57181619D01*
X148423334Y-57276857D01*
X148423334Y-57419714D01*
X148375715Y-57514952D01*
X148328096Y-57562571D01*
X148232858Y-57610190D01*
X147851905Y-57610190D01*
X149280477Y-57086381D02*
X149090000Y-57086381D01*
X148994762Y-57134000D01*
X148947143Y-57181619D01*
X148851905Y-57324476D01*
X148804286Y-57514952D01*
X148804286Y-57895905D01*
X148851905Y-57991143D01*
X148899524Y-58038762D01*
X148994762Y-58086381D01*
X149185239Y-58086381D01*
X149280477Y-58038762D01*
X149328096Y-57991143D01*
X149375715Y-57895905D01*
X149375715Y-57657810D01*
X149328096Y-57562571D01*
X149280477Y-57514952D01*
X149185239Y-57467333D01*
X148994762Y-57467333D01*
X148899524Y-57514952D01*
X148851905Y-57562571D01*
X148804286Y-57657810D01*
X81629381Y-98083666D02*
X81153190Y-98417000D01*
X81629381Y-98655095D02*
X80629381Y-98655095D01*
X80629381Y-98274142D01*
X80677000Y-98178904D01*
X80724619Y-98131285D01*
X80819857Y-98083666D01*
X80962714Y-98083666D01*
X81057952Y-98131285D01*
X81105571Y-98178904D01*
X81153190Y-98274142D01*
X81153190Y-98655095D01*
X81629381Y-97607476D02*
X81629381Y-97417000D01*
X81581762Y-97321761D01*
X81534143Y-97274142D01*
X81391286Y-97178904D01*
X81200810Y-97131285D01*
X80819857Y-97131285D01*
X80724619Y-97178904D01*
X80677000Y-97226523D01*
X80629381Y-97321761D01*
X80629381Y-97512238D01*
X80677000Y-97607476D01*
X80724619Y-97655095D01*
X80819857Y-97702714D01*
X81057952Y-97702714D01*
X81153190Y-97655095D01*
X81200810Y-97607476D01*
X81248429Y-97512238D01*
X81248429Y-97321761D01*
X81200810Y-97226523D01*
X81153190Y-97178904D01*
X81057952Y-97131285D01*
X133032667Y-34098381D02*
X132699333Y-33622190D01*
X132461238Y-34098381D02*
X132461238Y-33098381D01*
X132842191Y-33098381D01*
X132937429Y-33146000D01*
X132985048Y-33193619D01*
X133032667Y-33288857D01*
X133032667Y-33431714D01*
X132985048Y-33526952D01*
X132937429Y-33574571D01*
X132842191Y-33622190D01*
X132461238Y-33622190D01*
X133461238Y-33574571D02*
X133794572Y-33574571D01*
X133937429Y-34098381D02*
X133461238Y-34098381D01*
X133461238Y-33098381D01*
X133937429Y-33098381D01*
X134699334Y-33574571D02*
X134366000Y-33574571D01*
X134366000Y-34098381D02*
X134366000Y-33098381D01*
X134842191Y-33098381D01*
X135366000Y-33098381D02*
X135366000Y-33336476D01*
X135127905Y-33241238D02*
X135366000Y-33336476D01*
X135604096Y-33241238D01*
X135223143Y-33526952D02*
X135366000Y-33336476D01*
X135508858Y-33526952D01*
X136127905Y-33098381D02*
X136127905Y-33336476D01*
X135889810Y-33241238D02*
X136127905Y-33336476D01*
X136366001Y-33241238D01*
X135985048Y-33526952D02*
X136127905Y-33336476D01*
X136270763Y-33526952D01*
X155130667Y-134936381D02*
X154797333Y-134460190D01*
X154559238Y-134936381D02*
X154559238Y-133936381D01*
X154940191Y-133936381D01*
X155035429Y-133984000D01*
X155083048Y-134031619D01*
X155130667Y-134126857D01*
X155130667Y-134269714D01*
X155083048Y-134364952D01*
X155035429Y-134412571D01*
X154940191Y-134460190D01*
X154559238Y-134460190D01*
X155559238Y-134412571D02*
X155892572Y-134412571D01*
X156035429Y-134936381D02*
X155559238Y-134936381D01*
X155559238Y-133936381D01*
X156035429Y-133936381D01*
X156797334Y-134412571D02*
X156464000Y-134412571D01*
X156464000Y-134936381D02*
X156464000Y-133936381D01*
X156940191Y-133936381D01*
X157464000Y-133936381D02*
X157464000Y-134174476D01*
X157225905Y-134079238D02*
X157464000Y-134174476D01*
X157702096Y-134079238D01*
X157321143Y-134364952D02*
X157464000Y-134174476D01*
X157606858Y-134364952D01*
X158225905Y-133936381D02*
X158225905Y-134174476D01*
X157987810Y-134079238D02*
X158225905Y-134174476D01*
X158464001Y-134079238D01*
X158083048Y-134364952D02*
X158225905Y-134174476D01*
X158368763Y-134364952D01*
X149947334Y-35790143D02*
X149899715Y-35837762D01*
X149756858Y-35885381D01*
X149661620Y-35885381D01*
X149518762Y-35837762D01*
X149423524Y-35742524D01*
X149375905Y-35647286D01*
X149328286Y-35456810D01*
X149328286Y-35313952D01*
X149375905Y-35123476D01*
X149423524Y-35028238D01*
X149518762Y-34933000D01*
X149661620Y-34885381D01*
X149756858Y-34885381D01*
X149899715Y-34933000D01*
X149947334Y-34980619D01*
X150899715Y-35885381D02*
X150328286Y-35885381D01*
X150614000Y-35885381D02*
X150614000Y-34885381D01*
X150518762Y-35028238D01*
X150423524Y-35123476D01*
X150328286Y-35171095D01*
M02*
