%TF.GenerationSoftware,KiCad,Pcbnew,4.0.7*%
%TF.CreationDate,2018-06-21T01:00:39+02:00*%
%TF.ProjectId,FlyballETS-HW,466C7962616C6C4554532D48572E6B69,rev?*%
%TF.FileFunction,Soldermask,Top*%
%FSLAX46Y46*%
G04 Gerber Fmt 4.6, Leading zero omitted, Abs format (unit mm)*
G04 Created by KiCad (PCBNEW 4.0.7) date 06/21/18 01:00:39*
%MOMM*%
%LPD*%
G01*
G04 APERTURE LIST*
%ADD10C,0.150000*%
%ADD11C,3.600000*%
%ADD12C,2.200000*%
%ADD13R,2.000000X2.000000*%
%ADD14O,2.000000X2.000000*%
%ADD15R,2.150000X2.150000*%
%ADD16C,2.150000*%
%ADD17R,2.100000X2.100000*%
%ADD18O,2.100000X2.100000*%
%ADD19C,2.000000*%
%ADD20C,2.178000*%
%ADD21R,2.940000X2.940000*%
%ADD22R,2.127200X2.127200*%
%ADD23O,2.127200X2.127200*%
%ADD24R,2.400000X2.400000*%
%ADD25C,2.400000*%
G04 APERTURE END LIST*
D10*
X66040000Y-142240000D02*
X66040000Y-133350000D01*
X160020000Y-142240000D02*
X66040000Y-142240000D01*
X160020000Y-133350000D02*
X160020000Y-142240000D01*
X66040000Y-133350000D02*
X66040000Y-34290000D01*
X160020000Y-34290000D02*
X160020000Y-133350000D01*
X66040000Y-34290000D02*
X160020000Y-34290000D01*
D11*
X69596000Y-37846000D03*
X69596000Y-138684000D03*
D12*
X71755000Y-107315000D03*
X74295000Y-107315000D03*
X76835000Y-107315000D03*
X79375000Y-107315000D03*
X81915000Y-107315000D03*
X84455000Y-107315000D03*
X86995000Y-107315000D03*
X89535000Y-107315000D03*
X92075000Y-107315000D03*
X94615000Y-107315000D03*
X97155000Y-107315000D03*
X99695000Y-107315000D03*
X81915000Y-84455000D03*
X84455000Y-84455000D03*
X86995000Y-84455000D03*
X89535000Y-84455000D03*
X92075000Y-84455000D03*
X94615000Y-84455000D03*
X97155000Y-84455000D03*
X99695000Y-84455000D03*
X102235000Y-84455000D03*
X104775000Y-84455000D03*
X107315000Y-84455000D03*
X109855000Y-84455000D03*
X112395000Y-84455000D03*
X114935000Y-84455000D03*
X117475000Y-84455000D03*
X120015000Y-84455000D03*
X102235000Y-107315000D03*
X104775000Y-107315000D03*
X107315000Y-107315000D03*
X109855000Y-107315000D03*
X112395000Y-107315000D03*
X114935000Y-107315000D03*
X117475000Y-107315000D03*
X120015000Y-107315000D03*
D13*
X100584000Y-42672000D03*
D14*
X92964000Y-42672000D03*
D13*
X100584000Y-50800000D03*
D14*
X92964000Y-50800000D03*
D13*
X100584000Y-58928000D03*
D14*
X92964000Y-58928000D03*
D13*
X100584000Y-67056000D03*
D14*
X92964000Y-67056000D03*
D13*
X100584000Y-75184000D03*
D14*
X92964000Y-75184000D03*
D13*
X100584000Y-46736000D03*
D14*
X92964000Y-46736000D03*
D13*
X100584000Y-54864000D03*
D14*
X92964000Y-54864000D03*
D13*
X100584000Y-63246000D03*
D14*
X92964000Y-63246000D03*
D13*
X100584000Y-71120000D03*
D14*
X92964000Y-71120000D03*
D13*
X100584000Y-79375000D03*
D14*
X92964000Y-79375000D03*
D13*
X104140000Y-42926000D03*
D14*
X111760000Y-42926000D03*
D13*
X104140000Y-50800000D03*
D14*
X111760000Y-50800000D03*
D13*
X104140000Y-58928000D03*
D14*
X111760000Y-58928000D03*
D13*
X104140000Y-67056000D03*
D14*
X111760000Y-67056000D03*
D13*
X104140000Y-75184000D03*
D14*
X111760000Y-75184000D03*
D13*
X104140000Y-46736000D03*
D14*
X111760000Y-46736000D03*
D13*
X104140000Y-54864000D03*
D14*
X111760000Y-54864000D03*
D13*
X104140000Y-62992000D03*
D14*
X111760000Y-62992000D03*
D13*
X104140000Y-71120000D03*
D14*
X111760000Y-71120000D03*
D13*
X104140000Y-79375000D03*
D14*
X111760000Y-79375000D03*
D15*
X71120000Y-43815000D03*
D16*
X73620000Y-43815000D03*
X76120000Y-43815000D03*
D15*
X71120000Y-52070000D03*
D16*
X73620000Y-52070000D03*
X76120000Y-52070000D03*
D15*
X71120000Y-60325000D03*
D16*
X73620000Y-60325000D03*
X76120000Y-60325000D03*
D15*
X71120000Y-68580000D03*
D16*
X73620000Y-68580000D03*
X76120000Y-68580000D03*
D15*
X71120000Y-76835000D03*
D16*
X73620000Y-76835000D03*
X76120000Y-76835000D03*
D15*
X82550000Y-43815000D03*
D16*
X85050000Y-43815000D03*
X87550000Y-43815000D03*
D15*
X82550000Y-52070000D03*
D16*
X85050000Y-52070000D03*
X87550000Y-52070000D03*
D15*
X82550000Y-60325000D03*
D16*
X85050000Y-60325000D03*
X87550000Y-60325000D03*
D15*
X82550000Y-68580000D03*
D16*
X85050000Y-68580000D03*
X87550000Y-68580000D03*
D15*
X82550000Y-76835000D03*
D16*
X85050000Y-76835000D03*
X87550000Y-76835000D03*
D15*
X116840000Y-43815000D03*
D16*
X119340000Y-43815000D03*
X121840000Y-43815000D03*
D15*
X116840000Y-52070000D03*
D16*
X119340000Y-52070000D03*
X121840000Y-52070000D03*
D15*
X116840000Y-60325000D03*
D16*
X119340000Y-60325000D03*
X121840000Y-60325000D03*
D15*
X116840000Y-68580000D03*
D16*
X119340000Y-68580000D03*
X121840000Y-68580000D03*
D15*
X116840000Y-76835000D03*
D16*
X119340000Y-76835000D03*
X121840000Y-76835000D03*
D15*
X128270000Y-43815000D03*
D16*
X130770000Y-43815000D03*
X133270000Y-43815000D03*
D15*
X128270000Y-52070000D03*
D16*
X130770000Y-52070000D03*
X133270000Y-52070000D03*
D15*
X128270000Y-60325000D03*
D16*
X130770000Y-60325000D03*
X133270000Y-60325000D03*
D15*
X128270000Y-68580000D03*
D16*
X130770000Y-68580000D03*
X133270000Y-68580000D03*
D15*
X128270000Y-76835000D03*
D16*
X130770000Y-76835000D03*
X133270000Y-76835000D03*
D15*
X132715000Y-113665000D03*
D16*
X130215000Y-113665000D03*
D15*
X143470000Y-113665000D03*
D16*
X140970000Y-113665000D03*
D15*
X153456000Y-50292000D03*
D16*
X155956000Y-50292000D03*
D15*
X141050000Y-50292000D03*
D16*
X143550000Y-50292000D03*
X146050000Y-50292000D03*
D17*
X109220000Y-111760000D03*
D18*
X106680000Y-111760000D03*
X104140000Y-111760000D03*
X101600000Y-111760000D03*
X99060000Y-111760000D03*
X96520000Y-111760000D03*
X93980000Y-111760000D03*
X91440000Y-111760000D03*
D19*
X92964000Y-36068000D03*
D14*
X100584000Y-36068000D03*
D19*
X92964000Y-39624000D03*
D14*
X100584000Y-39624000D03*
D19*
X111760000Y-39624000D03*
D14*
X104140000Y-39624000D03*
D19*
X111760000Y-36068000D03*
D14*
X104140000Y-36068000D03*
D19*
X130810000Y-89535000D03*
D14*
X130810000Y-81915000D03*
D19*
X134620000Y-81915000D03*
D14*
X134620000Y-89535000D03*
D20*
X154940000Y-113665000D03*
X152400000Y-116205000D03*
X149860000Y-113665000D03*
D21*
X157290000Y-95758000D03*
X139890000Y-95758000D03*
X139890500Y-56070500D03*
X157289500Y-56134000D03*
D15*
X121920000Y-113792000D03*
D16*
X119420000Y-113792000D03*
D22*
X133604000Y-104648000D03*
D23*
X133604000Y-102108000D03*
X136144000Y-104648000D03*
X136144000Y-102108000D03*
X138684000Y-104648000D03*
X138684000Y-102108000D03*
X141224000Y-104648000D03*
X141224000Y-102108000D03*
X143764000Y-104648000D03*
X143764000Y-102108000D03*
X146304000Y-104648000D03*
X146304000Y-102108000D03*
X148844000Y-104648000D03*
X148844000Y-102108000D03*
X151384000Y-104648000D03*
X151384000Y-102108000D03*
X153924000Y-104648000D03*
X153924000Y-102108000D03*
D17*
X69850000Y-124460000D03*
D18*
X69850000Y-127000000D03*
X69850000Y-129540000D03*
X69850000Y-132080000D03*
D15*
X141010000Y-37846000D03*
D16*
X143510000Y-37846000D03*
X146010000Y-37846000D03*
D19*
X144780000Y-65024000D03*
D14*
X152400000Y-65024000D03*
D19*
X144780000Y-59944000D03*
D14*
X152400000Y-59944000D03*
D19*
X78867000Y-94107000D03*
D14*
X78867000Y-101727000D03*
D11*
X134366000Y-37846000D03*
X156464000Y-138684000D03*
D24*
X156892000Y-39878000D03*
D25*
X151892000Y-39878000D03*
M02*
