M48
;DRILL file {KiCad 4.0.7} date 06/21/18 01:00:42
;FORMAT={-:-/ absolute / inch / decimal}
FMAT,2
INCH,TZ
T1C0.016
T2C0.031
T3C0.035
T4C0.039
T5C0.040
T6C0.041
T7C0.059
%
G90
G05
M72
T1
X3.825Y-5.
X6.175Y-3.95
X6.175Y-4.85
X6.225Y-3.95
T2
X3.105Y-3.705
X3.105Y-4.005
X3.66Y-1.42
X3.66Y-1.56
X3.66Y-1.68
X3.66Y-1.84
X3.66Y-2.
X3.66Y-2.16
X3.66Y-2.32
X3.66Y-2.49
X3.66Y-2.64
X3.66Y-2.8
X3.66Y-2.96
X3.66Y-3.125
X3.96Y-1.42
X3.96Y-1.56
X3.96Y-1.68
X3.96Y-1.84
X3.96Y-2.
X3.96Y-2.16
X3.96Y-2.32
X3.96Y-2.49
X3.96Y-2.64
X3.96Y-2.8
X3.96Y-2.96
X3.96Y-3.125
X4.1Y-1.42
X4.1Y-1.56
X4.1Y-1.69
X4.1Y-1.84
X4.1Y-2.
X4.1Y-2.16
X4.1Y-2.32
X4.1Y-2.48
X4.1Y-2.64
X4.1Y-2.8
X4.1Y-2.96
X4.1Y-3.125
X4.4Y-1.42
X4.4Y-1.56
X4.4Y-1.69
X4.4Y-1.84
X4.4Y-2.
X4.4Y-2.16
X4.4Y-2.32
X4.4Y-2.48
X4.4Y-2.64
X4.4Y-2.8
X4.4Y-2.96
X4.4Y-3.125
X5.15Y-3.225
X5.15Y-3.525
X5.3Y-3.225
X5.3Y-3.525
X5.7Y-2.36
X5.7Y-2.56
X6.Y-2.36
X6.Y-2.56
T3
X5.9Y-4.475
X6.Y-4.575
X6.1Y-4.475
T4
X2.75Y-4.9
X2.75Y-5.
X2.75Y-5.1
X2.75Y-5.2
X2.8Y-1.725
X2.8Y-2.05
X2.8Y-2.375
X2.8Y-2.7
X2.8Y-3.025
X2.8984Y-1.725
X2.8984Y-2.05
X2.8984Y-2.375
X2.8984Y-2.7
X2.8984Y-3.025
X2.9969Y-1.725
X2.9969Y-2.05
X2.9969Y-2.375
X2.9969Y-2.7
X2.9969Y-3.025
X3.25Y-1.725
X3.25Y-2.05
X3.25Y-2.375
X3.25Y-2.7
X3.25Y-3.025
X3.3484Y-1.725
X3.3484Y-2.05
X3.3484Y-2.375
X3.3484Y-2.7
X3.3484Y-3.025
X3.4469Y-1.725
X3.4469Y-2.05
X3.4469Y-2.375
X3.4469Y-2.7
X3.4469Y-3.025
X3.6Y-4.4
X3.7Y-4.4
X3.8Y-4.4
X3.9Y-4.4
X4.Y-4.4
X4.1Y-4.4
X4.2Y-4.4
X4.3Y-4.4
X4.6Y-1.725
X4.6Y-2.05
X4.6Y-2.375
X4.6Y-2.7
X4.6Y-3.025
X4.6984Y-1.725
X4.6984Y-2.05
X4.6984Y-2.375
X4.6984Y-2.7
X4.6984Y-3.025
X4.7969Y-1.725
X4.7969Y-2.05
X4.7969Y-2.375
X4.7969Y-2.7
X4.7969Y-3.025
X5.05Y-1.725
X5.05Y-2.05
X5.05Y-2.375
X5.05Y-2.7
X5.05Y-3.025
X5.1484Y-1.725
X5.1484Y-2.05
X5.1484Y-2.375
X5.1484Y-2.7
X5.1484Y-3.025
X5.2469Y-1.725
X5.2469Y-2.05
X5.2469Y-2.375
X5.2469Y-2.7
X5.2469Y-3.025
X5.5516Y-1.49
X5.5531Y-1.98
X5.65Y-1.49
X5.6516Y-1.98
X5.7484Y-1.49
X5.75Y-1.98
X5.98Y-1.57
X6.1769Y-1.57
T5
X2.825Y-4.225
X2.925Y-4.225
X3.025Y-4.225
X3.125Y-4.225
X3.225Y-3.325
X3.225Y-4.225
X3.325Y-3.325
X3.325Y-4.225
X3.425Y-3.325
X3.425Y-4.225
X3.525Y-3.325
X3.525Y-4.225
X3.625Y-3.325
X3.625Y-4.225
X3.725Y-3.325
X3.725Y-4.225
X3.825Y-3.325
X3.825Y-4.225
X3.925Y-3.325
X3.925Y-4.225
X4.025Y-3.325
X4.025Y-4.225
X4.125Y-3.325
X4.125Y-4.225
X4.225Y-3.325
X4.225Y-4.225
X4.325Y-3.325
X4.325Y-4.225
X4.425Y-3.325
X4.425Y-4.225
X4.525Y-3.325
X4.525Y-4.225
X4.625Y-3.325
X4.625Y-4.225
X4.725Y-3.325
X4.725Y-4.225
X5.26Y-4.02
X5.26Y-4.12
X5.36Y-4.02
X5.36Y-4.12
X5.46Y-4.02
X5.46Y-4.12
X5.56Y-4.02
X5.56Y-4.12
X5.66Y-4.02
X5.66Y-4.12
X5.76Y-4.02
X5.76Y-4.12
X5.86Y-4.02
X5.86Y-4.12
X5.96Y-4.02
X5.96Y-4.12
X6.06Y-4.02
X6.06Y-4.12
T6
X4.7016Y-4.48
X4.8Y-4.48
X5.1266Y-4.475
X5.225Y-4.475
X5.55Y-4.475
X5.6484Y-4.475
X6.0416Y-1.98
X6.14Y-1.98
T7
X5.5075Y-3.77
X5.5075Y-2.2075
X6.1925Y-2.21
X6.1925Y-3.77
T0
M30
